G04*
G04 #@! TF.GenerationSoftware,Altium Limited,Altium Designer,18.1.9 (240)*
G04*
G04 Layer_Physical_Order=3*
G04 Layer_Color=16440176*
%FSAX44Y44*%
%MOMM*%
G71*
G01*
G75*
%ADD15C,0.2032*%
%ADD16C,0.2540*%
%ADD78C,1.6500*%
%ADD82C,1.8000*%
%ADD95C,0.3810*%
%ADD96C,0.5080*%
%ADD101C,1.5500*%
%ADD102R,1.5500X1.5500*%
%ADD103R,1.8000X1.8000*%
%ADD104C,1.7000*%
%ADD106C,2.0320*%
%ADD107C,0.5000*%
%ADD108C,0.7620*%
G36*
X00557075Y00874366D02*
X00557371Y00872879D01*
X00557782Y00872263D01*
Y00850848D01*
X00557371Y00850233D01*
X00557075Y00848746D01*
X00557075Y00816957D01*
X00468315Y00743966D01*
X00429768D01*
X00422148Y00751586D01*
Y00801116D01*
X00431038Y00810006D01*
X00533908Y00886206D01*
X00557075D01*
X00557075Y00874366D01*
D02*
G37*
G36*
X01041908Y00922020D02*
X01043432Y00920496D01*
X01033272Y00910336D01*
X00853948Y00910336D01*
X00853948Y00874447D01*
X00853945Y00874442D01*
X00853930Y00874366D01*
X00837647D01*
Y00848746D01*
X00853650D01*
X00853650Y00688806D01*
X00853945Y00687319D01*
X00853948Y00687316D01*
X00853948Y00649986D01*
X00629953Y00649986D01*
X00626291Y00653649D01*
X00624610Y00654771D01*
X00622628Y00655165D01*
X00572883D01*
X00562284Y00665765D01*
Y00678350D01*
X00561889Y00680332D01*
X00560960Y00681723D01*
X00560960Y00728119D01*
X00562080Y00728947D01*
X00563500Y00729518D01*
X00564939Y00728922D01*
X00566928Y00728660D01*
X00568917Y00728922D01*
X00570771Y00729690D01*
X00572363Y00730911D01*
X00573584Y00732503D01*
X00574352Y00734357D01*
X00574614Y00736346D01*
X00574352Y00738335D01*
X00573584Y00740189D01*
X00572363Y00741781D01*
X00570771Y00743002D01*
X00568917Y00743770D01*
X00566928Y00744032D01*
X00564939Y00743770D01*
X00563500Y00743174D01*
X00562080Y00743745D01*
X00560960Y00744573D01*
X00560960Y00848746D01*
X00561667D01*
Y00874366D01*
X00560960D01*
X00560960Y00910336D01*
X00438658D01*
X00396931Y00868609D01*
Y00747776D01*
X00326898Y00747776D01*
Y00864616D01*
X00260858Y00918416D01*
Y01000406D01*
X01041908D01*
Y00922020D01*
D02*
G37*
G36*
X00471687Y00731028D02*
X00471721Y00730657D01*
X00471782Y00730301D01*
X00471868Y00729958D01*
X00471979Y00729629D01*
X00472117Y00729314D01*
X00472280Y00729012D01*
X00472468Y00728725D01*
X00472682Y00728451D01*
X00472923Y00728192D01*
X00471126Y00726395D01*
X00470867Y00726636D01*
X00470593Y00726850D01*
X00470306Y00727038D01*
X00470004Y00727202D01*
X00469689Y00727339D01*
X00469360Y00727450D01*
X00469017Y00727536D01*
X00468661Y00727597D01*
X00468290Y00727631D01*
X00467906Y00727640D01*
X00471678Y00731412D01*
X00471687Y00731028D01*
D02*
G37*
G36*
X00426784Y00714804D02*
X00426819Y00714433D01*
X00426879Y00714077D01*
X00426965Y00713734D01*
X00427076Y00713405D01*
X00427214Y00713090D01*
X00427377Y00712788D01*
X00427565Y00712501D01*
X00427780Y00712227D01*
X00428020Y00711968D01*
X00426224Y00710172D01*
X00425964Y00710412D01*
X00425690Y00710626D01*
X00425403Y00710815D01*
X00425102Y00710977D01*
X00424787Y00711115D01*
X00424458Y00711226D01*
X00424115Y00711312D01*
X00423758Y00711373D01*
X00423388Y00711407D01*
X00423003Y00711416D01*
X00426775Y00715188D01*
X00426784Y00714804D01*
D02*
G37*
G36*
X00557075Y00808954D02*
X00557075Y00744573D01*
X00557132Y00744287D01*
X00557118Y00743996D01*
X00557278Y00743551D01*
X00557371Y00743086D01*
X00557533Y00742844D01*
X00557631Y00742570D01*
X00557950Y00742220D01*
X00558213Y00741826D01*
X00558288Y00741776D01*
X00558528Y00741583D01*
X00558651Y00741449D01*
X00560272Y00740189D01*
X00559504Y00738335D01*
X00559242Y00736346D01*
X00559504Y00734357D01*
X00560272Y00732503D01*
X00558651Y00731243D01*
X00558528Y00731109D01*
X00558288Y00730916D01*
X00558213Y00730866D01*
X00557950Y00730472D01*
X00557631Y00730122D01*
X00557533Y00729848D01*
X00557371Y00729606D01*
X00557278Y00729141D01*
X00557118Y00728696D01*
X00557132Y00728405D01*
X00557075Y00728119D01*
Y00708583D01*
X00554728Y00707611D01*
X00547601Y00714738D01*
X00545920Y00715861D01*
X00543938Y00716255D01*
X00490387D01*
X00475602Y00731041D01*
X00475597Y00731056D01*
X00475587Y00731098D01*
X00475576Y00731162D01*
X00475567Y00731253D01*
X00475561Y00731502D01*
X00475526Y00731661D01*
X00475292Y00733439D01*
X00474524Y00735293D01*
X00473303Y00736885D01*
X00471711Y00738106D01*
X00471256Y00738294D01*
X00470930Y00739096D01*
X00470875Y00739792D01*
X00471004Y00741148D01*
X00554778Y00810039D01*
X00557075Y00808954D01*
D02*
G37*
G36*
X01110388Y00704183D02*
X01107849Y00703130D01*
X01099741Y00711238D01*
X01098060Y00712361D01*
X01096078Y00712756D01*
X01071866D01*
X01071798Y00712771D01*
X01071546Y00712861D01*
X01071176Y00713036D01*
X01070706Y00713309D01*
X01070150Y00713685D01*
X01069553Y00714142D01*
X01068041Y00715477D01*
X01067342Y00716167D01*
X01067198Y00716356D01*
X01064626Y00718329D01*
X01061632Y00719569D01*
X01058418Y00719992D01*
X01055204Y00719569D01*
X01052210Y00718329D01*
X01049638Y00716356D01*
X01047665Y00713784D01*
X01046425Y00710790D01*
X01046002Y00707576D01*
X01046425Y00704362D01*
X01047665Y00701368D01*
X01049638Y00698796D01*
X01052210Y00696823D01*
X01055204Y00695583D01*
X01058418Y00695160D01*
X01061632Y00695583D01*
X01064626Y00696823D01*
X01067198Y00698796D01*
X01067342Y00698985D01*
X01068041Y00699676D01*
X01069552Y00701010D01*
X01070150Y00701467D01*
X01070706Y00701843D01*
X01071176Y00702116D01*
X01071546Y00702291D01*
X01071798Y00702381D01*
X01071866Y00702396D01*
X01093933D01*
X01101498Y00694831D01*
Y00660139D01*
X01099152Y00659167D01*
X01097081Y00661238D01*
X01095400Y00662361D01*
X01093418Y00662756D01*
X01071866D01*
X01071798Y00662771D01*
X01071546Y00662861D01*
X01071176Y00663036D01*
X01070706Y00663309D01*
X01070150Y00663685D01*
X01069553Y00664142D01*
X01068041Y00665477D01*
X01067342Y00666167D01*
X01067198Y00666356D01*
X01064626Y00668329D01*
X01061632Y00669569D01*
X01058418Y00669992D01*
X01055204Y00669569D01*
X01052210Y00668329D01*
X01049638Y00666356D01*
X01047665Y00663784D01*
X01046425Y00660790D01*
X01046002Y00657576D01*
X01046425Y00654362D01*
X01047665Y00651368D01*
X01049638Y00648796D01*
X01052210Y00646823D01*
X01055204Y00645583D01*
X01058418Y00645160D01*
X01061632Y00645583D01*
X01064626Y00646823D01*
X01067198Y00648796D01*
X01067342Y00648985D01*
X01068041Y00649676D01*
X01069552Y00651010D01*
X01070150Y00651467D01*
X01070706Y00651843D01*
X01071176Y00652116D01*
X01071546Y00652291D01*
X01071798Y00652381D01*
X01071866Y00652396D01*
X01091273D01*
X01097689Y00645981D01*
Y00610699D01*
X01095342Y00609727D01*
X01093830Y00611239D01*
X01092150Y00612361D01*
X01090168Y00612756D01*
X01071866D01*
X01071798Y00612771D01*
X01071546Y00612861D01*
X01071176Y00613036D01*
X01070706Y00613309D01*
X01070150Y00613685D01*
X01069553Y00614142D01*
X01068041Y00615477D01*
X01067342Y00616167D01*
X01067198Y00616356D01*
X01064626Y00618329D01*
X01061632Y00619569D01*
X01058418Y00619992D01*
X01055204Y00619569D01*
X01052210Y00618329D01*
X01049638Y00616356D01*
X01047665Y00613784D01*
X01046425Y00610790D01*
X01046002Y00607576D01*
X01046425Y00604362D01*
X01047665Y00601368D01*
X01049638Y00598796D01*
X01052210Y00596823D01*
X01055204Y00595583D01*
X01058418Y00595160D01*
X01061632Y00595583D01*
X01064626Y00596823D01*
X01067198Y00598796D01*
X01067342Y00598985D01*
X01068041Y00599676D01*
X01069552Y00601010D01*
X01070150Y00601467D01*
X01070706Y00601843D01*
X01071176Y00602116D01*
X01071546Y00602291D01*
X01071798Y00602381D01*
X01071866Y00602397D01*
X01088023D01*
X01093878Y00596541D01*
Y00551961D01*
X01082943Y00541026D01*
X01017521D01*
X01015539Y00540632D01*
X01013858Y00539509D01*
X01006084Y00531734D01*
X01004961Y00530053D01*
X01004566Y00528071D01*
Y00518432D01*
X00995250Y00509115D01*
X00989443D01*
X00986127Y00512431D01*
Y00529336D01*
X00985733Y00531318D01*
X00984611Y00532999D01*
X00976916Y00540693D01*
X00978346Y00542556D01*
X00979510Y00545368D01*
X00979908Y00548386D01*
X00979510Y00551404D01*
X00978346Y00554216D01*
X00976493Y00556631D01*
X00974078Y00558484D01*
X00971266Y00559648D01*
X00970076Y00559805D01*
Y00562367D01*
X00971266Y00562524D01*
X00974078Y00563688D01*
X00976493Y00565541D01*
X00978346Y00567956D01*
X00979510Y00570768D01*
X00979908Y00573786D01*
X00979510Y00576804D01*
X00978346Y00579616D01*
X00976493Y00582031D01*
X00974078Y00583884D01*
X00971266Y00585048D01*
X00970076Y00585205D01*
Y00587767D01*
X00971266Y00587924D01*
X00974078Y00589088D01*
X00976493Y00590941D01*
X00978346Y00593356D01*
X00979510Y00596168D01*
X00979908Y00599186D01*
X00979510Y00602204D01*
X00978346Y00605016D01*
X00976493Y00607431D01*
X00974078Y00609284D01*
X00971266Y00610448D01*
X00970076Y00610605D01*
Y00613167D01*
X00971266Y00613324D01*
X00974078Y00614488D01*
X00976493Y00616341D01*
X00978346Y00618756D01*
X00979510Y00621568D01*
X00979908Y00624586D01*
X00979510Y00627604D01*
X00978346Y00630416D01*
X00976493Y00632831D01*
X00974078Y00634684D01*
X00971266Y00635848D01*
X00970076Y00636005D01*
Y00638567D01*
X00971266Y00638724D01*
X00974078Y00639888D01*
X00976493Y00641741D01*
X00978346Y00644156D01*
X00979510Y00646968D01*
X00979908Y00649986D01*
X00979510Y00653004D01*
X00978346Y00655816D01*
X00976493Y00658231D01*
X00974078Y00660084D01*
X00971266Y00661248D01*
X00970076Y00661405D01*
Y00663967D01*
X00971266Y00664124D01*
X00974078Y00665288D01*
X00976493Y00667141D01*
X00978346Y00669556D01*
X00979510Y00672368D01*
X00979908Y00675386D01*
X00979510Y00678404D01*
X00978346Y00681216D01*
X00976493Y00683631D01*
X00974078Y00685484D01*
X00971266Y00686648D01*
X00968248Y00687046D01*
X00965230Y00686648D01*
X00962418Y00685484D01*
X00960003Y00683631D01*
X00958150Y00681216D01*
X00956986Y00678404D01*
X00956829Y00677214D01*
X00954267D01*
X00954110Y00678404D01*
X00952946Y00681216D01*
X00951093Y00683631D01*
X00948678Y00685484D01*
X00945866Y00686648D01*
X00945581Y00686686D01*
X00945747Y00689226D01*
X00954408D01*
Y00712346D01*
X00931288D01*
Y00689226D01*
X00939949D01*
X00940116Y00686686D01*
X00939830Y00686648D01*
X00937018Y00685484D01*
X00934603Y00683631D01*
X00932750Y00681216D01*
X00931586Y00678404D01*
X00931188Y00675386D01*
X00931586Y00672368D01*
X00932750Y00669556D01*
X00934603Y00667141D01*
X00937018Y00665288D01*
X00939830Y00664124D01*
X00941020Y00663967D01*
Y00661405D01*
X00939830Y00661248D01*
X00937018Y00660084D01*
X00934603Y00658231D01*
X00932750Y00655816D01*
X00931586Y00653004D01*
X00931188Y00649986D01*
X00931586Y00646968D01*
X00932750Y00644156D01*
X00934603Y00641741D01*
X00937018Y00639888D01*
X00939830Y00638724D01*
X00941020Y00638567D01*
Y00636005D01*
X00939830Y00635848D01*
X00937018Y00634684D01*
X00934603Y00632831D01*
X00932750Y00630416D01*
X00931586Y00627604D01*
X00931188Y00624586D01*
X00931586Y00621568D01*
X00932750Y00618756D01*
X00934603Y00616341D01*
X00937018Y00614488D01*
X00939830Y00613324D01*
X00941020Y00613167D01*
Y00610605D01*
X00939830Y00610448D01*
X00937018Y00609284D01*
X00934603Y00607431D01*
X00932750Y00605016D01*
X00931586Y00602204D01*
X00931188Y00599186D01*
X00931586Y00596168D01*
X00932750Y00593356D01*
X00934603Y00590941D01*
X00937018Y00589088D01*
X00939830Y00587924D01*
X00941020Y00587767D01*
Y00585205D01*
X00939830Y00585048D01*
X00937018Y00583884D01*
X00934603Y00582031D01*
X00932750Y00579616D01*
X00931586Y00576804D01*
X00931188Y00573786D01*
X00931586Y00570768D01*
X00932750Y00567956D01*
X00934603Y00565541D01*
X00937018Y00563688D01*
X00939830Y00562524D01*
X00941020Y00562367D01*
Y00559805D01*
X00939830Y00559648D01*
X00937018Y00558484D01*
X00934603Y00556631D01*
X00932750Y00554216D01*
X00931586Y00551404D01*
X00931188Y00548386D01*
X00931586Y00545368D01*
X00932750Y00542556D01*
X00934603Y00540141D01*
X00937018Y00538288D01*
X00939830Y00537124D01*
X00941020Y00536967D01*
Y00534405D01*
X00939830Y00534248D01*
X00937018Y00533084D01*
X00934603Y00531231D01*
X00932750Y00528816D01*
X00931586Y00526004D01*
X00931188Y00522986D01*
X00931586Y00519968D01*
X00932750Y00517156D01*
X00934603Y00514741D01*
X00937018Y00512888D01*
X00939830Y00511724D01*
X00941020Y00511567D01*
Y00509005D01*
X00939830Y00508848D01*
X00937018Y00507684D01*
X00934603Y00505831D01*
X00932750Y00503416D01*
X00931586Y00500604D01*
X00931188Y00497586D01*
X00931586Y00494568D01*
X00932750Y00491756D01*
X00934603Y00489341D01*
X00937018Y00487488D01*
X00939830Y00486324D01*
X00941020Y00486167D01*
Y00483605D01*
X00939830Y00483448D01*
X00937018Y00482284D01*
X00934603Y00480431D01*
X00932750Y00478016D01*
X00931586Y00475204D01*
X00931188Y00472186D01*
X00931586Y00469168D01*
X00932750Y00466356D01*
X00934603Y00463941D01*
X00937018Y00462088D01*
X00939830Y00460924D01*
X00942848Y00460526D01*
X00945866Y00460924D01*
X00948678Y00462088D01*
X00951093Y00463941D01*
X00952946Y00466356D01*
X00954110Y00469168D01*
X00954267Y00470358D01*
X00956829D01*
X00956986Y00469168D01*
X00958150Y00466356D01*
X00960003Y00463941D01*
X00962418Y00462088D01*
X00965230Y00460924D01*
X00968248Y00460526D01*
X00971266Y00460924D01*
X00974078Y00462088D01*
X00976493Y00463941D01*
X00978346Y00466356D01*
X00979510Y00469168D01*
X00979908Y00472186D01*
X00979510Y00475204D01*
X00978346Y00478016D01*
X00977148Y00479576D01*
X00978266Y00482117D01*
X00995201D01*
X00997183Y00482511D01*
X00998864Y00483633D01*
X01020018Y00504788D01*
X01020522Y00504928D01*
X01022921Y00504688D01*
X01023223Y00504511D01*
X01024417Y00502955D01*
X01026936Y00501022D01*
X01029870Y00499806D01*
X01033018Y00499392D01*
X01036166Y00499806D01*
X01039100Y00501022D01*
X01041619Y00502955D01*
X01043552Y00505474D01*
X01044343Y00507383D01*
X01047093D01*
X01047884Y00505474D01*
X01049817Y00502955D01*
X01052336Y00501022D01*
X01055270Y00499806D01*
X01058418Y00499392D01*
X01061566Y00499806D01*
X01064500Y00501022D01*
X01067019Y00502955D01*
X01068952Y00505474D01*
X01069281Y00506267D01*
X01071888Y00505924D01*
X01071962Y00505360D01*
X01072762Y00503429D01*
X01074034Y00501772D01*
X01075691Y00500500D01*
X01077622Y00499700D01*
X01079693Y00499427D01*
X01087943D01*
X01090014Y00499700D01*
X01091945Y00500500D01*
X01093602Y00501772D01*
X01094874Y00503429D01*
X01095674Y00505360D01*
X01095947Y00507431D01*
Y00515681D01*
X01095674Y00517752D01*
X01094874Y00519683D01*
X01094496Y00520176D01*
X01094369Y00522763D01*
X01094823Y00523605D01*
X01107849Y00536631D01*
X01110388Y00535579D01*
Y00401166D01*
X00836455D01*
X00835473Y00403443D01*
X00836845Y00405121D01*
X00879840D01*
X00880077Y00404939D01*
X00881931Y00404171D01*
X00883920Y00403909D01*
X00885909Y00404171D01*
X00887763Y00404939D01*
X00889355Y00406160D01*
X00890576Y00407752D01*
X00891344Y00409606D01*
X00891606Y00411595D01*
X00891344Y00413584D01*
X00890576Y00415438D01*
X00889355Y00417030D01*
X00887763Y00418251D01*
X00886747Y00420835D01*
X00887043Y00422321D01*
X00887043Y00491254D01*
X00886747Y00492741D01*
X00885905Y00494001D01*
X00875113Y00504793D01*
X00873853Y00505635D01*
X00872366Y00505931D01*
X00859857D01*
X00858228Y00508471D01*
X00858395Y00508873D01*
X00858657Y00510862D01*
X00858395Y00512851D01*
X00857627Y00514705D01*
X00856406Y00516297D01*
X00854814Y00517518D01*
X00852960Y00518286D01*
X00852683Y00518322D01*
X00852518Y00518471D01*
X00849706Y00521283D01*
X00847606Y00522686D01*
X00845128Y00523179D01*
X00843930D01*
X00842642Y00524466D01*
Y00537406D01*
X00842824Y00537642D01*
X00843592Y00539496D01*
X00843854Y00541485D01*
X00843592Y00543475D01*
X00842824Y00545328D01*
X00841603Y00546920D01*
X00840011Y00548141D01*
X00838157Y00548909D01*
X00836168Y00549171D01*
X00834179Y00548909D01*
X00832325Y00548141D01*
X00830733Y00546920D01*
X00829512Y00545328D01*
X00828744Y00543475D01*
X00828482Y00541485D01*
X00828744Y00539496D01*
X00829512Y00537642D01*
X00829682Y00537421D01*
X00829694Y00537199D01*
Y00533717D01*
X00828837Y00533099D01*
X00827154Y00532598D01*
X00826041Y00533452D01*
X00824187Y00534220D01*
X00822198Y00534482D01*
X00820209Y00534220D01*
X00818355Y00533452D01*
X00816763Y00532231D01*
X00815542Y00530639D01*
X00814774Y00528785D01*
X00814540Y00527007D01*
X00814505Y00526848D01*
X00814499Y00526600D01*
X00814490Y00526508D01*
X00814479Y00526444D01*
X00814469Y00526402D01*
X00814464Y00526387D01*
X00813703Y00525625D01*
X00763017D01*
X00761035Y00525231D01*
X00759354Y00524109D01*
X00754521Y00519276D01*
X00728818D01*
X00727766Y00521815D01*
X00746507Y00540556D01*
X00750968D01*
X00752950Y00540951D01*
X00754631Y00542074D01*
X00778623Y00566067D01*
X00780773D01*
X00781796Y00565043D01*
X00783476Y00563921D01*
X00785458Y00563526D01*
X00795865D01*
X00795880Y00563519D01*
X00795917Y00563497D01*
X00795970Y00563459D01*
X00796041Y00563401D01*
X00796221Y00563229D01*
X00796358Y00563142D01*
X00797781Y00562050D01*
X00799635Y00561282D01*
X00801624Y00561020D01*
X00803613Y00561282D01*
X00805467Y00562050D01*
X00807059Y00563271D01*
X00808280Y00564863D01*
X00809048Y00566717D01*
X00809310Y00568706D01*
X00809048Y00570695D01*
X00808280Y00572549D01*
X00807059Y00574141D01*
X00805467Y00575362D01*
X00803613Y00576130D01*
X00801624Y00576392D01*
X00799635Y00576130D01*
X00797781Y00575362D01*
X00796358Y00574270D01*
X00796351Y00574266D01*
X00795527Y00574279D01*
X00794589Y00574409D01*
X00794226Y00574555D01*
X00794157Y00574660D01*
X00793134Y00577162D01*
X00793665Y00578442D01*
X00793926Y00580431D01*
X00793665Y00582420D01*
X00792897Y00584274D01*
X00791675Y00585866D01*
X00790084Y00587087D01*
X00788230Y00587855D01*
X00786241Y00588117D01*
X00784251Y00587855D01*
X00782398Y00587087D01*
X00780806Y00585866D01*
X00779585Y00584274D01*
X00778817Y00582420D01*
X00778555Y00580431D01*
X00778748Y00578965D01*
X00777858Y00577432D01*
X00776903Y00576426D01*
X00776478D01*
X00774496Y00576031D01*
X00772815Y00574908D01*
X00748823Y00550915D01*
X00744362D01*
X00742380Y00550521D01*
X00740699Y00549398D01*
X00721082Y00529781D01*
X00719517Y00529884D01*
X00717925Y00531105D01*
X00716072Y00531873D01*
X00714082Y00532135D01*
X00712093Y00531873D01*
X00710240Y00531105D01*
X00708816Y00530013D01*
X00708679Y00529926D01*
X00708500Y00529755D01*
X00708429Y00529696D01*
X00708376Y00529658D01*
X00708339Y00529636D01*
X00708324Y00529629D01*
X00704108D01*
X00694246Y00539491D01*
X00695002Y00541317D01*
X00695264Y00543306D01*
X00695002Y00545295D01*
X00694234Y00547149D01*
X00693013Y00548741D01*
X00691421Y00549962D01*
X00689567Y00550730D01*
X00687578Y00550992D01*
X00685589Y00550730D01*
X00683735Y00549962D01*
X00682143Y00548741D01*
X00680922Y00547149D01*
X00680154Y00545295D01*
X00679892Y00543306D01*
X00680154Y00541317D01*
X00680922Y00539463D01*
X00682143Y00537871D01*
X00682670Y00537467D01*
X00682793Y00536852D01*
X00683915Y00535171D01*
X00693654Y00525432D01*
X00692682Y00523086D01*
X00688596D01*
X00688335Y00523346D01*
X00686654Y00524469D01*
X00684672Y00524864D01*
X00622618D01*
X00621561Y00527403D01*
X00622452Y00528738D01*
X00622945Y00531216D01*
Y00538660D01*
X00622452Y00541138D01*
X00621049Y00543238D01*
X00614415Y00549872D01*
X00614142Y00551244D01*
X00612739Y00553344D01*
X00573903Y00592180D01*
X00574747Y00594853D01*
X00576601Y00595621D01*
X00578193Y00596842D01*
X00579414Y00598434D01*
X00580182Y00600288D01*
X00580444Y00602277D01*
X00580182Y00604266D01*
X00579414Y00606120D01*
X00578193Y00607711D01*
X00576601Y00608933D01*
X00574747Y00609701D01*
X00572758Y00609963D01*
X00570769Y00609701D01*
X00570736Y00609687D01*
X00568196Y00611385D01*
Y00619998D01*
X00568378Y00620235D01*
X00569146Y00622089D01*
X00569408Y00624078D01*
X00569146Y00626067D01*
X00568378Y00627921D01*
X00568090Y00628297D01*
X00569342Y00630836D01*
X00572626D01*
X00580489Y00622974D01*
X00582170Y00621851D01*
X00584152Y00621456D01*
X00601175D01*
X00638729Y00583902D01*
X00637757Y00581556D01*
X00629021D01*
X00628336Y00583209D01*
X00627115Y00584800D01*
X00625523Y00586022D01*
X00623669Y00586790D01*
X00621680Y00587052D01*
X00619691Y00586790D01*
X00617837Y00586022D01*
X00616245Y00584800D01*
X00615024Y00583209D01*
X00614256Y00581355D01*
X00613994Y00579366D01*
X00614256Y00577377D01*
X00615024Y00575523D01*
X00616245Y00573931D01*
X00617837Y00572710D01*
X00619691Y00571942D01*
X00621680Y00571680D01*
X00622410Y00571776D01*
X00622688Y00571591D01*
X00624670Y00571197D01*
X00624670Y00571197D01*
X00659939D01*
X00661921Y00571591D01*
X00661971Y00571624D01*
X00667439D01*
X00669732Y00569580D01*
X00669994Y00567590D01*
X00670762Y00565737D01*
X00671983Y00564145D01*
X00673575Y00562923D01*
X00675429Y00562156D01*
X00677418Y00561894D01*
X00679407Y00562156D01*
X00681261Y00562923D01*
X00682684Y00564016D01*
X00682821Y00564103D01*
X00683001Y00564274D01*
X00683072Y00564333D01*
X00683125Y00564371D01*
X00683162Y00564393D01*
X00683176Y00564400D01*
X00705879D01*
X00707132Y00561860D01*
X00707072Y00561782D01*
X00706304Y00559928D01*
X00706042Y00557939D01*
X00706304Y00555950D01*
X00707072Y00554096D01*
X00708293Y00552504D01*
X00709885Y00551283D01*
X00711739Y00550515D01*
X00713728Y00550253D01*
X00715717Y00550515D01*
X00717571Y00551283D01*
X00719162Y00552504D01*
X00720384Y00554096D01*
X00721152Y00555950D01*
X00721413Y00557939D01*
X00721152Y00559928D01*
X00720997Y00560302D01*
X00721731Y00561418D01*
X00722876Y00562402D01*
X00724408Y00562201D01*
X00726397Y00562463D01*
X00728251Y00563230D01*
X00729843Y00564452D01*
X00731064Y00566044D01*
X00731832Y00567897D01*
X00732094Y00569886D01*
X00731832Y00571876D01*
X00731064Y00573729D01*
X00729843Y00575321D01*
X00728251Y00576542D01*
X00726397Y00577310D01*
X00724408Y00577572D01*
X00722419Y00577310D01*
X00720565Y00576542D01*
X00718973Y00575321D01*
X00718769Y00575054D01*
X00718591Y00574921D01*
X00718445Y00574759D01*
X00713740D01*
X00713114Y00575426D01*
X00712253Y00577299D01*
X00712746Y00578489D01*
X00713008Y00580479D01*
X00712746Y00582468D01*
X00711978Y00584321D01*
X00710757Y00585913D01*
X00709165Y00587135D01*
X00707311Y00587902D01*
X00705322Y00588164D01*
X00703333Y00587902D01*
X00701479Y00587135D01*
X00699887Y00585913D01*
X00698666Y00584321D01*
X00697898Y00582468D01*
X00697834Y00581983D01*
X00687388D01*
X00685424Y00584408D01*
X00685741Y00585895D01*
X00685943Y00586022D01*
X00688848Y00585640D01*
X00692495Y00586120D01*
X00695893Y00587528D01*
X00698811Y00589767D01*
X00701051Y00592685D01*
X00702458Y00596083D01*
X00702939Y00599730D01*
X00702458Y00603377D01*
X00701051Y00606776D01*
X00698811Y00609694D01*
X00695893Y00611933D01*
X00692885Y00613179D01*
X00692554Y00614604D01*
X00692614Y00615887D01*
X00694007Y00616955D01*
X00695228Y00618547D01*
X00695996Y00620401D01*
X00696258Y00622390D01*
X00695996Y00624379D01*
X00695228Y00626233D01*
X00694007Y00627825D01*
X00692415Y00629046D01*
X00690561Y00629814D01*
X00688572Y00630076D01*
X00686583Y00629814D01*
X00684729Y00629046D01*
X00683137Y00627825D01*
X00681916Y00626233D01*
X00681148Y00624379D01*
X00680886Y00622390D01*
X00681148Y00620401D01*
X00681916Y00618547D01*
X00683137Y00616955D01*
X00684696Y00615759D01*
X00684795Y00615288D01*
X00684535Y00613065D01*
X00681803Y00611933D01*
X00678885Y00609694D01*
X00676645Y00606776D01*
X00675238Y00603377D01*
X00674758Y00599730D01*
X00675155Y00596712D01*
X00674455Y00595185D01*
X00673374Y00593945D01*
X00672327Y00593822D01*
X00667111Y00599039D01*
X00665430Y00600161D01*
X00663448Y00600555D01*
X00647893D01*
X00610023Y00638426D01*
X00608343Y00639548D01*
X00606361Y00639943D01*
X00598383D01*
X00596204Y00642396D01*
X00598409Y00644807D01*
X00620483D01*
X00637602Y00627687D01*
X00637609Y00627658D01*
X00637618Y00627602D01*
X00637624Y00627517D01*
X00637627Y00627273D01*
X00637636Y00627228D01*
X00637634Y00627215D01*
X00637896Y00625226D01*
X00638664Y00623372D01*
X00639885Y00621781D01*
X00641477Y00620559D01*
X00643331Y00619791D01*
X00645320Y00619529D01*
X00647309Y00619791D01*
X00649163Y00620559D01*
X00650755Y00621781D01*
X00651976Y00623372D01*
X00652744Y00625226D01*
X00653006Y00627215D01*
X00652744Y00629204D01*
X00651976Y00631058D01*
X00650755Y00632650D01*
X00649163Y00633871D01*
X00647309Y00634639D01*
X00645740Y00634846D01*
X00645482Y00634907D01*
X00645230Y00634917D01*
X00645131Y00634927D01*
X00645059Y00634940D01*
X00645009Y00634953D01*
X00644977Y00634964D01*
X00644973Y00634966D01*
X00636184Y00643755D01*
X00637156Y00646101D01*
X00853948Y00646101D01*
X00855434Y00646397D01*
X00856695Y00647239D01*
X00857537Y00648499D01*
X00857833Y00649986D01*
X00857833Y00684921D01*
X00910874Y00684921D01*
X00912361Y00685217D01*
X00913621Y00686059D01*
X00914463Y00687319D01*
X00914759Y00688806D01*
Y00870416D01*
X00914463Y00871902D01*
X00913621Y00873163D01*
X00911081Y00875703D01*
X00909821Y00876545D01*
X00908334Y00876841D01*
X00857833Y00876841D01*
X00857833Y00906451D01*
X01033272Y00906451D01*
X01034759Y00906747D01*
X01036019Y00907589D01*
X01046179Y00917749D01*
X01047021Y00919009D01*
X01047317Y00920496D01*
X01047021Y00921983D01*
X01046179Y00923243D01*
X01045793Y00923629D01*
Y01000406D01*
X01110388D01*
Y00704183D01*
D02*
G37*
G36*
X01065388Y00712637D02*
X01067084Y00711139D01*
X01067880Y00710531D01*
X01068641Y00710016D01*
X01069367Y00709595D01*
X01070058Y00709267D01*
X01070714Y00709033D01*
X01071336Y00708893D01*
X01071923Y00708846D01*
Y00706306D01*
X01071336Y00706259D01*
X01070714Y00706119D01*
X01070058Y00705885D01*
X01069367Y00705557D01*
X01068641Y00705136D01*
X01067880Y00704621D01*
X01067084Y00704013D01*
X01065388Y00702515D01*
X01064488Y00701626D01*
Y00713526D01*
X01065388Y00712637D01*
D02*
G37*
G36*
X00485004Y00698422D02*
X00484891Y00698441D01*
X00484766Y00698434D01*
X00484627Y00698399D01*
X00484474Y00698337D01*
X00484309Y00698249D01*
X00484131Y00698132D01*
X00483939Y00697989D01*
X00483515Y00697621D01*
X00483283Y00697396D01*
X00481487Y00699192D01*
X00481712Y00699424D01*
X00482080Y00699848D01*
X00482223Y00700040D01*
X00482339Y00700218D01*
X00482428Y00700384D01*
X00482490Y00700536D01*
X00482525Y00700675D01*
X00482532Y00700800D01*
X00482513Y00700913D01*
X00485004Y00698422D01*
D02*
G37*
G36*
X00510513Y00693066D02*
X00510117Y00693354D01*
X00509651Y00693497D01*
X00509112D01*
X00508501Y00693354D01*
X00507819Y00693066D01*
X00507064Y00692635D01*
X00506238Y00692061D01*
X00505340Y00691342D01*
X00503329Y00689474D01*
X00499736Y00693066D01*
X00500742Y00694108D01*
X00502323Y00695976D01*
X00502897Y00696802D01*
X00503329Y00697557D01*
X00503616Y00698239D01*
X00503759Y00698850D01*
Y00699389D01*
X00503616Y00699855D01*
X00503329Y00700251D01*
X00510513Y00693066D01*
D02*
G37*
G36*
X00910874Y00870416D02*
Y00688806D01*
X00857534Y00688806D01*
X00857534Y00872956D01*
X00908334Y00872956D01*
X00910874Y00870416D01*
D02*
G37*
G36*
X00494664Y00680810D02*
X00493053Y00679019D01*
X00489281Y00682791D01*
X00489331Y00682807D01*
X00489410Y00682855D01*
X00489517Y00682935D01*
X00489818Y00683193D01*
X00490764Y00684096D01*
X00491072Y00684402D01*
X00494664Y00680810D01*
D02*
G37*
G36*
X01065388Y00662637D02*
X01067084Y00661139D01*
X01067880Y00660531D01*
X01068641Y00660016D01*
X01069367Y00659595D01*
X01070058Y00659267D01*
X01070714Y00659033D01*
X01071336Y00658893D01*
X01071923Y00658846D01*
Y00656306D01*
X01071336Y00656259D01*
X01070714Y00656119D01*
X01070058Y00655885D01*
X01069367Y00655557D01*
X01068641Y00655136D01*
X01067880Y00654621D01*
X01067084Y00654013D01*
X01065388Y00652515D01*
X01064488Y00651626D01*
Y00663526D01*
X01065388Y00662637D01*
D02*
G37*
G36*
X00525186Y00697768D02*
X00526350Y00694956D01*
X00528203Y00692541D01*
X00530618Y00690688D01*
X00533430Y00689524D01*
X00536448Y00689126D01*
X00539466Y00689524D01*
X00542278Y00690688D01*
X00544693Y00692541D01*
X00546546Y00694956D01*
X00546972Y00695984D01*
X00549512Y00695479D01*
Y00680763D01*
X00549906Y00678781D01*
X00551029Y00677100D01*
X00551925Y00676204D01*
Y00663620D01*
X00552319Y00661638D01*
X00553442Y00659957D01*
X00560933Y00652466D01*
X00560020Y00649787D01*
X00558695Y00649616D01*
X00544373Y00663939D01*
X00542692Y00665061D01*
X00540710Y00665455D01*
X00521066D01*
X00519948Y00667996D01*
X00521146Y00669556D01*
X00522310Y00672368D01*
X00522708Y00675386D01*
X00522310Y00678404D01*
X00521146Y00681216D01*
X00519293Y00683631D01*
X00516878Y00685484D01*
X00514066Y00686648D01*
X00513781Y00686686D01*
X00513947Y00689226D01*
X00522608D01*
Y00697887D01*
X00525148Y00698054D01*
X00525186Y00697768D01*
D02*
G37*
G36*
X00459539Y00646617D02*
X00459826Y00646380D01*
X00460121Y00646170D01*
X00460424Y00645989D01*
X00460735Y00645835D01*
X00461055Y00645709D01*
X00461383Y00645611D01*
X00461720Y00645542D01*
X00462065Y00645500D01*
X00462419Y00645486D01*
Y00642946D01*
X00462065Y00642932D01*
X00461720Y00642890D01*
X00461383Y00642820D01*
X00461055Y00642722D01*
X00460735Y00642597D01*
X00460424Y00642443D01*
X00460121Y00642261D01*
X00459826Y00642052D01*
X00459539Y00641814D01*
X00459261Y00641549D01*
Y00646883D01*
X00459539Y00646617D01*
D02*
G37*
G36*
X00503887Y00638418D02*
X00504173Y00638180D01*
X00504468Y00637971D01*
X00504771Y00637789D01*
X00505083Y00637635D01*
X00505403Y00637509D01*
X00505731Y00637412D01*
X00506068Y00637342D01*
X00506413Y00637300D01*
X00506766Y00637286D01*
Y00634746D01*
X00506413Y00634732D01*
X00506068Y00634690D01*
X00505731Y00634620D01*
X00505403Y00634523D01*
X00505083Y00634397D01*
X00504771Y00634243D01*
X00504468Y00634062D01*
X00504173Y00633852D01*
X00503887Y00633614D01*
X00503609Y00633349D01*
Y00638683D01*
X00503887Y00638418D01*
D02*
G37*
G36*
X00530151Y00620068D02*
X00524513Y00627105D01*
X00525606Y00629604D01*
X00526097Y00629172D01*
X00526600Y00628847D01*
X00527113Y00628628D01*
X00527636Y00628517D01*
X00528171Y00628513D01*
X00528716Y00628617D01*
X00529272Y00628827D01*
X00529839Y00629145D01*
X00530416Y00629570D01*
X00531004Y00630102D01*
X00530151Y00620068D01*
D02*
G37*
G36*
X00642374Y00632055D02*
X00642647Y00631841D01*
X00642935Y00631651D01*
X00643236Y00631487D01*
X00643551Y00631347D01*
X00643880Y00631233D01*
X00644224Y00631143D01*
X00644581Y00631079D01*
X00644952Y00631040D01*
X00645338Y00631025D01*
X00641511Y00627309D01*
X00641508Y00627692D01*
X00641478Y00628062D01*
X00641422Y00628418D01*
X00641339Y00628760D01*
X00641230Y00629088D01*
X00641095Y00629403D01*
X00640934Y00629705D01*
X00640746Y00629992D01*
X00640532Y00630266D01*
X00640291Y00630527D01*
X00642115Y00632295D01*
X00642374Y00632055D01*
D02*
G37*
G36*
X00564365Y00621311D02*
X00564343Y00621221D01*
X00564324Y00621088D01*
X00564294Y00620694D01*
X00564263Y00619387D01*
X00564262Y00618952D01*
X00559182D01*
X00559055Y00621357D01*
X00564389D01*
X00564365Y00621311D01*
D02*
G37*
G36*
X00256973Y00918416D02*
X00257012Y00918220D01*
X00256994Y00918021D01*
X00257159Y00917482D01*
X00257269Y00916929D01*
X00257380Y00916763D01*
X00257439Y00916572D01*
X00257798Y00916138D01*
X00258111Y00915669D01*
X00258277Y00915558D01*
X00258405Y00915404D01*
X00323013Y00862770D01*
Y00747776D01*
X00323309Y00746289D01*
X00324151Y00745029D01*
X00325411Y00744187D01*
X00326898Y00743891D01*
X00396931Y00743891D01*
X00398418Y00744187D01*
X00399678Y00745029D01*
X00400520Y00746289D01*
X00400816Y00747776D01*
Y00867000D01*
X00440267Y00906451D01*
X00557075D01*
X00557075Y00890091D01*
X00533908D01*
X00533441Y00889998D01*
X00532966Y00889975D01*
X00532705Y00889851D01*
X00532421Y00889795D01*
X00532026Y00889531D01*
X00531596Y00889327D01*
X00428726Y00813128D01*
X00428531Y00812913D01*
X00428291Y00812753D01*
X00419401Y00803863D01*
X00418559Y00802603D01*
X00418263Y00801116D01*
Y00751586D01*
X00418559Y00750099D01*
X00419401Y00748839D01*
X00427021Y00741219D01*
X00428281Y00740377D01*
X00429768Y00740081D01*
X00462427D01*
X00463289Y00737541D01*
X00462433Y00736885D01*
X00461212Y00735293D01*
X00460444Y00733439D01*
X00460182Y00731450D01*
X00460444Y00729461D01*
X00461212Y00727607D01*
X00462433Y00726015D01*
X00464025Y00724794D01*
X00465879Y00724026D01*
X00467657Y00723792D01*
X00467816Y00723757D01*
X00468064Y00723751D01*
X00468156Y00723742D01*
X00468220Y00723731D01*
X00468262Y00723721D01*
X00468277Y00723716D01*
X00481158Y00710835D01*
X00480824Y00707577D01*
X00480712Y00707491D01*
X00479491Y00705899D01*
X00478723Y00704045D01*
X00478461Y00702056D01*
X00478515Y00701646D01*
X00477600Y00700276D01*
X00477206Y00698294D01*
Y00676141D01*
X00477600Y00674158D01*
X00478723Y00672478D01*
X00482740Y00668461D01*
X00484421Y00667338D01*
X00486403Y00666944D01*
X00487206D01*
X00497537Y00656613D01*
X00499217Y00655491D01*
X00500118Y00653806D01*
X00499786Y00653004D01*
X00499388Y00649986D01*
X00499786Y00646968D01*
X00500119Y00646162D01*
X00498899Y00643440D01*
X00497045Y00642672D01*
X00495453Y00641451D01*
X00494232Y00639859D01*
X00493464Y00638005D01*
X00493202Y00636016D01*
X00493464Y00634027D01*
X00494232Y00632173D01*
X00495453Y00630581D01*
X00497045Y00629360D01*
X00498899Y00628592D01*
X00499567Y00625942D01*
X00499388Y00624586D01*
X00499786Y00621568D01*
X00500739Y00619267D01*
X00500147Y00617567D01*
X00499451Y00616538D01*
X00498097Y00616362D01*
X00466581Y00647878D01*
X00464900Y00649001D01*
X00462918Y00649395D01*
X00462299D01*
X00462284Y00649403D01*
X00462247Y00649425D01*
X00462194Y00649462D01*
X00462123Y00649521D01*
X00461944Y00649693D01*
X00461807Y00649780D01*
X00460383Y00650872D01*
X00458530Y00651640D01*
X00456540Y00651902D01*
X00454551Y00651640D01*
X00452697Y00650872D01*
X00451106Y00649650D01*
X00449884Y00648059D01*
X00449117Y00646205D01*
X00448855Y00644216D01*
X00449013Y00643013D01*
X00448162Y00642661D01*
X00446571Y00641440D01*
X00446548Y00641410D01*
X00443258Y00641109D01*
X00440508Y00643859D01*
Y00712206D01*
X00440113Y00714188D01*
X00439899Y00714508D01*
X00439994Y00715226D01*
X00439732Y00717215D01*
X00438964Y00719069D01*
X00437743Y00720661D01*
X00436151Y00721882D01*
X00434297Y00722650D01*
X00432308Y00722912D01*
X00430319Y00722650D01*
X00428465Y00721882D01*
X00427637Y00721246D01*
X00426808Y00721882D01*
X00424955Y00722650D01*
X00422965Y00722912D01*
X00420976Y00722650D01*
X00419123Y00721882D01*
X00417531Y00720661D01*
X00416309Y00719069D01*
X00415541Y00717215D01*
X00415280Y00715226D01*
X00415541Y00713237D01*
X00416309Y00711383D01*
X00417531Y00709791D01*
X00419123Y00708570D01*
X00420976Y00707802D01*
X00422755Y00707568D01*
X00422913Y00707533D01*
X00423162Y00707527D01*
X00423253Y00707518D01*
X00423318Y00707507D01*
X00423359Y00707497D01*
X00423375Y00707492D01*
X00424589Y00706278D01*
Y00624586D01*
X00424983Y00622604D01*
X00426105Y00620924D01*
X00456774Y00590255D01*
X00456311Y00587126D01*
X00455874Y00586790D01*
X00454652Y00585198D01*
X00453884Y00583344D01*
X00453623Y00581355D01*
X00453884Y00579366D01*
X00454652Y00577512D01*
X00455874Y00575920D01*
X00457465Y00574699D01*
X00459319Y00573931D01*
X00461308Y00573669D01*
X00462339Y00573805D01*
X00464011Y00573472D01*
X00464012Y00573472D01*
X00467995D01*
X00469467Y00571794D01*
X00469729Y00569805D01*
X00470497Y00567951D01*
X00471718Y00566359D01*
X00473310Y00565138D01*
X00475164Y00564370D01*
X00477153Y00564108D01*
X00479142Y00564370D01*
X00479992Y00564722D01*
X00481936Y00562778D01*
X00481819Y00562497D01*
X00481558Y00560508D01*
X00481819Y00558519D01*
X00482587Y00556665D01*
X00483809Y00555073D01*
X00483979Y00554943D01*
X00484072Y00554812D01*
X00484241Y00554653D01*
X00484278Y00554612D01*
Y00533919D01*
X00484271Y00533904D01*
X00484249Y00533867D01*
X00484211Y00533814D01*
X00484153Y00533743D01*
X00484017Y00533601D01*
X00483875Y00533466D01*
X00483804Y00533407D01*
X00483751Y00533369D01*
X00483714Y00533347D01*
X00483699Y00533340D01*
X00423410D01*
X00412583Y00544167D01*
X00412578Y00544182D01*
X00412567Y00544224D01*
X00412556Y00544288D01*
X00412548Y00544379D01*
X00412542Y00544628D01*
X00412507Y00544787D01*
X00412272Y00546565D01*
X00411505Y00548419D01*
X00410283Y00550011D01*
X00408691Y00551232D01*
X00406838Y00552000D01*
X00404849Y00552262D01*
X00402859Y00552000D01*
X00401006Y00551232D01*
X00399414Y00550011D01*
X00398192Y00548419D01*
X00397425Y00546565D01*
X00397163Y00544576D01*
X00397425Y00542587D01*
X00398192Y00540733D01*
X00399414Y00539141D01*
X00401006Y00537920D01*
X00402859Y00537152D01*
X00404638Y00536918D01*
X00404796Y00536883D01*
X00405045Y00536877D01*
X00405136Y00536868D01*
X00405201Y00536857D01*
X00405242Y00536847D01*
X00405258Y00536842D01*
X00417602Y00524498D01*
X00419282Y00523375D01*
X00421264Y00522981D01*
X00483699D01*
X00483714Y00522974D01*
X00483751Y00522952D01*
X00483804Y00522914D01*
X00483875Y00522855D01*
X00484055Y00522684D01*
X00484192Y00522597D01*
X00485615Y00521504D01*
X00487469Y00520737D01*
X00489458Y00520475D01*
X00491447Y00520737D01*
X00493301Y00521504D01*
X00494893Y00522726D01*
X00496114Y00524318D01*
X00496882Y00526171D01*
X00497144Y00528161D01*
X00496882Y00530150D01*
X00496114Y00532003D01*
X00495022Y00533427D01*
X00494935Y00533564D01*
X00494763Y00533743D01*
X00494705Y00533814D01*
X00494667Y00533867D01*
X00494645Y00533904D01*
X00494637Y00533919D01*
Y00539601D01*
X00496984Y00540573D01*
X00503435Y00534122D01*
X00503269Y00531588D01*
X00502803Y00531231D01*
X00500950Y00528816D01*
X00499786Y00526004D01*
X00499388Y00522986D01*
X00499786Y00519968D01*
X00500160Y00519065D01*
X00498462Y00516525D01*
X00470198D01*
X00468216Y00516131D01*
X00466535Y00515008D01*
X00439277Y00487749D01*
X00439246Y00487727D01*
X00439148Y00487664D01*
X00439035Y00487601D01*
X00438905Y00487538D01*
X00438803Y00487495D01*
X00438354Y00487345D01*
X00438104Y00487281D01*
X00438020Y00487241D01*
X00437939Y00487230D01*
X00436085Y00486462D01*
X00434493Y00485241D01*
X00433272Y00483649D01*
X00432504Y00481795D01*
X00432242Y00479806D01*
X00432504Y00477817D01*
X00433272Y00475963D01*
X00434493Y00474371D01*
X00436085Y00473150D01*
X00437939Y00472382D01*
X00439928Y00472120D01*
X00441917Y00472382D01*
X00443771Y00473150D01*
X00445363Y00474371D01*
X00446584Y00475963D01*
X00447352Y00477817D01*
X00447614Y00479806D01*
X00447428Y00481215D01*
X00447428Y00481251D01*
X00472343Y00506166D01*
X00499859D01*
X00501112Y00503626D01*
X00500950Y00503416D01*
X00499786Y00500604D01*
X00499388Y00497586D01*
X00499542Y00496415D01*
X00497476Y00493876D01*
X00485754D01*
X00483772Y00493481D01*
X00482092Y00492359D01*
X00473463Y00483730D01*
X00473448Y00483725D01*
X00473406Y00483715D01*
X00473342Y00483704D01*
X00473251Y00483695D01*
X00473002Y00483689D01*
X00472843Y00483654D01*
X00471065Y00483420D01*
X00469211Y00482652D01*
X00467619Y00481431D01*
X00466398Y00479839D01*
X00465630Y00477985D01*
X00465368Y00475996D01*
X00465630Y00474007D01*
X00466398Y00472153D01*
X00467619Y00470561D01*
X00469211Y00469340D01*
X00471065Y00468572D01*
X00473054Y00468310D01*
X00475043Y00468572D01*
X00476897Y00469340D01*
X00478489Y00470561D01*
X00479710Y00472153D01*
X00480478Y00474007D01*
X00480712Y00475785D01*
X00480747Y00475944D01*
X00480753Y00476192D01*
X00480762Y00476284D01*
X00480773Y00476348D01*
X00480783Y00476390D01*
X00480788Y00476405D01*
X00487900Y00483517D01*
X00501156D01*
X00501813Y00482721D01*
X00502803Y00480431D01*
X00500950Y00478016D01*
X00499786Y00475204D01*
X00499388Y00472186D01*
X00499786Y00469168D01*
X00500950Y00466356D01*
X00502803Y00463941D01*
X00505218Y00462088D01*
X00507966Y00460950D01*
X00508795Y00460541D01*
X00509814Y00458775D01*
X00509552Y00456786D01*
X00509814Y00454797D01*
X00510582Y00452943D01*
X00510937Y00452481D01*
X00509684Y00449941D01*
X00395277D01*
X00382482Y00462736D01*
X00383668Y00465141D01*
X00383968Y00465102D01*
X00387116Y00465516D01*
X00390050Y00466732D01*
X00392569Y00468665D01*
X00394502Y00471184D01*
X00395718Y00474118D01*
X00396132Y00477266D01*
X00395718Y00480414D01*
X00394502Y00483348D01*
X00392569Y00485867D01*
X00390050Y00487800D01*
X00387116Y00489016D01*
X00383968Y00489430D01*
X00380820Y00489016D01*
X00377886Y00487800D01*
X00376503Y00486739D01*
X00373963Y00487991D01*
Y00491254D01*
X00373667Y00492741D01*
X00372825Y00494001D01*
X00371565Y00494843D01*
X00370078Y00495139D01*
X00347218D01*
X00345731Y00494843D01*
X00344471Y00494001D01*
X00343629Y00492741D01*
X00343333Y00491254D01*
Y00489959D01*
X00342396Y00489206D01*
X00340793Y00488530D01*
X00339364Y00489122D01*
X00337293Y00489394D01*
X00329043D01*
X00326972Y00489122D01*
X00325041Y00488322D01*
X00323384Y00487050D01*
X00322112Y00485393D01*
X00321312Y00483462D01*
X00321040Y00481391D01*
Y00473141D01*
X00321312Y00471070D01*
X00322112Y00469139D01*
X00323384Y00467482D01*
X00325041Y00466210D01*
X00326972Y00465410D01*
X00329043Y00465137D01*
X00337293D01*
X00339364Y00465410D01*
X00340793Y00466002D01*
X00342220Y00465537D01*
X00343437Y00464652D01*
X00343477Y00464451D01*
X00343614Y00463725D01*
X00343625Y00463708D01*
X00343629Y00463688D01*
X00344039Y00463075D01*
X00344443Y00462456D01*
X00392314Y00413588D01*
X00392331Y00413576D01*
X00392342Y00413559D01*
X00392956Y00413149D01*
X00393566Y00412733D01*
X00393586Y00412728D01*
X00393603Y00412717D01*
X00394326Y00412573D01*
X00395049Y00412421D01*
X00395069Y00412425D01*
X00395089Y00412421D01*
X00514043Y00412421D01*
X00514552Y00411193D01*
X00515773Y00409601D01*
X00517365Y00408380D01*
X00519219Y00407612D01*
X00521208Y00407350D01*
X00523197Y00407612D01*
X00525051Y00408380D01*
X00526643Y00409601D01*
X00527864Y00411193D01*
X00528373Y00412421D01*
X00698773Y00412421D01*
X00700370Y00409881D01*
X00700212Y00408686D01*
X00700474Y00406697D01*
X00701242Y00404843D01*
X00702115Y00403705D01*
X00701646Y00402079D01*
X00701009Y00401166D01*
X00193647D01*
Y01000406D01*
X00256973D01*
Y00918416D01*
D02*
G37*
G36*
X01065388Y00612637D02*
X01067084Y00611139D01*
X01067880Y00610531D01*
X01068641Y00610016D01*
X01069367Y00609595D01*
X01070058Y00609267D01*
X01070714Y00609033D01*
X01071336Y00608893D01*
X01071923Y00608846D01*
Y00606306D01*
X01071336Y00606259D01*
X01070714Y00606119D01*
X01070058Y00605885D01*
X01069367Y00605557D01*
X01068641Y00605136D01*
X01067880Y00604621D01*
X01067084Y00604013D01*
X01065388Y00602515D01*
X01064488Y00601626D01*
Y00613526D01*
X01065388Y00612637D01*
D02*
G37*
G36*
X00493325Y00606484D02*
X00495006Y00605361D01*
X00496988Y00604967D01*
X00498644D01*
X00500055Y00602855D01*
X00499786Y00602204D01*
X00499388Y00599186D01*
X00499786Y00596168D01*
X00500950Y00593356D01*
X00502803Y00590941D01*
X00503055Y00590748D01*
X00503141Y00590269D01*
X00501933Y00588020D01*
X00496346D01*
X00457109Y00627257D01*
X00457411Y00630548D01*
X00457440Y00630570D01*
X00458661Y00632162D01*
X00459429Y00634016D01*
X00459691Y00636005D01*
X00459604Y00636669D01*
X00461752Y00638057D01*
X00493325Y00606484D01*
D02*
G37*
G36*
X00555248Y00618523D02*
Y00595205D01*
X00555740Y00592727D01*
X00557144Y00590627D01*
X00557614Y00590156D01*
X00556363Y00587815D01*
X00555333Y00588020D01*
X00545563D01*
X00544355Y00590269D01*
X00544441Y00590748D01*
X00544693Y00590941D01*
X00546546Y00593356D01*
X00547710Y00596168D01*
X00548108Y00599186D01*
X00547710Y00602204D01*
X00546546Y00605016D01*
X00544693Y00607431D01*
X00544227Y00607788D01*
X00544061Y00610322D01*
X00550401Y00616661D01*
X00551523Y00618342D01*
X00551639Y00618923D01*
X00552561Y00619645D01*
X00552819Y00619706D01*
X00555248Y00618523D01*
D02*
G37*
G36*
X00671952Y00588690D02*
X00672230Y00588480D01*
X00672515Y00588308D01*
X00672808Y00588174D01*
X00673109Y00588077D01*
X00673417Y00588018D01*
X00673733Y00587996D01*
X00674056Y00588012D01*
X00674387Y00588066D01*
X00674726Y00588157D01*
X00672242Y00583437D01*
X00672121Y00583814D01*
X00671842Y00584525D01*
X00671684Y00584858D01*
X00671333Y00585479D01*
X00671139Y00585767D01*
X00670934Y00586040D01*
X00670716Y00586299D01*
X00670486Y00586542D01*
X00671682Y00588938D01*
X00671952Y00588690D01*
D02*
G37*
G36*
X00654377Y00580567D02*
X00654099Y00580833D01*
X00653813Y00581070D01*
X00653518Y00581280D01*
X00653215Y00581461D01*
X00652903Y00581615D01*
X00652583Y00581741D01*
X00652255Y00581838D01*
X00651918Y00581908D01*
X00651573Y00581950D01*
X00651220Y00581964D01*
Y00584504D01*
X00651573Y00584518D01*
X00651918Y00584560D01*
X00652255Y00584630D01*
X00652583Y00584728D01*
X00652903Y00584853D01*
X00653215Y00585007D01*
X00653518Y00585189D01*
X00653813Y00585398D01*
X00654099Y00585636D01*
X00654377Y00585901D01*
Y00580567D01*
D02*
G37*
G36*
X00704027Y00576895D02*
X00703947Y00576909D01*
X00703852Y00576898D01*
X00703742Y00576861D01*
X00703616Y00576800D01*
X00703476Y00576713D01*
X00703320Y00576602D01*
X00703149Y00576465D01*
X00702762Y00576117D01*
X00702545Y00575906D01*
X00700749Y00577702D01*
X00700961Y00577918D01*
X00701445Y00578477D01*
X00701557Y00578632D01*
X00701643Y00578773D01*
X00701705Y00578898D01*
X00701741Y00579008D01*
X00701752Y00579104D01*
X00701739Y00579184D01*
X00704027Y00576895D01*
D02*
G37*
G36*
X00721911Y00567009D02*
X00721608Y00567256D01*
X00721301Y00567477D01*
X00720988Y00567672D01*
X00720670Y00567841D01*
X00720347Y00567984D01*
X00720019Y00568101D01*
X00719685Y00568192D01*
X00719347Y00568257D01*
X00719003Y00568297D01*
X00718654Y00568310D01*
X00718436Y00570849D01*
X00718793Y00570864D01*
X00719138Y00570909D01*
X00719472Y00570982D01*
X00719794Y00571086D01*
X00720105Y00571218D01*
X00720403Y00571381D01*
X00720690Y00571573D01*
X00720966Y00571794D01*
X00721229Y00572045D01*
X00721481Y00572326D01*
X00721911Y00567009D01*
D02*
G37*
G36*
X00680417Y00571981D02*
X00680703Y00571744D01*
X00680998Y00571534D01*
X00681301Y00571352D01*
X00681613Y00571199D01*
X00681933Y00571073D01*
X00682261Y00570975D01*
X00682598Y00570905D01*
X00682943Y00570863D01*
X00683296Y00570849D01*
Y00568310D01*
X00682943Y00568296D01*
X00682598Y00568254D01*
X00682261Y00568184D01*
X00681933Y00568086D01*
X00681613Y00567960D01*
X00681301Y00567807D01*
X00680998Y00567625D01*
X00680703Y00567415D01*
X00680417Y00567178D01*
X00680139Y00566912D01*
Y00572247D01*
X00680417Y00571981D01*
D02*
G37*
G36*
X00798903Y00566039D02*
X00798625Y00566304D01*
X00798339Y00566542D01*
X00798044Y00566752D01*
X00797741Y00566933D01*
X00797429Y00567087D01*
X00797109Y00567212D01*
X00796781Y00567310D01*
X00796444Y00567380D01*
X00796099Y00567422D01*
X00795746Y00567436D01*
Y00569976D01*
X00796099Y00569990D01*
X00796444Y00570032D01*
X00796781Y00570102D01*
X00797109Y00570200D01*
X00797429Y00570325D01*
X00797741Y00570479D01*
X00798044Y00570661D01*
X00798339Y00570870D01*
X00798625Y00571108D01*
X00798903Y00571373D01*
Y00566039D01*
D02*
G37*
G36*
X00491806Y00557646D02*
X00491580Y00557345D01*
X00491380Y00557037D01*
X00491207Y00556724D01*
X00491061Y00556404D01*
X00490941Y00556078D01*
X00490848Y00555746D01*
X00490781Y00555408D01*
X00490741Y00555064D01*
X00490728Y00554713D01*
X00488188Y00554561D01*
X00488173Y00554917D01*
X00488130Y00555262D01*
X00488057Y00555597D01*
X00487955Y00555921D01*
X00487825Y00556235D01*
X00487664Y00556537D01*
X00487476Y00556829D01*
X00487257Y00557110D01*
X00487010Y00557381D01*
X00486734Y00557641D01*
X00492059Y00557942D01*
X00491806Y00557646D01*
D02*
G37*
G36*
X00949966Y00551555D02*
X00950259Y00551156D01*
X00950582Y00550805D01*
X00950936Y00550500D01*
X00951320Y00550242D01*
X00951734Y00550031D01*
X00952179Y00549867D01*
X00952654Y00549750D01*
X00953160Y00549679D01*
X00953696Y00549656D01*
Y00547116D01*
X00953160Y00547093D01*
X00952654Y00547022D01*
X00952179Y00546905D01*
X00951734Y00546741D01*
X00951320Y00546530D01*
X00950936Y00546272D01*
X00950582Y00545967D01*
X00950259Y00545616D01*
X00949966Y00545217D01*
X00949704Y00544772D01*
Y00552000D01*
X00949966Y00551555D01*
D02*
G37*
G36*
X00595679Y00544310D02*
X00595953Y00544096D01*
X00596240Y00543908D01*
X00596542Y00543745D01*
X00596857Y00543607D01*
X00597186Y00543496D01*
X00597528Y00543410D01*
X00597885Y00543349D01*
X00598256Y00543315D01*
X00598640Y00543306D01*
X00594868Y00539534D01*
X00594859Y00539918D01*
X00594825Y00540289D01*
X00594764Y00540645D01*
X00594678Y00540988D01*
X00594567Y00541317D01*
X00594430Y00541632D01*
X00594267Y00541934D01*
X00594078Y00542221D01*
X00593863Y00542495D01*
X00593624Y00542754D01*
X00595420Y00544551D01*
X00595679Y00544310D01*
D02*
G37*
G36*
X00408667Y00544154D02*
X00408702Y00543783D01*
X00408762Y00543427D01*
X00408848Y00543084D01*
X00408960Y00542755D01*
X00409097Y00542440D01*
X00409260Y00542138D01*
X00409449Y00541851D01*
X00409663Y00541577D01*
X00409903Y00541318D01*
X00408107Y00539521D01*
X00407847Y00539762D01*
X00407574Y00539976D01*
X00407286Y00540164D01*
X00406985Y00540327D01*
X00406670Y00540465D01*
X00406341Y00540576D01*
X00405998Y00540662D01*
X00405641Y00540723D01*
X00405271Y00540757D01*
X00404887Y00540766D01*
X00408658Y00544538D01*
X00408667Y00544154D01*
D02*
G37*
G36*
X00589712Y00541137D02*
X00589464Y00537979D01*
X00588713Y00537349D01*
X00573632D01*
X00545017Y00565964D01*
X00546546Y00567956D01*
X00547710Y00570768D01*
X00548108Y00573786D01*
X00547932Y00575121D01*
X00549925Y00577661D01*
X00553188D01*
X00589712Y00541137D01*
D02*
G37*
G36*
X00838811Y00538718D02*
X00838789Y00538628D01*
X00838770Y00538496D01*
X00838740Y00538101D01*
X00838709Y00536794D01*
X00838708Y00536359D01*
X00833628D01*
X00833501Y00538764D01*
X00838835D01*
X00838811Y00538718D01*
D02*
G37*
G36*
X00490742Y00533685D02*
X00490784Y00533340D01*
X00490854Y00533004D01*
X00490951Y00532675D01*
X00491077Y00532355D01*
X00491231Y00532044D01*
X00491413Y00531741D01*
X00491622Y00531446D01*
X00491860Y00531159D01*
X00492125Y00530881D01*
X00486791D01*
X00487056Y00531159D01*
X00487294Y00531446D01*
X00487504Y00531741D01*
X00487685Y00532044D01*
X00487839Y00532355D01*
X00487965Y00532675D01*
X00488062Y00533004D01*
X00488132Y00533340D01*
X00488174Y00533685D01*
X00488188Y00534039D01*
X00490728D01*
X00490742Y00533685D01*
D02*
G37*
G36*
X00486737Y00525494D02*
X00486459Y00525759D01*
X00486173Y00525996D01*
X00485878Y00526206D01*
X00485575Y00526388D01*
X00485263Y00526541D01*
X00484943Y00526667D01*
X00484615Y00526765D01*
X00484278Y00526835D01*
X00483933Y00526876D01*
X00483580Y00526890D01*
Y00529431D01*
X00483933Y00529445D01*
X00484278Y00529486D01*
X00484615Y00529556D01*
X00484943Y00529654D01*
X00485263Y00529780D01*
X00485575Y00529933D01*
X00485878Y00530115D01*
X00486173Y00530325D01*
X00486459Y00530562D01*
X00486737Y00530827D01*
Y00525494D01*
D02*
G37*
G36*
X00613964Y00525117D02*
X00612353Y00523326D01*
X00608581Y00527098D01*
X00608631Y00527114D01*
X00608710Y00527162D01*
X00608817Y00527242D01*
X00609118Y00527500D01*
X00610064Y00528402D01*
X00610372Y00528709D01*
X00613964Y00525117D01*
D02*
G37*
G36*
X00711362Y00521782D02*
X00711084Y00522048D01*
X00710797Y00522285D01*
X00710502Y00522495D01*
X00710199Y00522677D01*
X00709888Y00522830D01*
X00709568Y00522956D01*
X00709240Y00523054D01*
X00708903Y00523124D01*
X00708558Y00523165D01*
X00708204Y00523179D01*
Y00525719D01*
X00708558Y00525733D01*
X00708903Y00525775D01*
X00709240Y00525845D01*
X00709568Y00525943D01*
X00709888Y00526069D01*
X00710199Y00526222D01*
X00710502Y00526404D01*
X00710797Y00526614D01*
X00711084Y00526851D01*
X00711362Y00527116D01*
Y00521782D01*
D02*
G37*
G36*
X00822160Y00522986D02*
X00821776Y00522977D01*
X00821405Y00522943D01*
X00821049Y00522882D01*
X00820706Y00522796D01*
X00820377Y00522685D01*
X00820062Y00522547D01*
X00819760Y00522384D01*
X00819473Y00522196D01*
X00819199Y00521982D01*
X00818940Y00521741D01*
X00817143Y00523538D01*
X00817383Y00523797D01*
X00817598Y00524071D01*
X00817786Y00524358D01*
X00817950Y00524660D01*
X00818087Y00524975D01*
X00818198Y00525304D01*
X00818284Y00525647D01*
X00818345Y00526003D01*
X00818379Y00526374D01*
X00818388Y00526758D01*
X00822160Y00522986D01*
D02*
G37*
G36*
X00567824Y00528507D02*
X00569504Y00527384D01*
X00571486Y00526989D01*
X00599079D01*
X00599762Y00526417D01*
X00601010Y00524449D01*
X00600858Y00523288D01*
X00599385Y00521610D01*
X00559701D01*
X00544511Y00536800D01*
X00544375Y00537026D01*
X00544441Y00539948D01*
X00544693Y00540141D01*
X00546546Y00542556D01*
X00547611Y00545127D01*
X00549412Y00545971D01*
X00550119Y00546211D01*
X00567824Y00528507D01*
D02*
G37*
G36*
X00819477Y00513969D02*
X00819199Y00514234D01*
X00818913Y00514472D01*
X00818618Y00514682D01*
X00818315Y00514863D01*
X00818003Y00515017D01*
X00817683Y00515143D01*
X00817355Y00515240D01*
X00817018Y00515310D01*
X00816673Y00515352D01*
X00816320Y00515366D01*
Y00517906D01*
X00816673Y00517920D01*
X00817018Y00517962D01*
X00817355Y00518032D01*
X00817683Y00518130D01*
X00818003Y00518255D01*
X00818315Y00518409D01*
X00818618Y00518591D01*
X00818913Y00518800D01*
X00819199Y00519038D01*
X00819477Y00519303D01*
Y00513969D01*
D02*
G37*
G36*
X00950606Y00521784D02*
X00950739Y00519770D01*
X00950864Y00518881D01*
X00951029Y00518070D01*
X00951233Y00517337D01*
X00951476Y00516683D01*
X00951758Y00516107D01*
X00952079Y00515609D01*
X00952440Y00515190D01*
X00950644Y00513394D01*
X00950225Y00513755D01*
X00949727Y00514076D01*
X00949151Y00514358D01*
X00948497Y00514601D01*
X00947764Y00514805D01*
X00946953Y00514969D01*
X00946064Y00515095D01*
X00944050Y00515228D01*
X00942925Y00515236D01*
X00950598Y00522909D01*
X00950606Y00521784D01*
D02*
G37*
G36*
X00850933Y00514672D02*
X00847161Y00510900D01*
X00847145Y00510950D01*
X00847097Y00511029D01*
X00847017Y00511136D01*
X00846759Y00511437D01*
X00845857Y00512382D01*
X00845550Y00512690D01*
X00849143Y00516283D01*
X00850933Y00514672D01*
D02*
G37*
G36*
X00790457Y00508594D02*
X00790491Y00508223D01*
X00790552Y00507867D01*
X00790638Y00507524D01*
X00790749Y00507195D01*
X00790887Y00506880D01*
X00791049Y00506578D01*
X00791238Y00506291D01*
X00791452Y00506017D01*
X00791693Y00505758D01*
X00789896Y00503961D01*
X00789637Y00504202D01*
X00789363Y00504416D01*
X00789076Y00504604D01*
X00788774Y00504767D01*
X00788459Y00504905D01*
X00788130Y00505016D01*
X00787787Y00505102D01*
X00787431Y00505163D01*
X00787060Y00505197D01*
X00786676Y00505206D01*
X00790448Y00508978D01*
X00790457Y00508594D01*
D02*
G37*
G36*
X00774839Y00503892D02*
X00774463Y00503914D01*
X00774100Y00503907D01*
X00773749Y00503871D01*
X00773411Y00503805D01*
X00773086Y00503710D01*
X00772772Y00503585D01*
X00772472Y00503431D01*
X00772183Y00503247D01*
X00771908Y00503035D01*
X00771644Y00502792D01*
X00770015Y00504755D01*
X00770252Y00505010D01*
X00770468Y00505281D01*
X00770662Y00505566D01*
X00770834Y00505866D01*
X00770984Y00506181D01*
X00771113Y00506511D01*
X00771220Y00506855D01*
X00771305Y00507214D01*
X00771368Y00507588D01*
X00771409Y00507977D01*
X00774839Y00503892D01*
D02*
G37*
G36*
X00670379Y00500937D02*
X00670141Y00500651D01*
X00669932Y00500356D01*
X00669750Y00500053D01*
X00669596Y00499741D01*
X00669471Y00499421D01*
X00669373Y00499093D01*
X00669303Y00498756D01*
X00669261Y00498411D01*
X00669247Y00498058D01*
X00666707D01*
X00666693Y00498411D01*
X00666651Y00498756D01*
X00666581Y00499093D01*
X00666484Y00499421D01*
X00666358Y00499741D01*
X00666204Y00500053D01*
X00666023Y00500356D01*
X00665813Y00500651D01*
X00665576Y00500937D01*
X00665310Y00501215D01*
X00670644D01*
X00670379Y00500937D01*
D02*
G37*
G36*
X00949966Y00500755D02*
X00950259Y00500356D01*
X00950582Y00500005D01*
X00950936Y00499700D01*
X00951320Y00499442D01*
X00951734Y00499231D01*
X00952179Y00499067D01*
X00952654Y00498950D01*
X00953160Y00498879D01*
X00953696Y00498856D01*
Y00496316D01*
X00953160Y00496293D01*
X00952654Y00496222D01*
X00952179Y00496105D01*
X00951734Y00495941D01*
X00951320Y00495730D01*
X00950936Y00495472D01*
X00950582Y00495167D01*
X00950259Y00494816D01*
X00949966Y00494417D01*
X00949704Y00493972D01*
Y00501200D01*
X00949966Y00500755D01*
D02*
G37*
G36*
X00883158Y00491254D02*
X00883158Y00422321D01*
X00878906Y00418069D01*
X00834062D01*
X00831584Y00417576D01*
X00829683Y00416306D01*
X00827905D01*
X00827633Y00416661D01*
X00826041Y00417882D01*
X00824187Y00418650D01*
X00822198Y00418912D01*
X00820209Y00418650D01*
X00818355Y00417882D01*
X00816763Y00416661D01*
X00816491Y00416306D01*
X00752619Y00416306D01*
X00750602Y00418846D01*
X00750636Y00419100D01*
X00750374Y00421089D01*
X00749606Y00422943D01*
X00748385Y00424535D01*
X00746793Y00425756D01*
X00744939Y00426524D01*
X00742950Y00426786D01*
X00740961Y00426524D01*
X00739107Y00425756D01*
X00737515Y00424535D01*
X00736294Y00422943D01*
X00735526Y00421089D01*
X00735264Y00419100D01*
X00735298Y00418846D01*
X00733281Y00416306D01*
X00727015D01*
X00726743Y00416661D01*
X00725151Y00417882D01*
X00723297Y00418650D01*
X00721308Y00418912D01*
X00719319Y00418650D01*
X00717465Y00417882D01*
X00715873Y00416661D01*
X00715601Y00416306D01*
X00708398D01*
X00707898Y00416372D01*
X00707399Y00416306D01*
X00395089Y00416306D01*
X00347218Y00465175D01*
Y00491254D01*
X00370078D01*
Y00469646D01*
X00393668Y00446056D01*
X00659765D01*
X00660560Y00445017D01*
X00661177Y00443516D01*
X00660596Y00442114D01*
X00660334Y00440125D01*
X00660596Y00438136D01*
X00661364Y00436282D01*
X00662585Y00434690D01*
X00664177Y00433469D01*
X00666031Y00432701D01*
X00668020Y00432439D01*
X00670009Y00432701D01*
X00671863Y00433469D01*
X00673455Y00434690D01*
X00674676Y00436282D01*
X00675444Y00438136D01*
X00675706Y00440125D01*
X00675444Y00442114D01*
X00674863Y00443516D01*
X00675480Y00445017D01*
X00676275Y00446056D01*
X00698486D01*
X00698618Y00445051D01*
X00699386Y00443197D01*
X00700607Y00441605D01*
X00702199Y00440384D01*
X00704053Y00439616D01*
X00704081Y00439612D01*
X00704022Y00439166D01*
X00704284Y00437177D01*
X00705052Y00435323D01*
X00706273Y00433731D01*
X00707865Y00432510D01*
X00709719Y00431742D01*
X00711708Y00431480D01*
X00713697Y00431742D01*
X00715551Y00432510D01*
X00717143Y00433731D01*
X00718364Y00435323D01*
X00719132Y00437177D01*
X00719394Y00439166D01*
X00719132Y00441155D01*
X00718364Y00443009D01*
X00717975Y00443516D01*
X00719228Y00446056D01*
X00722476D01*
X00722858Y00445620D01*
X00723120Y00443631D01*
X00723888Y00441777D01*
X00725109Y00440185D01*
X00726701Y00438964D01*
X00728555Y00438196D01*
X00730544Y00437934D01*
X00732533Y00438196D01*
X00734387Y00438964D01*
X00735979Y00440185D01*
X00737200Y00441777D01*
X00737968Y00443631D01*
X00738230Y00445620D01*
X00738612Y00446056D01*
X00750296D01*
X00762611Y00456726D01*
X00787280D01*
X00789262Y00457121D01*
X00790943Y00458243D01*
X00800953Y00468254D01*
X00802076Y00469934D01*
X00802470Y00471916D01*
Y00489192D01*
X00802687Y00489589D01*
X00805010Y00491259D01*
X00805688Y00491170D01*
X00807677Y00491432D01*
X00809531Y00492200D01*
X00811123Y00493421D01*
X00812344Y00495013D01*
X00813112Y00496867D01*
X00813374Y00498856D01*
X00813194Y00500218D01*
X00814984Y00502046D01*
X00872366D01*
X00883158Y00491254D01*
D02*
G37*
G36*
X00642202Y00491218D02*
X00642393Y00491089D01*
X00642610Y00490974D01*
X00642856Y00490875D01*
X00643129Y00490792D01*
X00643429Y00490723D01*
X00643756Y00490670D01*
X00644111Y00490631D01*
X00644904Y00490601D01*
Y00486791D01*
X00644494Y00486783D01*
X00643756Y00486722D01*
X00643429Y00486669D01*
X00643129Y00486600D01*
X00642856Y00486517D01*
X00642610Y00486418D01*
X00642393Y00486303D01*
X00642202Y00486174D01*
X00642039Y00486029D01*
Y00491363D01*
X00642202Y00491218D01*
D02*
G37*
G36*
X00444489Y00483841D02*
X00444243Y00483572D01*
X00444032Y00483295D01*
X00443857Y00483008D01*
X00443717Y00482712D01*
X00443613Y00482407D01*
X00443544Y00482092D01*
X00443510Y00481768D01*
X00443512Y00481435D01*
X00443549Y00481093D01*
X00443621Y00480741D01*
X00439067Y00483517D01*
X00439452Y00483616D01*
X00440175Y00483857D01*
X00440514Y00484000D01*
X00440838Y00484158D01*
X00441146Y00484331D01*
X00441439Y00484519D01*
X00441717Y00484721D01*
X00441979Y00484939D01*
X00442227Y00485171D01*
X00444489Y00483841D01*
D02*
G37*
G36*
X00630690Y00493778D02*
X00632151Y00491306D01*
X00631894Y00490685D01*
X00631632Y00488696D01*
X00631894Y00486707D01*
X00632662Y00484853D01*
X00633883Y00483261D01*
X00634018Y00483158D01*
X00634262Y00482187D01*
X00634109Y00479976D01*
X00631523Y00477390D01*
X00611648D01*
X00611411Y00477572D01*
X00609557Y00478340D01*
X00607568Y00478602D01*
X00605579Y00478340D01*
X00603725Y00477572D01*
X00602133Y00476351D01*
X00600912Y00474759D01*
X00600144Y00472905D01*
X00599882Y00470916D01*
X00600144Y00468927D01*
X00600912Y00467073D01*
X00602133Y00465481D01*
X00603725Y00464260D01*
X00605579Y00463492D01*
X00607568Y00463230D01*
X00609557Y00463492D01*
X00611411Y00464260D01*
X00611632Y00464430D01*
X00611854Y00464442D01*
X00634205D01*
X00636442Y00464886D01*
X00637515Y00464200D01*
X00638654Y00463196D01*
X00638533Y00462280D01*
X00638795Y00460291D01*
X00639563Y00458437D01*
X00640784Y00456845D01*
X00642376Y00455624D01*
X00644230Y00454856D01*
X00646219Y00454594D01*
X00648208Y00454856D01*
X00650062Y00455624D01*
X00651653Y00456845D01*
X00652875Y00458437D01*
X00655437Y00459649D01*
X00655943Y00459582D01*
X00657215Y00459415D01*
X00657374Y00459380D01*
X00657622Y00459374D01*
X00657713Y00459365D01*
X00657778Y00459355D01*
X00657820Y00459344D01*
X00657835Y00459339D01*
X00658930Y00458244D01*
X00658931Y00458243D01*
X00660611Y00457121D01*
X00662593Y00456726D01*
X00721327D01*
X00721802Y00456184D01*
X00722064Y00454195D01*
X00722832Y00452341D01*
X00722827Y00452304D01*
X00721472Y00449941D01*
X00719228D01*
X00718607Y00449817D01*
X00717979Y00449734D01*
X00717867Y00449670D01*
X00717741Y00449645D01*
X00717215Y00449293D01*
X00716666Y00448977D01*
X00716588Y00448875D01*
X00716481Y00448803D01*
X00716129Y00448276D01*
X00715743Y00447774D01*
X00714491Y00445234D01*
X00714327Y00444622D01*
X00714124Y00444023D01*
X00714132Y00443895D01*
X00714099Y00443770D01*
X00714181Y00443143D01*
X00714223Y00442511D01*
X00714280Y00442395D01*
X00714296Y00442267D01*
X00714613Y00441719D01*
X00714893Y00441151D01*
X00714971Y00441050D01*
X00715347Y00440141D01*
X00715476Y00439166D01*
X00715347Y00438191D01*
X00714971Y00437282D01*
X00714372Y00436502D01*
X00713592Y00435903D01*
X00712683Y00435527D01*
X00711708Y00435398D01*
X00710733Y00435527D01*
X00709824Y00435903D01*
X00709044Y00436502D01*
X00708445Y00437282D01*
X00708069Y00438191D01*
X00707917Y00439345D01*
X00707909Y00439471D01*
X00707937Y00439616D01*
X00707880Y00439905D01*
X00707833Y00440618D01*
X00707833Y00440618D01*
X00707833Y00440619D01*
X00707674Y00440942D01*
X00707642Y00441103D01*
X00707460Y00441374D01*
X00707163Y00441977D01*
X00707163Y00441978D01*
X00707162Y00441978D01*
X00706908Y00442201D01*
X00706800Y00442363D01*
X00706478Y00442578D01*
X00706023Y00442977D01*
X00706023Y00442977D01*
X00706023Y00442977D01*
X00705734Y00443075D01*
X00705539Y00443205D01*
X00704158Y00443777D01*
X00703378Y00444376D01*
X00702779Y00445156D01*
X00702403Y00446065D01*
X00702337Y00446563D01*
X00702174Y00447044D01*
X00702075Y00447543D01*
X00701932Y00447756D01*
X00701850Y00447998D01*
X00701515Y00448380D01*
X00701233Y00448803D01*
X00701020Y00448945D01*
X00700851Y00449138D01*
X00700395Y00449363D01*
X00699972Y00449645D01*
X00699721Y00449695D01*
X00699491Y00449808D01*
X00698984Y00449841D01*
X00698486Y00449941D01*
X00676275D01*
X00676022Y00449890D01*
X00675764Y00449907D01*
X00675285Y00449744D01*
X00674789Y00449645D01*
X00674574Y00449501D01*
X00674330Y00449418D01*
X00673949Y00449084D01*
X00673528Y00448803D01*
X00673385Y00448588D01*
X00673191Y00448418D01*
X00672396Y00447379D01*
X00672170Y00446920D01*
X00671886Y00446493D01*
X00671270Y00444992D01*
X00671125Y00444253D01*
X00670978Y00443516D01*
X00670980Y00443510D01*
X00670978Y00443504D01*
X00671127Y00442770D01*
X00671274Y00442029D01*
X00671659Y00441100D01*
X00671788Y00440125D01*
X00671659Y00439150D01*
X00671283Y00438241D01*
X00670684Y00437461D01*
X00669904Y00436862D01*
X00668995Y00436486D01*
X00668020Y00436357D01*
X00667045Y00436486D01*
X00666136Y00436862D01*
X00665356Y00437461D01*
X00664757Y00438241D01*
X00664381Y00439150D01*
X00664252Y00440125D01*
X00664381Y00441100D01*
X00664766Y00442029D01*
X00664913Y00442770D01*
X00665061Y00443504D01*
X00665060Y00443510D01*
X00665061Y00443516D01*
X00664915Y00444253D01*
X00664770Y00444992D01*
X00664154Y00446493D01*
X00663870Y00446920D01*
X00663644Y00447379D01*
X00662849Y00448418D01*
X00662655Y00448588D01*
X00662512Y00448803D01*
X00662091Y00449084D01*
X00661710Y00449418D01*
X00661466Y00449501D01*
X00661251Y00449645D01*
X00660755Y00449744D01*
X00660275Y00449907D01*
X00660018Y00449890D01*
X00659765Y00449941D01*
X00559421D01*
X00558453Y00451449D01*
X00558074Y00452481D01*
X00558731Y00454067D01*
X00558993Y00456057D01*
X00558731Y00458046D01*
X00557963Y00459900D01*
X00556742Y00461491D01*
X00555150Y00462713D01*
X00553297Y00463481D01*
X00551307Y00463742D01*
X00549318Y00463481D01*
X00547464Y00462713D01*
X00545873Y00461491D01*
X00544651Y00459900D01*
X00543883Y00458046D01*
X00543621Y00456057D01*
X00543883Y00454067D01*
X00544541Y00452481D01*
X00544161Y00451449D01*
X00543194Y00449941D01*
X00524792D01*
X00523539Y00452481D01*
X00523894Y00452943D01*
X00524662Y00454797D01*
X00524924Y00456786D01*
X00524662Y00458775D01*
X00523894Y00460629D01*
X00522673Y00462220D01*
X00521729Y00462944D01*
X00520826Y00465940D01*
X00521146Y00466356D01*
X00522310Y00469168D01*
X00522467Y00470358D01*
X00525029D01*
X00525186Y00469168D01*
X00526350Y00466356D01*
X00528203Y00463941D01*
X00530618Y00462088D01*
X00533430Y00460924D01*
X00536448Y00460526D01*
X00539466Y00460924D01*
X00542278Y00462088D01*
X00544693Y00463941D01*
X00546546Y00466356D01*
X00547710Y00469168D01*
X00548108Y00472186D01*
X00547710Y00475204D01*
X00546546Y00478016D01*
X00545348Y00479576D01*
X00546466Y00482117D01*
X00586858D01*
X00588841Y00482511D01*
X00590521Y00483633D01*
X00600733Y00493846D01*
X00630583D01*
X00630690Y00493778D01*
D02*
G37*
G36*
X00478108Y00479254D02*
X00477868Y00478995D01*
X00477654Y00478721D01*
X00477466Y00478434D01*
X00477303Y00478132D01*
X00477165Y00477817D01*
X00477054Y00477488D01*
X00476968Y00477146D01*
X00476907Y00476789D01*
X00476873Y00476418D01*
X00476864Y00476034D01*
X00473092Y00479806D01*
X00473476Y00479815D01*
X00473847Y00479849D01*
X00474203Y00479910D01*
X00474546Y00479996D01*
X00474875Y00480107D01*
X00475190Y00480244D01*
X00475492Y00480407D01*
X00475779Y00480596D01*
X00476053Y00480811D01*
X00476312Y00481050D01*
X00478108Y00479254D01*
D02*
G37*
G36*
X00785467Y00477826D02*
X00786031Y00477348D01*
X00786301Y00477154D01*
X00786561Y00476990D01*
X00786813Y00476857D01*
X00787057Y00476753D01*
X00787292Y00476680D01*
X00787518Y00476637D01*
X00787736Y00476624D01*
X00783964Y00472852D01*
X00783951Y00473070D01*
X00783908Y00473296D01*
X00783835Y00473531D01*
X00783731Y00473774D01*
X00783598Y00474027D01*
X00783434Y00474287D01*
X00783240Y00474557D01*
X00783016Y00474835D01*
X00782477Y00475416D01*
X00785172Y00478111D01*
X00785467Y00477826D01*
D02*
G37*
G36*
X00610335Y00473559D02*
X00610425Y00473537D01*
X00610558Y00473518D01*
X00610952Y00473488D01*
X00612259Y00473457D01*
X00612694Y00473456D01*
Y00468376D01*
X00610289Y00468249D01*
Y00473583D01*
X00610335Y00473559D01*
D02*
G37*
G36*
X00724541Y00467369D02*
X00720187Y00466778D01*
X00719954Y00471858D01*
X00720387Y00471861D01*
X00721686Y00471943D01*
X00721903Y00471980D01*
X00722078Y00472024D01*
X00722209Y00472074D01*
X00722298Y00472132D01*
X00722344Y00472196D01*
X00724541Y00467369D01*
D02*
G37*
G36*
X00661245Y00466651D02*
X00661279Y00466280D01*
X00661339Y00465924D01*
X00661425Y00465581D01*
X00661537Y00465252D01*
X00661674Y00464937D01*
X00661837Y00464636D01*
X00662026Y00464348D01*
X00662240Y00464075D01*
X00662480Y00463815D01*
X00660684Y00462019D01*
X00660424Y00462259D01*
X00660151Y00462473D01*
X00659864Y00462662D01*
X00659562Y00462825D01*
X00659247Y00462962D01*
X00658918Y00463074D01*
X00658575Y00463159D01*
X00658219Y00463220D01*
X00657848Y00463254D01*
X00657464Y00463263D01*
X00661236Y00467035D01*
X00661245Y00466651D01*
D02*
G37*
G36*
X00881199Y00408928D02*
X00881153Y00408952D01*
X00881063Y00408974D01*
X00880930Y00408993D01*
X00880536Y00409023D01*
X00879229Y00409054D01*
X00878794Y00409055D01*
Y00414135D01*
X00881199Y00414262D01*
Y00408928D01*
D02*
G37*
G36*
X00711644Y00407891D02*
X00711681Y00407786D01*
X00711752Y00407657D01*
X00711856Y00407501D01*
X00711994Y00407321D01*
X00712369Y00406883D01*
X00713181Y00406035D01*
X00708679Y00403352D01*
X00707256Y00404930D01*
X00711640Y00407970D01*
X00711644Y00407891D01*
D02*
G37*
%LPC*%
G36*
X00690118Y00893598D02*
X00688129Y00893336D01*
X00686275Y00892568D01*
X00684683Y00891347D01*
X00683462Y00889755D01*
X00682694Y00887901D01*
X00682432Y00885912D01*
X00682694Y00883923D01*
X00683462Y00882069D01*
X00684683Y00880478D01*
X00686275Y00879256D01*
X00688129Y00878488D01*
X00690118Y00878226D01*
X00692107Y00878488D01*
X00693961Y00879256D01*
X00695553Y00880478D01*
X00696774Y00882069D01*
X00697542Y00883923D01*
X00697804Y00885912D01*
X00697542Y00887901D01*
X00696774Y00889755D01*
X00695553Y00891347D01*
X00693961Y00892568D01*
X00692107Y00893336D01*
X00690118Y00893598D01*
D02*
G37*
G36*
X00698811Y00826582D02*
X00696822Y00826320D01*
X00694969Y00825552D01*
X00693377Y00824331D01*
X00692156Y00822739D01*
X00691388Y00820885D01*
X00691126Y00818896D01*
X00691388Y00816907D01*
X00692156Y00815053D01*
X00693377Y00813461D01*
X00694969Y00812240D01*
X00696822Y00811472D01*
X00698811Y00811210D01*
X00700801Y00811472D01*
X00702654Y00812240D01*
X00704246Y00813461D01*
X00705468Y00815053D01*
X00706235Y00816907D01*
X00706497Y00818896D01*
X00706235Y00820885D01*
X00705468Y00822739D01*
X00704246Y00824331D01*
X00702654Y00825552D01*
X00700801Y00826320D01*
X00698811Y00826582D01*
D02*
G37*
G36*
X00814578Y00803776D02*
X00810931Y00803296D01*
X00807533Y00801889D01*
X00804614Y00799650D01*
X00802375Y00796731D01*
X00800968Y00793333D01*
X00800488Y00789686D01*
X00800968Y00786039D01*
X00802375Y00782641D01*
X00804614Y00779723D01*
X00807533Y00777483D01*
X00810931Y00776076D01*
X00814578Y00775595D01*
X00818225Y00776076D01*
X00821623Y00777483D01*
X00824541Y00779723D01*
X00826781Y00782641D01*
X00828188Y00786039D01*
X00828669Y00789686D01*
X00828188Y00793333D01*
X00826781Y00796731D01*
X00824541Y00799650D01*
X00821623Y00801889D01*
X00818225Y00803296D01*
X00814578Y00803776D01*
D02*
G37*
G36*
X00697526D02*
X00693879Y00803296D01*
X00690481Y00801889D01*
X00687562Y00799650D01*
X00685323Y00796731D01*
X00683916Y00793333D01*
X00683435Y00789686D01*
X00683916Y00786039D01*
X00685323Y00782641D01*
X00687562Y00779723D01*
X00690481Y00777483D01*
X00693879Y00776076D01*
X00697526Y00775595D01*
X00701173Y00776076D01*
X00704571Y00777483D01*
X00707489Y00779723D01*
X00709729Y00782641D01*
X00711136Y00786039D01*
X00711617Y00789686D01*
X00711136Y00793333D01*
X00709729Y00796731D01*
X00707489Y00799650D01*
X00704571Y00801889D01*
X00701173Y00803296D01*
X00697526Y00803776D01*
D02*
G37*
G36*
X00578298D02*
X00574651Y00803296D01*
X00571253Y00801889D01*
X00568335Y00799650D01*
X00566095Y00796731D01*
X00564688Y00793333D01*
X00564207Y00789686D01*
X00564688Y00786039D01*
X00566095Y00782641D01*
X00568335Y00779723D01*
X00571253Y00777483D01*
X00574651Y00776076D01*
X00578298Y00775595D01*
X00581945Y00776076D01*
X00585343Y00777483D01*
X00588261Y00779723D01*
X00590501Y00782641D01*
X00591908Y00786039D01*
X00592389Y00789686D01*
X00591908Y00793333D01*
X00590501Y00796731D01*
X00588261Y00799650D01*
X00585343Y00801889D01*
X00581945Y00803296D01*
X00578298Y00803776D01*
D02*
G37*
G36*
X00803148Y00740406D02*
X00801159Y00740144D01*
X00799305Y00739376D01*
X00797713Y00738155D01*
X00796492Y00736563D01*
X00795724Y00734709D01*
X00795462Y00732720D01*
X00795724Y00730731D01*
X00796492Y00728877D01*
X00797713Y00727285D01*
X00799305Y00726064D01*
X00801159Y00725296D01*
X00803148Y00725034D01*
X00805137Y00725296D01*
X00806991Y00726064D01*
X00808583Y00727285D01*
X00809804Y00728877D01*
X00810572Y00730731D01*
X00810834Y00732720D01*
X00810572Y00734709D01*
X00809804Y00736563D01*
X00808583Y00738155D01*
X00806991Y00739376D01*
X00805137Y00740144D01*
X00803148Y00740406D01*
D02*
G37*
G36*
X00687578D02*
X00685589Y00740144D01*
X00683735Y00739376D01*
X00682143Y00738155D01*
X00680922Y00736563D01*
X00680154Y00734709D01*
X00679892Y00732720D01*
X00680154Y00730731D01*
X00680922Y00728877D01*
X00682143Y00727285D01*
X00683735Y00726064D01*
X00685589Y00725296D01*
X00687578Y00725034D01*
X00689567Y00725296D01*
X00691421Y00726064D01*
X00693013Y00727285D01*
X00694234Y00728877D01*
X00695002Y00730731D01*
X00695264Y00732720D01*
X00695002Y00734709D01*
X00694234Y00736563D01*
X00693013Y00738155D01*
X00691421Y00739376D01*
X00689567Y00740144D01*
X00687578Y00740406D01*
D02*
G37*
G36*
X00672338Y00910336D02*
X00616458D01*
Y00888322D01*
X00615155Y00887782D01*
X00613563Y00886561D01*
X00612342Y00884969D01*
X00611574Y00883115D01*
X00611312Y00881126D01*
X00611574Y00879137D01*
X00612342Y00877283D01*
X00613563Y00875691D01*
X00615155Y00874470D01*
X00616458Y00873930D01*
Y00870071D01*
X00616383Y00869696D01*
Y00776986D01*
X00616383Y00719836D01*
X00616383Y00690626D01*
X00616458Y00690251D01*
Y00686816D01*
X00619893D01*
X00620268Y00686741D01*
X00669829D01*
X00671068Y00686741D01*
X00672338Y00686816D01*
Y00686994D01*
X00672555Y00687037D01*
X00673815Y00687879D01*
X00674657Y00689139D01*
X00674953Y00690626D01*
Y00874776D01*
X00674657Y00876263D01*
X00673815Y00877523D01*
X00672555Y00878365D01*
X00672338Y00878408D01*
Y00910336D01*
D02*
G37*
G36*
X00789178D02*
X00735838D01*
Y00870627D01*
X00735043Y00869438D01*
X00734747Y00867951D01*
Y00775241D01*
X00734747Y00718091D01*
X00734747Y00688881D01*
X00735043Y00687394D01*
X00735885Y00686134D01*
X00737145Y00685292D01*
X00738632Y00684996D01*
X00787908D01*
X00789395Y00685292D01*
X00790655Y00686134D01*
X00791497Y00687394D01*
X00791793Y00688881D01*
Y00873031D01*
X00791497Y00874518D01*
X00790655Y00875778D01*
X00789395Y00876620D01*
X00789178Y00876663D01*
Y00910336D01*
D02*
G37*
%LPD*%
G36*
X00671068Y00690626D02*
X00620268D01*
X00620268Y00719836D01*
X00620268Y00776986D01*
Y00869696D01*
X00625348Y00874776D01*
X00671068D01*
Y00690626D01*
D02*
G37*
G36*
X00787908Y00688881D02*
X00738632D01*
X00738632Y00718091D01*
X00738632Y00775241D01*
Y00867951D01*
X00743712Y00873031D01*
X00787908D01*
Y00688881D01*
D02*
G37*
%LPC*%
G36*
X00540258Y00768162D02*
X00538269Y00767900D01*
X00536415Y00767132D01*
X00534823Y00765911D01*
X00533602Y00764319D01*
X00532834Y00762465D01*
X00532572Y00760476D01*
X00532834Y00758487D01*
X00533602Y00756633D01*
X00534823Y00755041D01*
X00536415Y00753820D01*
X00538269Y00753052D01*
X00540258Y00752790D01*
X00542247Y00753052D01*
X00544101Y00753820D01*
X00545693Y00755041D01*
X00546914Y00756633D01*
X00547682Y00758487D01*
X00547944Y00760476D01*
X00547682Y00762465D01*
X00546914Y00764319D01*
X00545693Y00765911D01*
X00544101Y00767132D01*
X00542247Y00767900D01*
X00540258Y00768162D01*
D02*
G37*
G36*
X00954110Y00746365D02*
X00952121Y00746103D01*
X00950267Y00745335D01*
X00948676Y00744114D01*
X00947454Y00742522D01*
X00946686Y00740668D01*
X00946425Y00738679D01*
X00946686Y00736690D01*
X00947454Y00734836D01*
X00948676Y00733244D01*
X00950267Y00732023D01*
X00952121Y00731255D01*
X00954110Y00730993D01*
X00956100Y00731255D01*
X00957953Y00732023D01*
X00959545Y00733244D01*
X00960767Y00734836D01*
X00961534Y00736690D01*
X00961796Y00738679D01*
X00961534Y00740668D01*
X00960767Y00742522D01*
X00959545Y00744114D01*
X00957953Y00745335D01*
X00956100Y00746103D01*
X00954110Y00746365D01*
D02*
G37*
G36*
X00812178Y00627874D02*
X00810189Y00627612D01*
X00808335Y00626844D01*
X00806743Y00625623D01*
X00805522Y00624031D01*
X00804754Y00622177D01*
X00804492Y00620188D01*
X00804754Y00618199D01*
X00804336Y00615580D01*
X00801417Y00613341D01*
X00799178Y00610423D01*
X00797770Y00607024D01*
X00797290Y00603377D01*
X00797770Y00599730D01*
X00799178Y00596332D01*
X00801417Y00593414D01*
X00804336Y00591175D01*
X00807734Y00589767D01*
X00811381Y00589287D01*
X00815028Y00589767D01*
X00818426Y00591175D01*
X00821345Y00593414D01*
X00823584Y00596332D01*
X00824991Y00599730D01*
X00825471Y00603377D01*
X00824991Y00607024D01*
X00823584Y00610423D01*
X00821345Y00613341D01*
X00820329Y00614120D01*
X00818834Y00616345D01*
X00819602Y00618199D01*
X00819864Y00620188D01*
X00819602Y00622177D01*
X00818834Y00624031D01*
X00817613Y00625623D01*
X00816021Y00626844D01*
X00814167Y00627612D01*
X00812178Y00627874D01*
D02*
G37*
G36*
X00749300Y00584689D02*
X00747311Y00584427D01*
X00745457Y00583659D01*
X00743865Y00582438D01*
X00742644Y00580846D01*
X00741876Y00578992D01*
X00741614Y00577003D01*
X00741876Y00575014D01*
X00742644Y00573160D01*
X00743865Y00571568D01*
X00745457Y00570347D01*
X00747311Y00569579D01*
X00749300Y00569317D01*
X00751289Y00569579D01*
X00753143Y00570347D01*
X00754735Y00571568D01*
X00755956Y00573160D01*
X00756724Y00575014D01*
X00756986Y00577003D01*
X00756724Y00578992D01*
X00755956Y00580846D01*
X00754735Y00582438D01*
X00753143Y00583659D01*
X00751289Y00584427D01*
X00749300Y00584689D01*
D02*
G37*
G36*
X00908558Y00589092D02*
X00906569Y00588830D01*
X00904715Y00588062D01*
X00903123Y00586841D01*
X00901902Y00585249D01*
X00901134Y00583395D01*
X00900872Y00581406D01*
X00901134Y00579417D01*
X00901902Y00577563D01*
X00903123Y00575971D01*
X00902461Y00573278D01*
X00901435Y00571941D01*
X00900028Y00568543D01*
X00899548Y00564896D01*
X00900028Y00561249D01*
X00901435Y00557851D01*
X00903674Y00554933D01*
X00906593Y00552693D01*
X00909991Y00551286D01*
X00913638Y00550806D01*
X00917285Y00551286D01*
X00920683Y00552693D01*
X00923602Y00554933D01*
X00925841Y00557851D01*
X00927248Y00561249D01*
X00927729Y00564896D01*
X00927248Y00568543D01*
X00925841Y00571941D01*
X00923602Y00574860D01*
X00920683Y00577099D01*
X00918197Y00578128D01*
X00915982Y00579417D01*
X00916244Y00581406D01*
X00915982Y00583395D01*
X00915214Y00585249D01*
X00913993Y00586841D01*
X00912401Y00588062D01*
X00910547Y00588830D01*
X00908558Y00589092D01*
D02*
G37*
G36*
X01062668Y00569955D02*
X01054168D01*
X01052064Y00569678D01*
X01050103Y00568866D01*
X01048419Y00567575D01*
X01047128Y00565891D01*
X01046316Y00563930D01*
X01046039Y00561826D01*
Y00553326D01*
X01046316Y00551222D01*
X01047128Y00549261D01*
X01048419Y00547578D01*
X01050103Y00546286D01*
X01052064Y00545474D01*
X01054168Y00545196D01*
X01062668D01*
X01064772Y00545474D01*
X01066733Y00546286D01*
X01068417Y00547578D01*
X01069708Y00549261D01*
X01070520Y00551222D01*
X01070798Y00553326D01*
Y00561826D01*
X01070520Y00563930D01*
X01069708Y00565891D01*
X01068417Y00567575D01*
X01066733Y00568866D01*
X01064772Y00569678D01*
X01062668Y00569955D01*
D02*
G37*
G36*
X00665988Y00557342D02*
X00663999Y00557080D01*
X00662145Y00556312D01*
X00660553Y00555091D01*
X00659332Y00553499D01*
X00658564Y00551645D01*
X00658302Y00549656D01*
X00655936Y00548173D01*
X00655109Y00548064D01*
X00653255Y00547296D01*
X00651663Y00546075D01*
X00650442Y00544483D01*
X00649674Y00542630D01*
X00649412Y00540640D01*
X00649674Y00538651D01*
X00650442Y00536798D01*
X00651663Y00535206D01*
X00653255Y00533984D01*
X00655109Y00533217D01*
X00657098Y00532955D01*
X00659087Y00533217D01*
X00660941Y00533984D01*
X00662533Y00535206D01*
X00663754Y00536798D01*
X00664522Y00538651D01*
X00664784Y00540640D01*
X00664769Y00540751D01*
X00665988Y00541970D01*
X00667977Y00542232D01*
X00669831Y00543000D01*
X00671423Y00544221D01*
X00672644Y00545813D01*
X00673412Y00547667D01*
X00673674Y00549656D01*
X00673412Y00551645D01*
X00672644Y00553499D01*
X00671423Y00555091D01*
X00669831Y00556312D01*
X00667977Y00557080D01*
X00665988Y00557342D01*
D02*
G37*
G36*
X01033018Y00493896D02*
X01029371Y00493416D01*
X01025973Y00492009D01*
X01023055Y00489770D01*
X01020815Y00486851D01*
X01019408Y00483453D01*
X01018928Y00479806D01*
X01019408Y00476159D01*
X01020815Y00472761D01*
X01023055Y00469842D01*
X01025973Y00467603D01*
X01029371Y00466196D01*
X01033018Y00465715D01*
X01036665Y00466196D01*
X01040063Y00467603D01*
X01042981Y00469842D01*
X01045221Y00472761D01*
X01046628Y00476159D01*
X01047109Y00479806D01*
X01046628Y00483453D01*
X01045221Y00486851D01*
X01042981Y00489770D01*
X01040063Y00492009D01*
X01036665Y00493416D01*
X01033018Y00493896D01*
D02*
G37*
G36*
X00336366Y00727522D02*
X00334377Y00727260D01*
X00332523Y00726492D01*
X00330932Y00725271D01*
X00329710Y00723679D01*
X00328942Y00721825D01*
X00328680Y00719836D01*
X00328942Y00717847D01*
X00329710Y00715993D01*
X00330932Y00714401D01*
X00332523Y00713180D01*
X00334377Y00712412D01*
X00336366Y00712150D01*
X00338355Y00712412D01*
X00340209Y00713180D01*
X00341801Y00714401D01*
X00343022Y00715993D01*
X00343790Y00717847D01*
X00344052Y00719836D01*
X00343790Y00721825D01*
X00343022Y00723679D01*
X00341801Y00725271D01*
X00340209Y00726492D01*
X00338355Y00727260D01*
X00336366Y00727522D01*
D02*
G37*
G36*
X00404368Y00686667D02*
X00402379Y00686405D01*
X00400525Y00685637D01*
X00400304Y00685467D01*
X00400082Y00685456D01*
X00362197D01*
X00361079Y00685678D01*
X00358601Y00685185D01*
X00356501Y00683782D01*
X00343635Y00670916D01*
X00342232Y00668816D01*
X00341739Y00666338D01*
Y00643333D01*
X00295176Y00596770D01*
X00254508D01*
X00252030Y00596278D01*
X00249930Y00594874D01*
X00232512Y00577456D01*
X00231788Y00576372D01*
X00231655Y00576271D01*
X00230434Y00574679D01*
X00229666Y00572825D01*
X00229404Y00570836D01*
X00229666Y00568847D01*
X00230254Y00567429D01*
Y00469158D01*
X00230746Y00466680D01*
X00232150Y00464580D01*
X00240207Y00456523D01*
X00240246Y00456227D01*
X00241014Y00454373D01*
X00242235Y00452781D01*
X00243827Y00451560D01*
X00244671Y00451211D01*
X00245739Y00449305D01*
X00245781Y00448217D01*
X00245254Y00446945D01*
X00244992Y00444956D01*
X00245254Y00442967D01*
X00246022Y00441113D01*
X00247243Y00439521D01*
X00248835Y00438300D01*
X00250689Y00437532D01*
X00252678Y00437270D01*
X00254667Y00437532D01*
X00256521Y00438300D01*
X00258113Y00439521D01*
X00259334Y00441113D01*
X00260102Y00442967D01*
X00260364Y00444956D01*
X00260102Y00446945D01*
X00259334Y00448799D01*
X00258113Y00450391D01*
X00256521Y00451612D01*
X00255677Y00451962D01*
X00254996Y00453177D01*
X00254590Y00454381D01*
X00254567Y00454955D01*
X00255094Y00456227D01*
X00255356Y00458216D01*
X00255094Y00460205D01*
X00254326Y00462059D01*
X00253105Y00463651D01*
X00251513Y00464872D01*
X00249659Y00465640D01*
X00249382Y00465676D01*
X00249217Y00465825D01*
X00243202Y00471840D01*
Y00566285D01*
X00243746Y00566993D01*
X00244514Y00568847D01*
X00244776Y00570836D01*
X00244709Y00571341D01*
X00257190Y00583822D01*
X00297858D01*
X00300336Y00584314D01*
X00302436Y00585718D01*
X00352792Y00636073D01*
X00354195Y00638174D01*
X00354688Y00640652D01*
Y00663656D01*
X00363538Y00672507D01*
X00400288D01*
X00400525Y00672325D01*
X00402379Y00671557D01*
X00404368Y00671295D01*
X00406357Y00671557D01*
X00408211Y00672325D01*
X00409803Y00673547D01*
X00411024Y00675138D01*
X00411792Y00676992D01*
X00412054Y00678981D01*
X00411792Y00680971D01*
X00411024Y00682824D01*
X00409803Y00684416D01*
X00408211Y00685637D01*
X00406357Y00686405D01*
X00404368Y00686667D01*
D02*
G37*
G36*
X00398018Y00629732D02*
X00396029Y00629470D01*
X00394175Y00628702D01*
X00392583Y00627481D01*
X00391362Y00625889D01*
X00390594Y00624035D01*
X00390332Y00622046D01*
X00390594Y00620057D01*
X00391362Y00618203D01*
X00392186Y00617129D01*
X00392191Y00617069D01*
Y00612233D01*
X00392635Y00610004D01*
X00393898Y00608113D01*
X00421849Y00580162D01*
X00421865Y00580140D01*
X00422042Y00578797D01*
X00422809Y00576943D01*
X00424031Y00575351D01*
X00425622Y00574130D01*
X00427476Y00573362D01*
X00429465Y00573100D01*
X00431455Y00573362D01*
X00433308Y00574130D01*
X00434900Y00575351D01*
X00436121Y00576943D01*
X00436889Y00578797D01*
X00437151Y00580786D01*
X00436889Y00582775D01*
X00436121Y00584629D01*
X00434900Y00586221D01*
X00433308Y00587442D01*
X00431455Y00588210D01*
X00430112Y00588387D01*
X00430066Y00588425D01*
X00403845Y00614647D01*
Y00617102D01*
X00403849Y00617128D01*
X00404674Y00618203D01*
X00405442Y00620057D01*
X00405704Y00622046D01*
X00405442Y00624035D01*
X00404674Y00625889D01*
X00403453Y00627481D01*
X00401861Y00628702D01*
X00400007Y00629470D01*
X00398018Y00629732D01*
D02*
G37*
G36*
X00306270Y00567502D02*
X00304281Y00567240D01*
X00302427Y00566472D01*
X00300835Y00565251D01*
X00299614Y00563659D01*
X00298846Y00561805D01*
X00298584Y00559816D01*
X00298846Y00557827D01*
X00299614Y00555973D01*
X00300835Y00554381D01*
X00302427Y00553160D01*
X00304281Y00552392D01*
X00306270Y00552130D01*
X00308259Y00552392D01*
X00310113Y00553160D01*
X00311705Y00554381D01*
X00312926Y00555973D01*
X00313694Y00557827D01*
X00313956Y00559816D01*
X00313694Y00561805D01*
X00312926Y00563659D01*
X00311705Y00565251D01*
X00310113Y00566472D01*
X00308259Y00567240D01*
X00306270Y00567502D01*
D02*
G37*
G36*
X00359918Y00526260D02*
X00356770Y00525846D01*
X00353836Y00524630D01*
X00351317Y00522697D01*
X00349384Y00520178D01*
X00349055Y00519385D01*
X00346448Y00519728D01*
X00346374Y00520292D01*
X00345574Y00522223D01*
X00344302Y00523880D01*
X00342645Y00525152D01*
X00340714Y00525952D01*
X00338643Y00526225D01*
X00330393D01*
X00328322Y00525952D01*
X00326391Y00525152D01*
X00324734Y00523880D01*
X00323462Y00522223D01*
X00322662Y00520292D01*
X00322389Y00518221D01*
Y00509971D01*
X00322662Y00507900D01*
X00323462Y00505969D01*
X00324734Y00504312D01*
X00326391Y00503040D01*
X00328322Y00502240D01*
X00330393Y00501968D01*
X00338643D01*
X00340714Y00502240D01*
X00342645Y00503040D01*
X00344302Y00504312D01*
X00345574Y00505969D01*
X00346374Y00507900D01*
X00346448Y00508464D01*
X00349055Y00508807D01*
X00349384Y00508014D01*
X00351317Y00505495D01*
X00353836Y00503562D01*
X00356770Y00502346D01*
X00359918Y00501932D01*
X00363066Y00502346D01*
X00366000Y00503562D01*
X00368519Y00505495D01*
X00370452Y00508014D01*
X00371668Y00510948D01*
X00372082Y00514096D01*
X00371668Y00517244D01*
X00370452Y00520178D01*
X00368519Y00522697D01*
X00366000Y00524630D01*
X00363066Y00525846D01*
X00359918Y00526260D01*
D02*
G37*
G36*
X00414219Y00492430D02*
X00410572Y00491950D01*
X00407174Y00490543D01*
X00404256Y00488303D01*
X00402017Y00485385D01*
X00400609Y00481987D01*
X00400129Y00478340D01*
X00400609Y00474693D01*
X00402017Y00471295D01*
X00404256Y00468376D01*
X00407174Y00466137D01*
X00410572Y00464729D01*
X00414219Y00464249D01*
X00417866Y00464729D01*
X00421265Y00466137D01*
X00424183Y00468376D01*
X00426422Y00471295D01*
X00427830Y00474693D01*
X00428310Y00478340D01*
X00427830Y00481987D01*
X00426422Y00485385D01*
X00424183Y00488303D01*
X00421265Y00490543D01*
X00417866Y00491950D01*
X00414219Y00492430D01*
D02*
G37*
%LPD*%
G36*
X00401647Y00676314D02*
X00401601Y00676338D01*
X00401511Y00676360D01*
X00401378Y00676379D01*
X00400984Y00676410D01*
X00399677Y00676440D01*
X00399242Y00676441D01*
Y00681521D01*
X00401647Y00681648D01*
Y00676314D01*
D02*
G37*
G36*
X00242062Y00574258D02*
X00241758Y00573950D01*
X00240895Y00572970D01*
X00240766Y00572789D01*
X00240673Y00572632D01*
X00240614Y00572501D01*
X00240590Y00572396D01*
X00240601Y00572315D01*
X00235681Y00574376D01*
X00238382Y00577763D01*
X00242062Y00574258D01*
D02*
G37*
G36*
X00239486Y00567874D02*
X00239445Y00567818D01*
X00239408Y00567719D01*
X00239375Y00567579D01*
X00239347Y00567397D01*
X00239303Y00566907D01*
X00239270Y00565858D01*
X00239268Y00565424D01*
X00234188Y00566081D01*
X00234177Y00568381D01*
X00239486Y00567874D01*
D02*
G37*
G36*
X00247632Y00462026D02*
X00243860Y00458254D01*
X00243844Y00458304D01*
X00243796Y00458383D01*
X00243716Y00458490D01*
X00243458Y00458791D01*
X00242556Y00459736D01*
X00242250Y00460044D01*
X00245842Y00463637D01*
X00247632Y00462026D01*
D02*
G37*
G36*
X00400540Y00619162D02*
X00400411Y00618971D01*
X00400296Y00618754D01*
X00400197Y00618508D01*
X00400113Y00618236D01*
X00400045Y00617935D01*
X00399992Y00617608D01*
X00399953Y00617253D01*
X00399923Y00616460D01*
X00396113D01*
X00396105Y00616870D01*
X00396044Y00617608D01*
X00395991Y00617935D01*
X00395923Y00618236D01*
X00395839Y00618508D01*
X00395740Y00618754D01*
X00395625Y00618971D01*
X00395496Y00619162D01*
X00395351Y00619325D01*
X00400685D01*
X00400540Y00619162D01*
D02*
G37*
G36*
X00427158Y00585798D02*
X00427723Y00585320D01*
X00427992Y00585126D01*
X00428253Y00584962D01*
X00428505Y00584829D01*
X00428748Y00584725D01*
X00428983Y00584652D01*
X00429210Y00584609D01*
X00429427Y00584596D01*
X00425656Y00580824D01*
X00425643Y00581042D01*
X00425600Y00581268D01*
X00425526Y00581503D01*
X00425423Y00581747D01*
X00425289Y00581999D01*
X00425125Y00582259D01*
X00424931Y00582529D01*
X00424707Y00582807D01*
X00424169Y00583388D01*
X00426863Y00586083D01*
X00427158Y00585798D01*
D02*
G37*
G54D15*
X00885317Y00171450D02*
Y00186685D01*
X00895474Y00171450D01*
Y00186685D01*
X00900552Y00171450D02*
X00910709Y00181607D01*
X00915787Y00171450D02*
Y00181607D01*
X00920865Y00186685D01*
X00925944Y00181607D01*
Y00171450D01*
Y00179067D01*
X00915787D01*
X00746760Y00186685D02*
X00756917D01*
X00751838D01*
Y00171450D01*
X00761995Y00186685D02*
X00767073D01*
X00764534D01*
Y00171450D01*
X00761995D01*
X00767073D01*
X00774691Y00186685D02*
Y00171450D01*
X00782309D01*
X00784848Y00173989D01*
Y00184146D01*
X00782309Y00186685D01*
X00774691D01*
X00807700Y00171450D02*
Y00186685D01*
X00812779D02*
Y00171450D01*
X00805161Y00181607D02*
X00812779D01*
X00815318D01*
X00805161Y00176528D02*
X00815318D01*
X00820396Y00181607D02*
X00822935D01*
Y00179067D01*
X00820396D01*
Y00181607D01*
Y00173989D02*
X00822935D01*
Y00171450D01*
X00820396D01*
Y00173989D01*
X01474470Y00134530D02*
X01484627D01*
X01479548D01*
Y00119295D01*
X01499862Y00134530D02*
X01489705D01*
Y00119295D01*
X01499862D01*
X01489705Y00126912D02*
X01494783D01*
X01504940Y00134530D02*
X01515097Y00119295D01*
Y00134530D02*
X01504940Y00119295D01*
X01520175D02*
Y00129452D01*
X01525254Y00134530D01*
X01530332Y00129452D01*
Y00119295D01*
Y00126912D01*
X01520175D01*
X01545567Y00131991D02*
X01543028Y00134530D01*
X01537950D01*
X01535410Y00131991D01*
Y00129452D01*
X01537950Y00126912D01*
X01543028D01*
X01545567Y00124373D01*
Y00121834D01*
X01543028Y00119295D01*
X01537950D01*
X01535410Y00121834D01*
X01565880Y00134530D02*
X01570959D01*
X01568420D01*
Y00119295D01*
X01565880D01*
X01570959D01*
X01578576D02*
Y00134530D01*
X01588733Y00119295D01*
Y00134530D01*
X01603968Y00131991D02*
X01601429Y00134530D01*
X01596351D01*
X01593811Y00131991D01*
Y00129452D01*
X01596351Y00126912D01*
X01601429D01*
X01603968Y00124373D01*
Y00121834D01*
X01601429Y00119295D01*
X01596351D01*
X01593811Y00121834D01*
X01609046Y00134530D02*
X01619203D01*
X01614125D01*
Y00119295D01*
X01624281D02*
Y00134530D01*
X01631899D01*
X01634438Y00131991D01*
Y00126912D01*
X01631899Y00124373D01*
X01624281D01*
X01629360D02*
X01634438Y00119295D01*
X01639517Y00134530D02*
Y00121834D01*
X01642056Y00119295D01*
X01647134D01*
X01649673Y00121834D01*
Y00134530D01*
X01654752Y00119295D02*
Y00134530D01*
X01659830Y00129452D01*
X01664908Y00134530D01*
Y00119295D01*
X01680143Y00134530D02*
X01669987D01*
Y00119295D01*
X01680143D01*
X01669987Y00126912D02*
X01675065D01*
X01685222Y00119295D02*
Y00134530D01*
X01695379Y00119295D01*
Y00134530D01*
X01700457D02*
X01710614D01*
X01705535D01*
Y00119295D01*
X01725849Y00131991D02*
X01723309Y00134530D01*
X01718231D01*
X01715692Y00131991D01*
Y00129452D01*
X01718231Y00126912D01*
X01723309D01*
X01725849Y00124373D01*
Y00121834D01*
X01723309Y00119295D01*
X01718231D01*
X01715692Y00121834D01*
X01153287Y00131991D02*
X01155826Y00134530D01*
X01160904D01*
X01163444Y00131991D01*
Y00129452D01*
X01160904Y00126912D01*
X01158365D01*
X01160904D01*
X01163444Y00124373D01*
Y00121834D01*
X01160904Y00119295D01*
X01155826D01*
X01153287Y00121834D01*
X01168522Y00129452D02*
X01171061D01*
Y00126912D01*
X01168522D01*
Y00129452D01*
Y00121834D02*
X01171061D01*
Y00119295D01*
X01168522D01*
Y00121834D01*
X01191375Y00134530D02*
X01181218D01*
Y00126912D01*
X01186296Y00129452D01*
X01188836D01*
X01191375Y00126912D01*
Y00121834D01*
X01188836Y00119295D01*
X01183757D01*
X01181218Y00121834D01*
X01196453D02*
X01198992Y00119295D01*
X01204071D01*
X01206610Y00121834D01*
Y00131991D01*
X01204071Y00134530D01*
X01198992D01*
X01196453Y00131991D01*
Y00129452D01*
X01198992Y00126912D01*
X01206610D01*
X01211688Y00129452D02*
X01214227D01*
Y00126912D01*
X01211688D01*
Y00129452D01*
Y00121834D02*
X01214227D01*
Y00119295D01*
X01211688D01*
Y00121834D01*
X01232001Y00119295D02*
Y00134530D01*
X01224384Y00126912D01*
X01234541D01*
X01249776Y00134530D02*
X01239619D01*
Y00126912D01*
X01244697Y00129452D01*
X01247237D01*
X01249776Y00126912D01*
Y00121834D01*
X01247237Y00119295D01*
X01242158D01*
X01239619Y00121834D01*
X01270089Y00119295D02*
Y00134530D01*
X01277707D01*
X01280246Y00131991D01*
Y00126912D01*
X01277707Y00124373D01*
X01270089D01*
X01285324Y00119295D02*
Y00134530D01*
X01290403Y00129452D01*
X01295481Y00134530D01*
Y00119295D01*
X00117729D02*
Y00134530D01*
X00125346D01*
X00127886Y00131991D01*
Y00126912D01*
X00125346Y00124373D01*
X00117729D01*
X00132964Y00134530D02*
Y00119295D01*
X00143121D01*
X00155817Y00134530D02*
X00150738D01*
X00148199Y00131991D01*
Y00121834D01*
X00150738Y00119295D01*
X00155817D01*
X00158356Y00121834D01*
Y00131991D01*
X00155817Y00134530D01*
X00163434D02*
X00173591D01*
X00168513D01*
Y00119295D01*
X00193904D02*
Y00134530D01*
X00204061Y00119295D01*
Y00134530D01*
X00209139Y00119295D02*
Y00129452D01*
X00214218Y00134530D01*
X00219296Y00129452D01*
Y00119295D01*
Y00126912D01*
X00209139D01*
X00224375Y00119295D02*
Y00134530D01*
X00229453Y00129452D01*
X00234531Y00134530D01*
Y00119295D01*
X00249766Y00134530D02*
X00239610D01*
Y00119295D01*
X00249766D01*
X00239610Y00126912D02*
X00244688D01*
X00270080Y00124373D02*
X00280236D01*
X00270080Y00129452D02*
X00280236D01*
X00117729Y00186814D02*
Y00171579D01*
X00127886D01*
X00132964D02*
Y00181735D01*
X00138042Y00186814D01*
X00143121Y00181735D01*
Y00171579D01*
Y00179196D01*
X00132964D01*
X00148199Y00186814D02*
Y00184275D01*
X00153278Y00179196D01*
X00158356Y00184275D01*
Y00186814D01*
X00153278Y00179196D02*
Y00171579D01*
X00173591Y00186814D02*
X00163434D01*
Y00171579D01*
X00173591D01*
X00163434Y00179196D02*
X00168513D01*
X00178669Y00171579D02*
Y00186814D01*
X00186287D01*
X00188826Y00184275D01*
Y00179196D01*
X00186287Y00176657D01*
X00178669D01*
X00183748D02*
X00188826Y00171579D01*
X00209139D02*
Y00186814D01*
X00219296Y00171579D01*
Y00186814D01*
X00224375Y00171579D02*
Y00181735D01*
X00229453Y00186814D01*
X00234531Y00181735D01*
Y00171579D01*
Y00179196D01*
X00224375D01*
X00239610Y00171579D02*
Y00186814D01*
X00244688Y00181735D01*
X00249766Y00186814D01*
Y00171579D01*
X00265001Y00186814D02*
X00254845D01*
Y00171579D01*
X00265001D01*
X00254845Y00179196D02*
X00259923D01*
X00285315Y00176657D02*
X00295471D01*
X00285315Y00181735D02*
X00295471D01*
X00746760Y00238332D02*
Y00223097D01*
X00754378D01*
X00756917Y00225636D01*
Y00228175D01*
X00754378Y00230714D01*
X00746760D01*
X00754378D01*
X00756917Y00233253D01*
Y00235793D01*
X00754378Y00238332D01*
X00746760D01*
X00769613D02*
X00764534D01*
X00761995Y00235793D01*
Y00225636D01*
X00764534Y00223097D01*
X00769613D01*
X00772152Y00225636D01*
Y00235793D01*
X00769613Y00238332D01*
X00777230Y00223097D02*
Y00233253D01*
X00782309Y00238332D01*
X00787387Y00233253D01*
Y00223097D01*
Y00230714D01*
X00777230D01*
X00792465Y00223097D02*
Y00238332D01*
X00800083D01*
X00802622Y00235793D01*
Y00230714D01*
X00800083Y00228175D01*
X00792465D01*
X00797544D02*
X00802622Y00223097D01*
X00807700Y00238332D02*
Y00223097D01*
X00815318D01*
X00817857Y00225636D01*
Y00235793D01*
X00815318Y00238332D01*
X00807700D01*
X00840710Y00223097D02*
Y00238332D01*
X00845788D02*
Y00223097D01*
X00838170Y00233253D02*
X00845788D01*
X00848327D01*
X00838170Y00228175D02*
X00848327D01*
X00853406Y00233253D02*
X00855945D01*
Y00230714D01*
X00853406D01*
Y00233253D01*
Y00225636D02*
X00855945D01*
Y00223097D01*
X00853406D01*
Y00225636D01*
X00885317Y00223097D02*
Y00238332D01*
X00890395Y00233253D01*
X00895474Y00238332D01*
Y00223097D01*
X00900552Y00238332D02*
Y00223097D01*
X00908170D01*
X00910709Y00225636D01*
Y00235793D01*
X00908170Y00238332D01*
X00900552D01*
X00915787Y00235793D02*
X00918326Y00238332D01*
X00923405D01*
X00925944Y00235793D01*
Y00225636D01*
X00923405Y00223097D01*
X00918326D01*
X00915787Y00225636D01*
Y00235793D01*
X00941179Y00223097D02*
X00931022D01*
X00941179Y00233253D01*
Y00235793D01*
X00938640Y00238332D01*
X00933561D01*
X00931022Y00235793D01*
X00946257Y00225636D02*
X00948796Y00223097D01*
X00953875D01*
X00956414Y00225636D01*
Y00235793D01*
X00953875Y00238332D01*
X00948796D01*
X00946257Y00235793D01*
Y00233253D01*
X00948796Y00230714D01*
X00956414D01*
X01173861Y00223097D02*
Y00233253D01*
X01178939Y00238332D01*
X01184018Y00233253D01*
Y00223097D01*
Y00230714D01*
X01173861D01*
X00117729Y00223097D02*
Y00233253D01*
X00122807Y00238332D01*
X00127886Y00233253D01*
Y00223097D01*
Y00230714D01*
X00117729D01*
X00132964Y00238332D02*
Y00223097D01*
X00143121D01*
X00148199Y00238332D02*
Y00223097D01*
X00158356D01*
X00178669D02*
Y00233253D01*
X00183748Y00238332D01*
X00188826Y00233253D01*
Y00223097D01*
Y00230714D01*
X00178669D01*
X00193904Y00223097D02*
Y00238332D01*
X00201522D01*
X00204061Y00235793D01*
Y00230714D01*
X00201522Y00228175D01*
X00193904D01*
X00198983D02*
X00204061Y00223097D01*
X00209139Y00238332D02*
X00219296D01*
X00214218D01*
Y00223097D01*
X00224375Y00238332D02*
Y00223097D01*
X00229453Y00228175D01*
X00234531Y00223097D01*
Y00238332D01*
X00247227D02*
X00242149D01*
X00239610Y00235793D01*
Y00225636D01*
X00242149Y00223097D01*
X00247227D01*
X00249766Y00225636D01*
Y00235793D01*
X00247227Y00238332D01*
X00254845Y00223097D02*
Y00238332D01*
X00262462D01*
X00265001Y00235793D01*
Y00230714D01*
X00262462Y00228175D01*
X00254845D01*
X00259923D02*
X00265001Y00223097D01*
X00270080Y00238332D02*
Y00223097D01*
Y00228175D01*
X00280236Y00238332D01*
X00272619Y00230714D01*
X00280236Y00223097D01*
X00300550Y00238332D02*
Y00228175D01*
X00305628Y00223097D01*
X00310707Y00228175D01*
Y00238332D01*
X00315785D02*
X00320863D01*
X00318324D01*
Y00223097D01*
X00315785D01*
X00320863D01*
X00338638Y00238332D02*
X00328481D01*
Y00223097D01*
X00338638D01*
X00328481Y00230714D02*
X00333559D01*
X00343716Y00238332D02*
Y00223097D01*
X00348794Y00228175D01*
X00353873Y00223097D01*
Y00238332D01*
X00369108D02*
X00358951D01*
Y00223097D01*
X00369108D01*
X00358951Y00230714D02*
X00364029D01*
X00374186Y00238332D02*
Y00223097D01*
X00381804D01*
X00384343Y00225636D01*
Y00235793D01*
X00381804Y00238332D01*
X00374186D01*
X00414813D02*
X00404656D01*
Y00230714D01*
X00409734D01*
X00404656D01*
Y00223097D01*
X00419891D02*
Y00238332D01*
X00427509D01*
X00430048Y00235793D01*
Y00230714D01*
X00427509Y00228175D01*
X00419891D01*
X00424970D02*
X00430048Y00223097D01*
X00442744Y00238332D02*
X00437665D01*
X00435126Y00235793D01*
Y00225636D01*
X00437665Y00223097D01*
X00442744D01*
X00445283Y00225636D01*
Y00235793D01*
X00442744Y00238332D01*
X00450361Y00223097D02*
Y00238332D01*
X00455440Y00233253D01*
X00460518Y00238332D01*
Y00223097D01*
X00480832Y00238332D02*
X00490988D01*
X00485910D01*
Y00223097D01*
X00503684Y00238332D02*
X00498606D01*
X00496067Y00235793D01*
Y00225636D01*
X00498606Y00223097D01*
X00503684D01*
X00506223Y00225636D01*
Y00235793D01*
X00503684Y00238332D01*
X00511302Y00223097D02*
Y00238332D01*
X00518919D01*
X00521458Y00235793D01*
Y00230714D01*
X00518919Y00228175D01*
X00511302D01*
X00551929Y00235793D02*
X00549389Y00238332D01*
X00544311D01*
X00541772Y00235793D01*
Y00233253D01*
X00544311Y00230714D01*
X00549389D01*
X00551929Y00228175D01*
Y00225636D01*
X00549389Y00223097D01*
X00544311D01*
X00541772Y00225636D01*
X00557007Y00238332D02*
X00562085D01*
X00559546D01*
Y00223097D01*
X00557007D01*
X00562085D01*
X00569703Y00238332D02*
Y00223097D01*
X00577320D01*
X00579860Y00225636D01*
Y00235793D01*
X00577320Y00238332D01*
X00569703D01*
X00595095D02*
X00584938D01*
Y00223097D01*
X00595095D01*
X00584938Y00230714D02*
X00590016D01*
X00757425Y00131991D02*
X00754885Y00134530D01*
X00749807D01*
X00747268Y00131991D01*
Y00121834D01*
X00749807Y00119295D01*
X00754885D01*
X00757425Y00121834D01*
Y00126912D01*
X00752346D01*
X00772660Y00134530D02*
X00762503D01*
Y00119295D01*
X00772660D01*
X00762503Y00126912D02*
X00767581D01*
X00777738Y00119295D02*
Y00134530D01*
X00787895Y00119295D01*
Y00134530D01*
X00803130D02*
X00792973D01*
Y00119295D01*
X00803130D01*
X00792973Y00126912D02*
X00798052D01*
X00808208Y00119295D02*
Y00134530D01*
X00815826D01*
X00818365Y00131991D01*
Y00126912D01*
X00815826Y00124373D01*
X00808208D01*
X00813287D02*
X00818365Y00119295D01*
X00823443D02*
Y00129452D01*
X00828522Y00134530D01*
X00833600Y00129452D01*
Y00119295D01*
Y00126912D01*
X00823443D01*
X00838678Y00134530D02*
X00848835D01*
X00843757D01*
Y00119295D01*
X00864070Y00134530D02*
X00853913D01*
Y00119295D01*
X00864070D01*
X00853913Y00126912D02*
X00858992D01*
X00869149Y00134530D02*
Y00119295D01*
X00876766D01*
X00879305Y00121834D01*
Y00131991D01*
X00876766Y00134530D01*
X00869149D01*
X00945324Y00129452D02*
X00947863D01*
Y00126912D01*
X00945324D01*
Y00129452D01*
Y00121834D02*
X00947863D01*
Y00119295D01*
X00945324D01*
Y00121834D01*
X00968121Y00119295D02*
X00973199D01*
X00970660D01*
Y00134530D01*
X00968121Y00131991D01*
X00980817D02*
X00983356Y00134530D01*
X00988434D01*
X00990974Y00131991D01*
Y00121834D01*
X00988434Y00119295D01*
X00983356D01*
X00980817Y00121834D01*
Y00131991D01*
X00996052Y00119295D02*
X01006209Y00129452D01*
X01021444Y00119295D02*
X01011287D01*
X01021444Y00129452D01*
Y00131991D01*
X01018905Y00134530D01*
X01013826D01*
X01011287Y00131991D01*
X01036679Y00134530D02*
X01031600Y00131991D01*
X01026522Y00126912D01*
Y00121834D01*
X01029061Y00119295D01*
X01034140D01*
X01036679Y00121834D01*
Y00124373D01*
X01034140Y00126912D01*
X01026522D01*
X01041757Y00119295D02*
X01051914Y00129452D01*
X01067149Y00119295D02*
X01056992D01*
X01067149Y00129452D01*
Y00131991D01*
X01064610Y00134530D01*
X01059531D01*
X01056992Y00131991D01*
X01072227D02*
X01074766Y00134530D01*
X01079845D01*
X01082384Y00131991D01*
Y00121834D01*
X01079845Y00119295D01*
X01074766D01*
X01072227Y00121834D01*
Y00131991D01*
X01097619Y00119295D02*
X01087462D01*
X01097619Y00129452D01*
Y00131991D01*
X01095080Y00134530D01*
X01090002D01*
X01087462Y00131991D01*
X01102698D02*
X01105237Y00134530D01*
X01110315D01*
X01112854Y00131991D01*
Y00121834D01*
X01110315Y00119295D01*
X01105237D01*
X01102698Y00121834D01*
Y00131991D01*
X00322326Y00119295D02*
Y00134530D01*
X00327404Y00129452D01*
X00332483Y00134530D01*
Y00119295D01*
X00337561Y00134530D02*
Y00119295D01*
X00345179D01*
X00347718Y00121834D01*
Y00131991D01*
X00345179Y00134530D01*
X00337561D01*
X00352796Y00131991D02*
X00355335Y00134530D01*
X00360414D01*
X00362953Y00131991D01*
Y00121834D01*
X00360414Y00119295D01*
X00355335D01*
X00352796Y00121834D01*
Y00131991D01*
X00378188Y00119295D02*
X00368031D01*
X00378188Y00129452D01*
Y00131991D01*
X00375649Y00134530D01*
X00370570D01*
X00368031Y00131991D01*
X00383266Y00121834D02*
X00385806Y00119295D01*
X00390884D01*
X00393423Y00121834D01*
Y00131991D01*
X00390884Y00134530D01*
X00385806D01*
X00383266Y00131991D01*
Y00129452D01*
X00385806Y00126912D01*
X00393423D01*
X00398501Y00119295D02*
Y00129452D01*
X00403580Y00134530D01*
X00408658Y00129452D01*
Y00119295D01*
Y00126912D01*
X00398501D01*
X00413736Y00119295D02*
Y00121834D01*
X00416276D01*
Y00119295D01*
X00413736D01*
X00436589Y00131991D02*
X00434050Y00134530D01*
X00428971D01*
X00426432Y00131991D01*
Y00121834D01*
X00428971Y00119295D01*
X00434050D01*
X00436589Y00121834D01*
Y00126912D01*
X00431511D01*
X00451824Y00119295D02*
X00441667D01*
X00451824Y00129452D01*
Y00131991D01*
X00449285Y00134530D01*
X00444207D01*
X00441667Y00131991D01*
X01099820Y00223097D02*
Y00238332D01*
X01107438D01*
X01109977Y00235793D01*
Y00230714D01*
X01107438Y00228175D01*
X01099820D01*
X01104898D02*
X01109977Y00223097D01*
X01125212Y00238332D02*
X01115055D01*
Y00223097D01*
X01125212D01*
X01115055Y00230714D02*
X01120133D01*
X01130290Y00238332D02*
Y00228175D01*
X01135368Y00223097D01*
X01140447Y00228175D01*
Y00238332D01*
X01145525Y00233253D02*
X01148064D01*
Y00230714D01*
X01145525D01*
Y00233253D01*
Y00225636D02*
X01148064D01*
Y00223097D01*
X01145525D01*
Y00225636D01*
X01322829Y00235793D02*
X01320289Y00238332D01*
X01315211D01*
X01312672Y00235793D01*
Y00233253D01*
X01315211Y00230714D01*
X01320289D01*
X01322829Y00228175D01*
Y00225636D01*
X01320289Y00223097D01*
X01315211D01*
X01312672Y00225636D01*
X01327907Y00238332D02*
Y00228175D01*
X01332985Y00223097D01*
X01338064Y00228175D01*
Y00238332D01*
X01343142Y00223097D02*
Y00238332D01*
X01353299Y00223097D01*
Y00238332D01*
X01373612Y00223097D02*
Y00238332D01*
X01381230D01*
X01383769Y00235793D01*
Y00230714D01*
X01381230Y00228175D01*
X01373612D01*
X01378691D02*
X01383769Y00223097D01*
X01399004Y00238332D02*
X01388847D01*
Y00223097D01*
X01399004D01*
X01388847Y00230714D02*
X01393926D01*
X01404082Y00238332D02*
Y00228175D01*
X01409161Y00223097D01*
X01414239Y00228175D01*
Y00238332D01*
X01419317Y00233253D02*
X01421857D01*
Y00230714D01*
X01419317D01*
Y00233253D01*
Y00225636D02*
X01421857D01*
Y00223097D01*
X01419317D01*
Y00225636D01*
X01441196Y00223097D02*
Y00238332D01*
X01451353Y00223097D01*
Y00238332D01*
X01458970Y00223097D02*
X01464049D01*
X01466588Y00225636D01*
Y00230714D01*
X01464049Y00233253D01*
X01458970D01*
X01456431Y00230714D01*
Y00225636D01*
X01458970Y00223097D01*
X01474205Y00235793D02*
Y00233253D01*
X01471666D01*
X01476745D01*
X01474205D01*
Y00225636D01*
X01476745Y00223097D01*
X01499597Y00238332D02*
X01504675D01*
X01502136D01*
Y00223097D01*
X01499597D01*
X01504675D01*
X01512293D02*
Y00233253D01*
X01519910D01*
X01522450Y00230714D01*
Y00223097D01*
X01542763Y00238332D02*
Y00228175D01*
X01547841Y00223097D01*
X01552920Y00228175D01*
Y00238332D01*
X01565616Y00223097D02*
X01560537D01*
X01557998Y00225636D01*
Y00230714D01*
X01560537Y00233253D01*
X01565616D01*
X01568155Y00230714D01*
Y00228175D01*
X01557998D01*
X01573233Y00233253D02*
Y00223097D01*
Y00228175D01*
X01575773Y00230714D01*
X01578312Y00233253D01*
X01580851D01*
X01588468Y00223097D02*
X01596086D01*
X01598625Y00225636D01*
X01596086Y00228175D01*
X01591008D01*
X01588468Y00230714D01*
X01591008Y00233253D01*
X01598625D01*
X01603703Y00223097D02*
X01608782D01*
X01606243D01*
Y00233253D01*
X01603703D01*
X01618938Y00223097D02*
X01624017D01*
X01626556Y00225636D01*
Y00230714D01*
X01624017Y00233253D01*
X01618938D01*
X01616399Y00230714D01*
Y00225636D01*
X01618938Y00223097D01*
X01631634D02*
Y00233253D01*
X01639252D01*
X01641791Y00230714D01*
Y00223097D01*
X01657026Y00235793D02*
X01654487Y00238332D01*
X01649409D01*
X01646870Y00235793D01*
Y00225636D01*
X01649409Y00223097D01*
X01654487D01*
X01657026Y00225636D01*
X01664644Y00223097D02*
X01669722D01*
X01672261Y00225636D01*
Y00230714D01*
X01669722Y00233253D01*
X01664644D01*
X01662104Y00230714D01*
Y00225636D01*
X01664644Y00223097D01*
X01677340D02*
Y00233253D01*
X01684957D01*
X01687496Y00230714D01*
Y00223097D01*
X01695114Y00235793D02*
Y00233253D01*
X01692575D01*
X01697653D01*
X01695114D01*
Y00225636D01*
X01697653Y00223097D01*
X01705271Y00233253D02*
Y00223097D01*
Y00228175D01*
X01707810Y00230714D01*
X01710349Y00233253D01*
X01712888D01*
X01723045Y00223097D02*
X01728123D01*
X01730662Y00225636D01*
Y00230714D01*
X01728123Y00233253D01*
X01723045D01*
X01720506Y00230714D01*
Y00225636D01*
X01723045Y00223097D01*
X01735741D02*
X01740819D01*
X01738280D01*
Y00238332D01*
X01735741D01*
G54D16*
X00486336Y00583946D02*
X00506786Y00563496D01*
X00482777Y00583946D02*
X00486336D01*
X00506786Y00563496D02*
X00540159D01*
X00482739Y00583984D02*
X00482777Y00583946D01*
X00435328Y00641713D02*
X00494201Y00582841D01*
X00435328Y00641713D02*
Y00712206D01*
X00494201Y00582841D02*
X00505550D01*
X00489458Y00528161D02*
Y00563626D01*
X00536561Y00610146D02*
X00546738Y00620324D01*
X00662593Y00461906D02*
X00726230D01*
X00657426Y00467073D02*
X00662593Y00461906D01*
X00732746D02*
X00787280D01*
X00732118Y00462534D02*
X00732746Y00461906D01*
X00726858Y00462534D02*
X00732118D01*
X00726230Y00461906D02*
X00726858Y00462534D01*
X00787280Y00461906D02*
X00797290Y00471916D01*
X00678366Y00487426D02*
X00754482D01*
X00797290Y00471916D02*
Y00498364D01*
X00786638Y00509016D02*
X00797290Y00498364D01*
X00717238Y00517906D02*
X00720940Y00521609D01*
X00686450Y00517906D02*
X00717238D01*
X00684672Y00519684D02*
X00686450Y00517906D01*
X00756667Y00514096D02*
X00763017Y00520446D01*
X00642624Y00514096D02*
X00756667D01*
X00758245Y00510286D02*
X00764595Y00516636D01*
X00644202Y00510286D02*
X00758245D01*
X00642116Y00513588D02*
X00642624Y00514096D01*
X00634764Y00513588D02*
X00642116D01*
X00632942Y00499025D02*
X00644202Y00510286D01*
X00438658Y00479806D02*
X00470198Y00511346D01*
X00632522D02*
X00634764Y00513588D01*
X00470198Y00511346D02*
X00632522D01*
X00614638Y00519684D02*
X00684672D01*
X00611384Y00516430D02*
X00614638Y00519684D01*
X00667977Y00497815D02*
Y00503936D01*
Y00497815D02*
X00678366Y00487426D01*
X00598588Y00499025D02*
X00632942D01*
X01058418Y00607576D02*
X01090168D01*
X01099058Y00598686D01*
Y00549816D02*
Y00598686D01*
X01085089Y00535846D02*
X01099058Y00549816D01*
X01017521Y00535846D02*
X01085089D01*
X01009746Y00528071D02*
X01017521Y00535846D01*
X01009746Y00516286D02*
Y00528071D01*
X00997396Y00503936D02*
X01009746Y00516286D01*
X00987298Y00503936D02*
X00997396D01*
X00981766Y00509468D02*
X00987298Y00503936D01*
X00980948Y00509468D02*
X00981766D01*
X00980948D02*
Y00529336D01*
X00972188Y00538096D02*
X00980948Y00529336D01*
X00963986Y00538096D02*
X00972188D01*
X00953696Y00548386D02*
X00963986Y00538096D01*
X00942848Y00548386D02*
X00953696D01*
X01058418Y00657576D02*
X01093418D01*
X01102868Y00648126D01*
Y00546301D02*
Y00648126D01*
X01087628Y00531061D02*
X01102868Y00546301D01*
X01018271Y00531061D02*
X01087628D01*
X01013556Y00526346D02*
X01018271Y00531061D01*
X01013556Y00511869D02*
Y00526346D01*
X00995921Y00494234D02*
X01013556Y00511869D01*
X00985570Y00494234D02*
X00995921D01*
X00978538Y00501266D02*
X00985570Y00494234D01*
X00978538Y00501266D02*
Y00501848D01*
X00972510Y00507876D02*
X00978538Y00501848D01*
X00957958Y00507876D02*
X00972510D01*
X00942848Y00522986D02*
X00957958Y00507876D01*
X01058418Y00707576D02*
X01096078D01*
X01106678Y00696976D01*
Y00542786D02*
Y00696976D01*
X01090688Y00526796D02*
X01106678Y00542786D01*
X01019394Y00526796D02*
X01090688D01*
X01017366Y00524768D02*
X01019394Y00526796D01*
X01017366Y00509461D02*
Y00524768D01*
X00995201Y00487296D02*
X01017366Y00509461D01*
X00963986Y00487296D02*
X00995201D01*
X00953696Y00497586D02*
X00963986Y00487296D01*
X00942848Y00497586D02*
X00953696D01*
X00572758Y00602277D02*
Y00604127D01*
X00572897Y00604266D01*
X00744362Y00545736D02*
X00750968D01*
X00763017Y00520446D02*
X00814428D01*
X00764595Y00516636D02*
X00822198D01*
X00774740Y00507684D02*
X00775208D01*
X00754482Y00487426D02*
X00774740Y00507684D01*
X00816286Y00520884D02*
X00822198Y00526796D01*
X00816087Y00520884D02*
X00816286D01*
X00815929Y00520726D02*
X00816087Y00520884D01*
X00815683Y00520726D02*
X00815929D01*
X00815560Y00520604D02*
X00815683Y00520726D01*
X00815274Y00520604D02*
X00815560D01*
X00815187Y00520516D02*
X00815274Y00520604D01*
X00814862Y00520516D02*
X00815187D01*
X00814809Y00520463D02*
X00814862Y00520516D01*
X00814446Y00520463D02*
X00814809D01*
X00814428Y00520446D02*
X00814446Y00520463D01*
X00785458Y00568706D02*
X00801624D01*
X00782918Y00571246D02*
X00785458Y00568706D01*
X00776478Y00571246D02*
X00782918D01*
X00750968Y00545736D02*
X00776478Y00571246D01*
X00571486Y00532169D02*
X00601218D01*
X00604343Y00535294D02*
X00608343D01*
X00601218Y00532169D02*
X00604343Y00535294D01*
X00438658Y00479806D02*
X00439928D01*
X00677418Y00569580D02*
X00724101D01*
X00724408Y00569886D01*
X00622628Y00649986D02*
X00645359Y00627255D01*
X00554691Y00680763D02*
X00557104Y00678350D01*
Y00663620D02*
Y00678350D01*
Y00663620D02*
X00570738Y00649986D01*
X00622628D01*
X00606361Y00634763D02*
X00645748Y00595376D01*
X00591341Y00634763D02*
X00606361D01*
X00590566Y00635538D02*
X00591341Y00634763D01*
X00585677Y00635538D02*
X00590566D01*
X00577357Y00643859D02*
X00585677Y00635538D01*
X00557127Y00643859D02*
X00577357D01*
X00674294Y00584530D02*
X00675892D01*
X00673953D02*
X00674294D01*
X00540710Y00660276D02*
X00557127Y00643859D01*
X00574772Y00636016D02*
X00584152Y00626636D01*
X00559182Y00636016D02*
X00574772D01*
X00624670Y00576376D02*
X00659939D01*
X00621680Y00579366D02*
X00624670Y00576376D01*
X00701647Y00576804D02*
X00705322Y00580479D01*
X00660366Y00576804D02*
X00701647D01*
X00659939Y00576376D02*
X00660366Y00576804D01*
X00646722Y00583234D02*
X00657098D01*
X00603321Y00626636D02*
X00646722Y00583234D01*
X00673088Y00583665D02*
X00673953Y00584530D01*
X00663448Y00595376D02*
X00674294Y00584530D01*
X00645748Y00595376D02*
X00663448D01*
X00486147Y00702056D02*
X00488242Y00704151D01*
X00482385Y00698294D02*
X00486147Y00702056D01*
X00687578Y00538834D02*
Y00543306D01*
Y00543686D01*
X00720940Y00522315D02*
X00744362Y00545736D01*
X00720940Y00521609D02*
Y00522315D01*
X00687578Y00538834D02*
X00701962Y00524449D01*
X00714082D01*
X00557556Y00516430D02*
X00611384D01*
X00540710Y00533276D02*
X00557556Y00516430D01*
X00511606Y00533276D02*
X00540710D01*
X00496101Y00548781D02*
X00511606Y00533276D01*
X00496101Y00548781D02*
Y00563349D01*
X00492084Y00567366D02*
X00496101Y00563349D01*
X00491280Y00567366D02*
X00492084D01*
X00479994Y00578652D02*
X00491280Y00567366D01*
X00464011Y00578652D02*
X00479994D01*
X00461308Y00581355D02*
X00464011Y00578652D01*
X00584152Y00626636D02*
X00603321D01*
X00546738Y00623572D02*
X00559182Y00636016D01*
X00546738Y00620324D02*
Y00623572D01*
X00496988Y00610146D02*
X00536561D01*
X00462918Y00644216D02*
X00496988Y00610146D01*
X00456540Y00644216D02*
X00462918D01*
X00516546Y00582841D02*
X00530950D01*
X00515310Y00584076D02*
X00516546Y00582841D01*
X00506786Y00584076D02*
X00515310D01*
X00505550Y00582841D02*
X00506786Y00584076D01*
X00541946Y00582841D02*
X00555333D01*
X00540710Y00584076D02*
X00541946Y00582841D01*
X00532186Y00584076D02*
X00540710D01*
X00530950Y00582841D02*
X00532186Y00584076D01*
X00555333Y00582841D02*
X00598678Y00539496D01*
X00489243Y00560508D02*
Y00563841D01*
X00501199Y00660276D02*
X00540710D01*
X00489352Y00672123D02*
X00501199Y00660276D01*
X00486403Y00672123D02*
X00489352D01*
X00482385Y00676141D02*
X00486403Y00672123D01*
X00482385Y00676141D02*
Y00698294D01*
X00554691Y00680763D02*
Y00700323D01*
X00477057Y00583984D02*
X00482739D01*
X00477019Y00583946D02*
X00477057Y00583984D01*
X00470408Y00583946D02*
X00477019D01*
X00429768Y00624586D02*
X00470408Y00583946D01*
X00500888Y00636016D02*
X00517398D01*
X00528828Y00624586D01*
X00536448D01*
X00473054Y00475996D02*
X00485754Y00488696D01*
X00505386D01*
X00506786Y00487296D01*
X00586858D01*
X00598588Y00499025D01*
X00467868Y00731450D02*
X00488242Y00711076D01*
X00543938D01*
X00554691Y00700323D01*
X00422965Y00715226D02*
X00429768Y00708423D01*
Y00624586D02*
Y00708423D01*
X00540159Y00563496D02*
X00571486Y00532169D01*
X00432308Y00715226D02*
X00435328Y00712206D01*
X00404849Y00544576D02*
X00421264Y00528161D01*
X00489458D01*
X00489243Y00563841D02*
X00489458Y00563626D01*
X01420876Y00100076D02*
Y00151596D01*
X01118870Y00101727D02*
X01778508D01*
Y00256667D01*
X00727710Y00101727D02*
Y00256667D01*
X00101600Y00101727D02*
Y00256667D01*
X00101727Y00101727D02*
X00501904D01*
X00101727D02*
Y00256667D01*
X01778508D01*
X00101600Y00101727D02*
X01118870D01*
X00101600Y00153374D02*
X01778000D01*
X00101600Y00205020D02*
X01778508D01*
X01049528D02*
Y00256667D01*
X01262888Y00205020D02*
Y00256667D01*
G54D78*
X00385318Y00514096D02*
D03*
X00358568Y00477266D02*
D03*
G54D82*
X00755257Y00861556D02*
D03*
X00660057D02*
D03*
X00453657D02*
D03*
X00307848Y00769366D02*
D03*
X00206248D02*
D03*
G54D95*
X00670114Y00482030D02*
X00778558D01*
X00787774Y00472814D01*
X00663448Y00488696D02*
X00670114Y00482030D01*
X00398018Y00612233D02*
X00429465Y00580786D01*
X00398018Y00612233D02*
Y00622046D01*
X00639318Y00488696D02*
X00663448D01*
G54D96*
X00236728Y00469158D02*
Y00571198D01*
X00639252Y00475963D02*
X00688591D01*
X00697568Y00466986D01*
X00634205Y00470916D02*
X00639252Y00475963D01*
X00706213Y00469318D02*
X00724334D01*
X00703881Y00466986D02*
X00706213Y00469318D01*
X00697568Y00466986D02*
X00703881D01*
X00724334Y00469318D02*
X00725932Y00470916D01*
X00707898Y00407726D02*
Y00408686D01*
Y00407726D02*
X00712076Y00403548D01*
X00764540Y00403098D02*
X00825565D01*
X00712076Y00403548D02*
X00764090D01*
X00764540Y00403098D01*
X00607568Y00470916D02*
X00634205D01*
X00834062Y00411595D02*
X00883920D01*
X00825565Y00403098D02*
X00834062Y00411595D01*
X00361301Y00678981D02*
X00404368D01*
X00361079Y00679204D02*
X00361301Y00678981D01*
X00348214Y00666338D02*
X00361079Y00679204D01*
X00608543Y00523288D02*
X00616471Y00531216D01*
Y00538660D01*
X00608161Y00546971D02*
X00616471Y00538660D01*
X00608161Y00546971D02*
Y00548766D01*
X00489243Y00678981D02*
X00511048Y00700786D01*
X00561722Y00595205D02*
X00608161Y00548766D01*
X00561722Y00595205D02*
Y00624078D01*
X00836168Y00521785D02*
X00841248Y00516705D01*
X00845128D02*
X00850971Y00510862D01*
X00841248Y00516705D02*
X00845128D01*
X00836168Y00521785D02*
Y00541485D01*
X00254508Y00590296D02*
X00297858D01*
X00348214Y00640652D02*
Y00666338D01*
X00297858Y00590296D02*
X00348214Y00640652D01*
X00237090Y00572878D02*
X00254508Y00590296D01*
X00237090Y00570836D02*
Y00572878D01*
X00236728Y00571198D02*
X00237090Y00570836D01*
X00236728Y00469158D02*
X00247670Y00458216D01*
G54D101*
X00968248Y00700786D02*
D03*
X00942848Y00497586D02*
D03*
Y00522986D02*
D03*
Y00548386D02*
D03*
X00536448Y00624586D02*
D03*
Y00675386D02*
D03*
G54D102*
X00511048Y00700786D02*
D03*
G54D103*
X00850457Y00861556D02*
D03*
X00548857D02*
D03*
G54D104*
X01058418Y00757576D02*
D03*
Y00707576D02*
D03*
Y00657576D02*
D03*
Y00607576D02*
D03*
G54D106*
X00495960Y00789686D02*
D03*
X00601472Y00433487D02*
D03*
X00647180Y00789686D02*
D03*
X00766318D02*
D03*
X00888238D02*
D03*
G54D107*
X00263710Y00682156D02*
D03*
Y00671156D02*
D03*
X00250710Y00682156D02*
D03*
Y00671156D02*
D03*
X00276710D02*
D03*
Y00682156D02*
D03*
X00237710D02*
D03*
Y00671156D02*
D03*
G54D108*
X01066800Y00952500D02*
D03*
X01085850Y00914400D02*
D03*
X01066800Y00876300D02*
D03*
X01085850Y00838200D02*
D03*
X01066800Y00800100D02*
D03*
X01085850Y00762000D02*
D03*
X01066800Y00495300D02*
D03*
Y00419100D02*
D03*
X01028700Y00876300D02*
D03*
X01047750Y00838200D02*
D03*
X01028700Y00723900D02*
D03*
X01047750Y00685800D02*
D03*
X01028700Y00647700D02*
D03*
Y00571500D02*
D03*
X01047750Y00457200D02*
D03*
X01028700Y00419100D02*
D03*
X01009650Y00762000D02*
D03*
Y00685800D02*
D03*
Y00609600D02*
D03*
Y00457200D02*
D03*
X00990600Y00419100D02*
D03*
X00952500Y00876300D02*
D03*
X00971550Y00838200D02*
D03*
X00952500Y00800100D02*
D03*
X00971550Y00762000D02*
D03*
X00952500Y00723900D02*
D03*
Y00419100D02*
D03*
X00933450Y00457200D02*
D03*
X00895350D02*
D03*
X00552450Y00762000D02*
D03*
X00495300Y00876300D02*
D03*
X00514350Y00762000D02*
D03*
X00457200Y00876300D02*
D03*
X00419100D02*
D03*
X00438150Y00838200D02*
D03*
X00381000Y00723900D02*
D03*
X00400050Y00533400D02*
D03*
X00381000Y00495300D02*
D03*
X00304800Y00419100D02*
D03*
X00266700Y00876300D02*
D03*
Y00800100D02*
D03*
Y00495300D02*
D03*
X00228600Y00952500D02*
D03*
X00247650Y00914400D02*
D03*
X00228600Y00876300D02*
D03*
X00247650Y00838200D02*
D03*
X00228600Y00800100D02*
D03*
X00247650Y00762000D02*
D03*
X00787774Y00472814D02*
D03*
X00711708Y00439166D02*
D03*
X00706042Y00447040D02*
D03*
X00668020Y00440125D02*
D03*
X00657426Y00467073D02*
D03*
X00707898Y00408686D02*
D03*
X00725932Y00470916D02*
D03*
X00667977Y00503936D02*
D03*
X00883920Y00411595D02*
D03*
X00398018Y00622046D02*
D03*
X00404368Y00678981D02*
D03*
X00952500Y00984250D02*
D03*
X00968375Y00952500D02*
D03*
X00952500Y00920750D02*
D03*
X00920750Y00984250D02*
D03*
X00936625Y00952500D02*
D03*
X00920750Y00920750D02*
D03*
X00889000Y00984250D02*
D03*
X00904875Y00952500D02*
D03*
X00857250Y00984250D02*
D03*
X00873125Y00952500D02*
D03*
X00857250Y00920750D02*
D03*
X00793750Y00984250D02*
D03*
Y00920750D02*
D03*
X00762000Y00984250D02*
D03*
X00777875Y00952500D02*
D03*
X00762000Y00920750D02*
D03*
X00730250Y00984250D02*
D03*
X00746125Y00952500D02*
D03*
X00730250Y00920750D02*
D03*
X00666750Y00984250D02*
D03*
X00682625Y00952500D02*
D03*
X00666750Y00920750D02*
D03*
X00635000Y00984250D02*
D03*
X00650875Y00952500D02*
D03*
X00619125D02*
D03*
X00571500Y00984250D02*
D03*
Y00920750D02*
D03*
X00539750Y00984250D02*
D03*
X00555625Y00952500D02*
D03*
X00539750Y00920750D02*
D03*
X00508000Y00984250D02*
D03*
X00523875Y00952500D02*
D03*
X00508000Y00920750D02*
D03*
X00476250Y00984250D02*
D03*
X00492125Y00952500D02*
D03*
X00476250Y00920750D02*
D03*
X00444500Y00984250D02*
D03*
X00460375Y00952500D02*
D03*
X00444500Y00920750D02*
D03*
X00412750Y00984250D02*
D03*
X00428625Y00952500D02*
D03*
X00412750Y00920750D02*
D03*
X00381000Y00984250D02*
D03*
X00396875Y00952500D02*
D03*
X00381000Y00920750D02*
D03*
X00396875Y00889000D02*
D03*
X00381000Y00857250D02*
D03*
Y00793750D02*
D03*
X00349250Y00984250D02*
D03*
X00365125Y00952500D02*
D03*
X00349250Y00920750D02*
D03*
X00365125Y00889000D02*
D03*
X00349250Y00857250D02*
D03*
X00365125Y00825500D02*
D03*
X00333375Y00952500D02*
D03*
Y00889000D02*
D03*
Y00825500D02*
D03*
Y00762000D02*
D03*
X00444500Y00407416D02*
D03*
X00496857Y00407612D02*
D03*
X00551374Y00407668D02*
D03*
X00584174Y00407612D02*
D03*
X00546100Y00876300D02*
D03*
X00533400D02*
D03*
Y00850900D02*
D03*
X00539750Y00838200D02*
D03*
X00527050Y00863600D02*
D03*
X00520700Y00850900D02*
D03*
X00527050Y00838200D02*
D03*
X00520700Y00825500D02*
D03*
X00514350Y00863600D02*
D03*
X00508000Y00850900D02*
D03*
X00514350Y00838200D02*
D03*
X00508000Y00825500D02*
D03*
X00514350Y00812800D02*
D03*
X00508000Y00800100D02*
D03*
X00514350Y00787400D02*
D03*
X00495300Y00850900D02*
D03*
X00501650Y00838200D02*
D03*
X00495300Y00825500D02*
D03*
X00501650Y00812800D02*
D03*
X00488950Y00838200D02*
D03*
X00482600Y00825500D02*
D03*
X00488950Y00812800D02*
D03*
X00482600Y00800100D02*
D03*
Y00774700D02*
D03*
X00476250Y00838200D02*
D03*
X00469900Y00825500D02*
D03*
X00476250Y00812800D02*
D03*
X00469900Y00800100D02*
D03*
X00476250Y00787400D02*
D03*
Y00762000D02*
D03*
X00463550Y00812800D02*
D03*
X00457200Y00800100D02*
D03*
X00450850Y00812800D02*
D03*
X00444500Y00800100D02*
D03*
X00431800D02*
D03*
X00901700Y00850900D02*
D03*
Y00825500D02*
D03*
Y00800100D02*
D03*
Y00774700D02*
D03*
Y00749300D02*
D03*
X00889000Y00850900D02*
D03*
X00895350Y00838200D02*
D03*
X00889000Y00825500D02*
D03*
X00895350Y00812800D02*
D03*
Y00762000D02*
D03*
X00889000Y00749300D02*
D03*
X00882650Y00863600D02*
D03*
X00876300Y00850900D02*
D03*
X00882650Y00838200D02*
D03*
X00876300Y00825500D02*
D03*
X00882650Y00812800D02*
D03*
X00876300Y00800100D02*
D03*
Y00774700D02*
D03*
X00882650Y00762000D02*
D03*
X00876300Y00749300D02*
D03*
X00869950Y00838200D02*
D03*
X00863600Y00825500D02*
D03*
X00869950Y00812800D02*
D03*
X00863600Y00800100D02*
D03*
X00869950Y00787400D02*
D03*
X00863600Y00774700D02*
D03*
X00781050Y00863600D02*
D03*
X00774700Y00850900D02*
D03*
X00781050Y00838200D02*
D03*
X00774700Y00825500D02*
D03*
X00781050Y00812800D02*
D03*
X00774700Y00774700D02*
D03*
X00781050Y00762000D02*
D03*
X00774700Y00749300D02*
D03*
X00768350Y00838200D02*
D03*
X00762000Y00825500D02*
D03*
X00768350Y00812800D02*
D03*
X00762000Y00774700D02*
D03*
X00768350Y00762000D02*
D03*
X00762000Y00749300D02*
D03*
X00755650Y00838200D02*
D03*
X00749300Y00825500D02*
D03*
X00755650Y00812800D02*
D03*
X00749300Y00800100D02*
D03*
Y00774700D02*
D03*
X00755650Y00762000D02*
D03*
X00742950Y00838200D02*
D03*
Y00812800D02*
D03*
Y00787400D02*
D03*
X00666750Y00838200D02*
D03*
X00660400Y00825500D02*
D03*
X00666750Y00812800D02*
D03*
X00660400Y00800100D02*
D03*
X00666750Y00787400D02*
D03*
X00660400Y00774700D02*
D03*
X00666750Y00762000D02*
D03*
X00660400Y00749300D02*
D03*
X00647700Y00850900D02*
D03*
X00654050Y00838200D02*
D03*
X00647700Y00825500D02*
D03*
X00654050Y00812800D02*
D03*
Y00762000D02*
D03*
X00647700Y00749300D02*
D03*
X00635000Y00850900D02*
D03*
X00641350Y00838200D02*
D03*
X00635000Y00825500D02*
D03*
X00641350Y00812800D02*
D03*
X00635000Y00800100D02*
D03*
Y00774700D02*
D03*
X00641350Y00762000D02*
D03*
X00635000Y00749300D02*
D03*
X00628650Y00838200D02*
D03*
Y00812800D02*
D03*
Y00787400D02*
D03*
X00837124Y00596937D02*
D03*
X00838608Y00606255D02*
D03*
X00789153Y00562292D02*
D03*
X00560849Y00565965D02*
D03*
X00552086Y00563230D02*
D03*
X00755729Y00525625D02*
D03*
X00692658Y00524256D02*
D03*
X00717370Y00545736D02*
D03*
X00711136Y00538737D02*
D03*
X00572758Y00602277D02*
D03*
X00607568Y00470916D02*
D03*
X00763778Y00535476D02*
D03*
X00775208Y00507684D02*
D03*
X00897959Y00534771D02*
D03*
X00898398Y00543859D02*
D03*
X00743602Y00535294D02*
D03*
X00780288Y00538737D02*
D03*
Y00555141D02*
D03*
X00754862Y00534771D02*
D03*
X00655655Y00560061D02*
D03*
X00634933Y00538288D02*
D03*
X00608343Y00535294D02*
D03*
X00724408Y00569886D02*
D03*
X00875538Y00899656D02*
D03*
X01016096Y00782066D02*
D03*
X01004132D02*
D03*
X00992378D02*
D03*
X01022858Y00859536D02*
D03*
X01023069Y00828676D02*
D03*
Y00838962D02*
D03*
X01022858Y00849249D02*
D03*
Y00818896D02*
D03*
X01023069Y00788036D02*
D03*
Y00798322D02*
D03*
X01022858Y00808609D02*
D03*
X00985570Y00859536D02*
D03*
X00985781Y00828676D02*
D03*
Y00838962D02*
D03*
X00985570Y00849249D02*
D03*
Y00818896D02*
D03*
X00985781Y00788036D02*
D03*
Y00798322D02*
D03*
X00985570Y00808609D02*
D03*
X01016096Y00868426D02*
D03*
X01004132D02*
D03*
X00992378D02*
D03*
X00283929D02*
D03*
X00295682D02*
D03*
X00307647D02*
D03*
X00277121Y00808609D02*
D03*
X00277332Y00798322D02*
D03*
Y00788036D02*
D03*
X00277121Y00818896D02*
D03*
Y00849249D02*
D03*
X00277332Y00838962D02*
D03*
Y00828676D02*
D03*
X00277121Y00859536D02*
D03*
X00314409Y00808609D02*
D03*
X00314620Y00798322D02*
D03*
Y00788036D02*
D03*
X00314409Y00818896D02*
D03*
Y00849249D02*
D03*
X00314620Y00838962D02*
D03*
Y00828676D02*
D03*
X00314409Y00859536D02*
D03*
X00283929Y00782066D02*
D03*
X00295682D02*
D03*
X00307647D02*
D03*
X00986840Y00941959D02*
D03*
X00987051Y00931672D02*
D03*
Y00921385D02*
D03*
X00986840Y00952246D02*
D03*
Y00982599D02*
D03*
X00987051Y00972312D02*
D03*
Y00962026D02*
D03*
X00986840Y00992886D02*
D03*
X01024128Y00941959D02*
D03*
X01024339Y00931672D02*
D03*
Y00921385D02*
D03*
X01024128Y00952246D02*
D03*
Y00982599D02*
D03*
X01024339Y00972312D02*
D03*
Y00962026D02*
D03*
X01024128Y00992886D02*
D03*
X00993648Y00915416D02*
D03*
X01005402D02*
D03*
X01017366D02*
D03*
X00307436Y00916686D02*
D03*
X00295472D02*
D03*
X00283718D02*
D03*
X00314198Y00994156D02*
D03*
X00314409Y00963296D02*
D03*
Y00973582D02*
D03*
X00314198Y00983869D02*
D03*
Y00953516D02*
D03*
X00314409Y00922655D02*
D03*
Y00932942D02*
D03*
X00314198Y00943229D02*
D03*
X00276910Y00994156D02*
D03*
X00277121Y00963296D02*
D03*
Y00973582D02*
D03*
X00276910Y00983869D02*
D03*
Y00953516D02*
D03*
X00277121Y00922655D02*
D03*
Y00932942D02*
D03*
X00276910Y00943229D02*
D03*
X00621680Y00579366D02*
D03*
X00801624Y00568706D02*
D03*
X00677418Y00569580D02*
D03*
X00675892Y00584530D02*
D03*
X00657098Y00583234D02*
D03*
X00687578Y00543306D02*
D03*
X00645320Y00627215D02*
D03*
X00705322Y00580479D02*
D03*
X00714082Y00524449D02*
D03*
X00608543Y00523288D02*
D03*
X00499618Y00616496D02*
D03*
X00496975Y00645018D02*
D03*
X00500690Y00589523D02*
D03*
X00461308Y00581355D02*
D03*
X00489243Y00560508D02*
D03*
X00456540Y00644216D02*
D03*
X00489243Y00678981D02*
D03*
X00486147Y00702056D02*
D03*
X00846127Y00654105D02*
D03*
X00834162D02*
D03*
X00718269Y00655866D02*
D03*
X00706628D02*
D03*
X00597422Y00657136D02*
D03*
X00585978D02*
D03*
X00814044Y00941959D02*
D03*
X00826008D02*
D03*
X00837972D02*
D03*
Y00931672D02*
D03*
X00826008D02*
D03*
X00814254D02*
D03*
Y00921385D02*
D03*
X00826008D02*
D03*
X00837972D02*
D03*
X00814044Y00952246D02*
D03*
X00826008Y00952246D02*
D03*
X00837972D02*
D03*
X00814044Y00983869D02*
D03*
X00826008D02*
D03*
X00837972D02*
D03*
Y00973582D02*
D03*
X00826008D02*
D03*
X00814254D02*
D03*
Y00963295D02*
D03*
X00826008D02*
D03*
X00837972D02*
D03*
X00814044Y00994156D02*
D03*
X00826008Y00994156D02*
D03*
X00837972D02*
D03*
X00694340Y00941959D02*
D03*
X00706304D02*
D03*
X00718269D02*
D03*
Y00931672D02*
D03*
X00706304D02*
D03*
X00694551D02*
D03*
Y00921385D02*
D03*
X00706304D02*
D03*
X00718269D02*
D03*
X00694340Y00952246D02*
D03*
X00706304Y00952246D02*
D03*
X00718269D02*
D03*
X00694129Y00983869D02*
D03*
X00706094D02*
D03*
X00718058D02*
D03*
Y00973582D02*
D03*
X00706094D02*
D03*
X00694340D02*
D03*
Y00963295D02*
D03*
X00706094D02*
D03*
X00718058D02*
D03*
X00694129Y00994156D02*
D03*
X00706094Y00994156D02*
D03*
X00718058D02*
D03*
X00584174Y00941959D02*
D03*
X00596138D02*
D03*
X00608102D02*
D03*
Y00931672D02*
D03*
X00596138D02*
D03*
X00584384D02*
D03*
Y00921385D02*
D03*
X00596138D02*
D03*
X00608102D02*
D03*
X00584174Y00952246D02*
D03*
X00596138Y00952246D02*
D03*
X00608102D02*
D03*
X00584174Y00982599D02*
D03*
X00596138D02*
D03*
X00608102D02*
D03*
Y00972312D02*
D03*
X00596138D02*
D03*
X00584384D02*
D03*
Y00962025D02*
D03*
X00596138D02*
D03*
X00608102D02*
D03*
X00584174Y00992886D02*
D03*
X00596138Y00992886D02*
D03*
X00608102D02*
D03*
X00706094Y00690639D02*
D03*
X00718058D02*
D03*
X00730022D02*
D03*
Y00680352D02*
D03*
X00718058D02*
D03*
X00706304D02*
D03*
Y00670065D02*
D03*
X00718058D02*
D03*
X00730022D02*
D03*
X00706094Y00700926D02*
D03*
X00718058Y00700926D02*
D03*
X00730022D02*
D03*
X00822198Y00690639D02*
D03*
X00834162D02*
D03*
X00846127D02*
D03*
Y00680352D02*
D03*
X00834162D02*
D03*
X00822409D02*
D03*
Y00670065D02*
D03*
X00834162D02*
D03*
X00846127D02*
D03*
X00822198Y00700926D02*
D03*
X00834162Y00700926D02*
D03*
X00846127D02*
D03*
X00609387Y00701767D02*
D03*
X00597422D02*
D03*
X00585458Y00701767D02*
D03*
X00609387Y00670906D02*
D03*
X00597422D02*
D03*
X00585669D02*
D03*
Y00681193D02*
D03*
X00597422D02*
D03*
X00609387D02*
D03*
Y00691480D02*
D03*
X00597422D02*
D03*
X00585458D02*
D03*
X00714572Y00618236D02*
D03*
X00850971Y00510862D02*
D03*
X00836168Y00541485D02*
D03*
X00452005Y00591566D02*
D03*
X00550418Y00599306D02*
D03*
X00655248Y00408432D02*
D03*
X00645668D02*
D03*
X00635868D02*
D03*
X00514367Y00740918D02*
D03*
X00639318Y00488696D02*
D03*
X00500888Y00636016D02*
D03*
X00889024Y00532929D02*
D03*
X00879348D02*
D03*
X00869188Y00533400D02*
D03*
X00860298Y00533146D02*
D03*
X00780288Y00546780D02*
D03*
Y00564896D02*
D03*
X00626238Y00538288D02*
D03*
X00643417Y00537972D02*
D03*
X00655828Y00552911D02*
D03*
Y00567436D02*
D03*
X00845536Y00616268D02*
D03*
X00833167Y00615854D02*
D03*
X00705358Y00617377D02*
D03*
X00724408D02*
D03*
X00580898Y00618052D02*
D03*
X00599948Y00618236D02*
D03*
X00590163D02*
D03*
X00318008Y00723646D02*
D03*
Y00735076D02*
D03*
X00786638Y00509016D02*
D03*
X00473054Y00475996D02*
D03*
X00822198Y00516636D02*
D03*
X00439928Y00479806D02*
D03*
X00822198Y00526796D02*
D03*
X00467868Y00731450D02*
D03*
X00598678Y00539496D02*
D03*
X00441198Y00543306D02*
D03*
X00404849Y00544576D02*
D03*
X00478391Y00453976D02*
D03*
X00521208Y00415036D02*
D03*
X00498348Y00482346D02*
D03*
X00489458Y00528161D02*
D03*
X00432308Y00715226D02*
D03*
X00422965D02*
D03*
X00429465Y00580786D02*
D03*
X00596457Y00571246D02*
D03*
X00601218Y00456786D02*
D03*
Y00492675D02*
D03*
X00598678Y00524256D02*
D03*
X00334518Y00533576D02*
D03*
X00488185Y00464426D02*
D03*
X00426509D02*
D03*
X00406883Y00522926D02*
D03*
X00502155Y00719346D02*
D03*
X00450085Y00729936D02*
D03*
X00452955Y00695680D02*
D03*
X00400271Y00706476D02*
D03*
X00447740Y00670246D02*
D03*
X00291338Y00769366D02*
D03*
X00221190D02*
D03*
X00645201Y00437388D02*
D03*
X00654035Y00437556D02*
D03*
X00636535Y00437388D02*
D03*
X00874817Y00430825D02*
D03*
X00873808Y00449536D02*
D03*
X00874267Y00485675D02*
D03*
X00224190Y00732956D02*
D03*
X00217840Y00662260D02*
D03*
X00326328Y00561086D02*
D03*
X00246888Y00526974D02*
D03*
X00270438Y00481656D02*
D03*
X00203708Y00495656D02*
D03*
X00292608Y00492506D02*
D03*
X00237090Y00570836D02*
D03*
X00247670Y00458216D02*
D03*
X00398018Y00455126D02*
D03*
X00355798Y00444106D02*
D03*
X00290068Y00452236D02*
D03*
X00561722Y00624078D02*
D03*
M02*
