G04*
G04 #@! TF.GenerationSoftware,Altium Limited,Altium Designer,18.1.9 (240)*
G04*
G04 Layer_Color=3326705*
%FSAX44Y44*%
%MOMM*%
G71*
G01*
G75*
%ADD15C,0.2032*%
%ADD16C,0.2540*%
%ADD95C,0.3810*%
%ADD119C,0.0254*%
G54D15*
X00322326Y00171579D02*
Y00186814D01*
X00327404Y00181735D01*
X00332483Y00186814D01*
Y00171579D01*
X00337561D02*
X00342639D01*
X00340100D01*
Y00186814D01*
X00337561Y00184275D01*
X00360414Y00171579D02*
X00350257D01*
X00360414Y00181735D01*
Y00184275D01*
X00357874Y00186814D01*
X00352796D01*
X00350257Y00184275D01*
X00390884D02*
X00388345Y00186814D01*
X00383266D01*
X00380727Y00184275D01*
Y00181735D01*
X00383266Y00179196D01*
X00388345D01*
X00390884Y00176657D01*
Y00174118D01*
X00388345Y00171579D01*
X00383266D01*
X00380727Y00174118D01*
X00398501Y00184275D02*
Y00181735D01*
X00395962D01*
X00401040D01*
X00398501D01*
Y00174118D01*
X00401040Y00171579D01*
X00411197Y00181735D02*
X00416276D01*
X00418815Y00179196D01*
Y00171579D01*
X00411197D01*
X00408658Y00174118D01*
X00411197Y00176657D01*
X00418815D01*
X00434050Y00181735D02*
X00426432D01*
X00423893Y00179196D01*
Y00174118D01*
X00426432Y00171579D01*
X00434050D01*
X00439128D02*
Y00186814D01*
Y00176657D02*
X00446746Y00181735D01*
X00439128Y00176657D02*
X00446746Y00171579D01*
X00454363Y00181735D02*
Y00174118D01*
X00456903Y00171579D01*
X00464520D01*
Y00181735D01*
X00469598Y00166500D02*
Y00181735D01*
X00477216D01*
X00479755Y00179196D01*
Y00174118D01*
X00477216Y00171579D01*
X00469598D01*
X00885317Y00171450D02*
Y00186685D01*
X00895474Y00171450D01*
Y00186685D01*
X00900552Y00171450D02*
X00910709Y00181607D01*
X00915787Y00171450D02*
Y00181607D01*
X00920865Y00186685D01*
X00925944Y00181607D01*
Y00171450D01*
Y00179067D01*
X00915787D01*
X00746760Y00186685D02*
X00756917D01*
X00751838D01*
Y00171450D01*
X00761995Y00186685D02*
X00767073D01*
X00764534D01*
Y00171450D01*
X00761995D01*
X00767073D01*
X00774691Y00186685D02*
Y00171450D01*
X00782309D01*
X00784848Y00173989D01*
Y00184146D01*
X00782309Y00186685D01*
X00774691D01*
X00807700Y00171450D02*
Y00186685D01*
X00812779D02*
Y00171450D01*
X00805161Y00181607D02*
X00812779D01*
X00815318D01*
X00805161Y00176528D02*
X00815318D01*
X00820396Y00181607D02*
X00822935D01*
Y00179067D01*
X00820396D01*
Y00181607D01*
Y00173989D02*
X00822935D01*
Y00171450D01*
X00820396D01*
Y00173989D01*
X01474470Y00134530D02*
X01484627D01*
X01479548D01*
Y00119295D01*
X01499862Y00134530D02*
X01489705D01*
Y00119295D01*
X01499862D01*
X01489705Y00126912D02*
X01494783D01*
X01504940Y00134530D02*
X01515097Y00119295D01*
Y00134530D02*
X01504940Y00119295D01*
X01520175D02*
Y00129452D01*
X01525254Y00134530D01*
X01530332Y00129452D01*
Y00119295D01*
Y00126912D01*
X01520175D01*
X01545567Y00131991D02*
X01543028Y00134530D01*
X01537950D01*
X01535410Y00131991D01*
Y00129452D01*
X01537950Y00126912D01*
X01543028D01*
X01545567Y00124373D01*
Y00121834D01*
X01543028Y00119295D01*
X01537950D01*
X01535410Y00121834D01*
X01565880Y00134530D02*
X01570959D01*
X01568420D01*
Y00119295D01*
X01565880D01*
X01570959D01*
X01578576D02*
Y00134530D01*
X01588733Y00119295D01*
Y00134530D01*
X01603968Y00131991D02*
X01601429Y00134530D01*
X01596351D01*
X01593811Y00131991D01*
Y00129452D01*
X01596351Y00126912D01*
X01601429D01*
X01603968Y00124373D01*
Y00121834D01*
X01601429Y00119295D01*
X01596351D01*
X01593811Y00121834D01*
X01609046Y00134530D02*
X01619203D01*
X01614125D01*
Y00119295D01*
X01624281D02*
Y00134530D01*
X01631899D01*
X01634438Y00131991D01*
Y00126912D01*
X01631899Y00124373D01*
X01624281D01*
X01629360D02*
X01634438Y00119295D01*
X01639517Y00134530D02*
Y00121834D01*
X01642056Y00119295D01*
X01647134D01*
X01649673Y00121834D01*
Y00134530D01*
X01654752Y00119295D02*
Y00134530D01*
X01659830Y00129452D01*
X01664908Y00134530D01*
Y00119295D01*
X01680143Y00134530D02*
X01669987D01*
Y00119295D01*
X01680143D01*
X01669987Y00126912D02*
X01675065D01*
X01685222Y00119295D02*
Y00134530D01*
X01695379Y00119295D01*
Y00134530D01*
X01700457D02*
X01710614D01*
X01705535D01*
Y00119295D01*
X01725849Y00131991D02*
X01723309Y00134530D01*
X01718231D01*
X01715692Y00131991D01*
Y00129452D01*
X01718231Y00126912D01*
X01723309D01*
X01725849Y00124373D01*
Y00121834D01*
X01723309Y00119295D01*
X01718231D01*
X01715692Y00121834D01*
X01153287Y00131991D02*
X01155826Y00134530D01*
X01160904D01*
X01163444Y00131991D01*
Y00129452D01*
X01160904Y00126912D01*
X01158365D01*
X01160904D01*
X01163444Y00124373D01*
Y00121834D01*
X01160904Y00119295D01*
X01155826D01*
X01153287Y00121834D01*
X01168522Y00129452D02*
X01171061D01*
Y00126912D01*
X01168522D01*
Y00129452D01*
Y00121834D02*
X01171061D01*
Y00119295D01*
X01168522D01*
Y00121834D01*
X01191375Y00134530D02*
X01181218D01*
Y00126912D01*
X01186296Y00129452D01*
X01188836D01*
X01191375Y00126912D01*
Y00121834D01*
X01188836Y00119295D01*
X01183757D01*
X01181218Y00121834D01*
X01196453D02*
X01198992Y00119295D01*
X01204071D01*
X01206610Y00121834D01*
Y00131991D01*
X01204071Y00134530D01*
X01198992D01*
X01196453Y00131991D01*
Y00129452D01*
X01198992Y00126912D01*
X01206610D01*
X01211688Y00129452D02*
X01214227D01*
Y00126912D01*
X01211688D01*
Y00129452D01*
Y00121834D02*
X01214227D01*
Y00119295D01*
X01211688D01*
Y00121834D01*
X01232001Y00119295D02*
Y00134530D01*
X01224384Y00126912D01*
X01234541D01*
X01249776Y00134530D02*
X01239619D01*
Y00126912D01*
X01244697Y00129452D01*
X01247237D01*
X01249776Y00126912D01*
Y00121834D01*
X01247237Y00119295D01*
X01242158D01*
X01239619Y00121834D01*
X01270089Y00119295D02*
Y00134530D01*
X01277707D01*
X01280246Y00131991D01*
Y00126912D01*
X01277707Y00124373D01*
X01270089D01*
X01285324Y00119295D02*
Y00134530D01*
X01290403Y00129452D01*
X01295481Y00134530D01*
Y00119295D01*
X00117729D02*
Y00134530D01*
X00125346D01*
X00127886Y00131991D01*
Y00126912D01*
X00125346Y00124373D01*
X00117729D01*
X00132964Y00134530D02*
Y00119295D01*
X00143121D01*
X00155817Y00134530D02*
X00150738D01*
X00148199Y00131991D01*
Y00121834D01*
X00150738Y00119295D01*
X00155817D01*
X00158356Y00121834D01*
Y00131991D01*
X00155817Y00134530D01*
X00163434D02*
X00173591D01*
X00168513D01*
Y00119295D01*
X00193904D02*
Y00134530D01*
X00204061Y00119295D01*
Y00134530D01*
X00209139Y00119295D02*
Y00129452D01*
X00214218Y00134530D01*
X00219296Y00129452D01*
Y00119295D01*
Y00126912D01*
X00209139D01*
X00224375Y00119295D02*
Y00134530D01*
X00229453Y00129452D01*
X00234531Y00134530D01*
Y00119295D01*
X00249766Y00134530D02*
X00239610D01*
Y00119295D01*
X00249766D01*
X00239610Y00126912D02*
X00244688D01*
X00270080Y00124373D02*
X00280236D01*
X00270080Y00129452D02*
X00280236D01*
X00117729Y00186814D02*
Y00171579D01*
X00127886D01*
X00132964D02*
Y00181735D01*
X00138042Y00186814D01*
X00143121Y00181735D01*
Y00171579D01*
Y00179196D01*
X00132964D01*
X00148199Y00186814D02*
Y00184275D01*
X00153278Y00179196D01*
X00158356Y00184275D01*
Y00186814D01*
X00153278Y00179196D02*
Y00171579D01*
X00173591Y00186814D02*
X00163434D01*
Y00171579D01*
X00173591D01*
X00163434Y00179196D02*
X00168513D01*
X00178669Y00171579D02*
Y00186814D01*
X00186287D01*
X00188826Y00184275D01*
Y00179196D01*
X00186287Y00176657D01*
X00178669D01*
X00183748D02*
X00188826Y00171579D01*
X00209139D02*
Y00186814D01*
X00219296Y00171579D01*
Y00186814D01*
X00224375Y00171579D02*
Y00181735D01*
X00229453Y00186814D01*
X00234531Y00181735D01*
Y00171579D01*
Y00179196D01*
X00224375D01*
X00239610Y00171579D02*
Y00186814D01*
X00244688Y00181735D01*
X00249766Y00186814D01*
Y00171579D01*
X00265001Y00186814D02*
X00254845D01*
Y00171579D01*
X00265001D01*
X00254845Y00179196D02*
X00259923D01*
X00285315Y00176657D02*
X00295471D01*
X00285315Y00181735D02*
X00295471D01*
X00746760Y00238332D02*
Y00223097D01*
X00754378D01*
X00756917Y00225636D01*
Y00228175D01*
X00754378Y00230714D01*
X00746760D01*
X00754378D01*
X00756917Y00233253D01*
Y00235793D01*
X00754378Y00238332D01*
X00746760D01*
X00769613D02*
X00764534D01*
X00761995Y00235793D01*
Y00225636D01*
X00764534Y00223097D01*
X00769613D01*
X00772152Y00225636D01*
Y00235793D01*
X00769613Y00238332D01*
X00777230Y00223097D02*
Y00233253D01*
X00782309Y00238332D01*
X00787387Y00233253D01*
Y00223097D01*
Y00230714D01*
X00777230D01*
X00792465Y00223097D02*
Y00238332D01*
X00800083D01*
X00802622Y00235793D01*
Y00230714D01*
X00800083Y00228175D01*
X00792465D01*
X00797544D02*
X00802622Y00223097D01*
X00807700Y00238332D02*
Y00223097D01*
X00815318D01*
X00817857Y00225636D01*
Y00235793D01*
X00815318Y00238332D01*
X00807700D01*
X00840710Y00223097D02*
Y00238332D01*
X00845788D02*
Y00223097D01*
X00838170Y00233253D02*
X00845788D01*
X00848327D01*
X00838170Y00228175D02*
X00848327D01*
X00853406Y00233253D02*
X00855945D01*
Y00230714D01*
X00853406D01*
Y00233253D01*
Y00225636D02*
X00855945D01*
Y00223097D01*
X00853406D01*
Y00225636D01*
X00885317Y00223097D02*
Y00238332D01*
X00890395Y00233253D01*
X00895474Y00238332D01*
Y00223097D01*
X00900552Y00238332D02*
Y00223097D01*
X00908170D01*
X00910709Y00225636D01*
Y00235793D01*
X00908170Y00238332D01*
X00900552D01*
X00915787Y00235793D02*
X00918326Y00238332D01*
X00923405D01*
X00925944Y00235793D01*
Y00225636D01*
X00923405Y00223097D01*
X00918326D01*
X00915787Y00225636D01*
Y00235793D01*
X00941179Y00223097D02*
X00931022D01*
X00941179Y00233253D01*
Y00235793D01*
X00938640Y00238332D01*
X00933561D01*
X00931022Y00235793D01*
X00946257Y00225636D02*
X00948796Y00223097D01*
X00953875D01*
X00956414Y00225636D01*
Y00235793D01*
X00953875Y00238332D01*
X00948796D01*
X00946257Y00235793D01*
Y00233253D01*
X00948796Y00230714D01*
X00956414D01*
X01173861Y00223097D02*
Y00233253D01*
X01178939Y00238332D01*
X01184018Y00233253D01*
Y00223097D01*
Y00230714D01*
X01173861D01*
X00117729Y00223097D02*
Y00233253D01*
X00122807Y00238332D01*
X00127886Y00233253D01*
Y00223097D01*
Y00230714D01*
X00117729D01*
X00132964Y00238332D02*
Y00223097D01*
X00143121D01*
X00148199Y00238332D02*
Y00223097D01*
X00158356D01*
X00178669D02*
Y00233253D01*
X00183748Y00238332D01*
X00188826Y00233253D01*
Y00223097D01*
Y00230714D01*
X00178669D01*
X00193904Y00223097D02*
Y00238332D01*
X00201522D01*
X00204061Y00235793D01*
Y00230714D01*
X00201522Y00228175D01*
X00193904D01*
X00198983D02*
X00204061Y00223097D01*
X00209139Y00238332D02*
X00219296D01*
X00214218D01*
Y00223097D01*
X00224375Y00238332D02*
Y00223097D01*
X00229453Y00228175D01*
X00234531Y00223097D01*
Y00238332D01*
X00247227D02*
X00242149D01*
X00239610Y00235793D01*
Y00225636D01*
X00242149Y00223097D01*
X00247227D01*
X00249766Y00225636D01*
Y00235793D01*
X00247227Y00238332D01*
X00254845Y00223097D02*
Y00238332D01*
X00262462D01*
X00265001Y00235793D01*
Y00230714D01*
X00262462Y00228175D01*
X00254845D01*
X00259923D02*
X00265001Y00223097D01*
X00270080Y00238332D02*
Y00223097D01*
Y00228175D01*
X00280236Y00238332D01*
X00272619Y00230714D01*
X00280236Y00223097D01*
X00300550Y00238332D02*
Y00228175D01*
X00305628Y00223097D01*
X00310707Y00228175D01*
Y00238332D01*
X00315785D02*
X00320863D01*
X00318324D01*
Y00223097D01*
X00315785D01*
X00320863D01*
X00338638Y00238332D02*
X00328481D01*
Y00223097D01*
X00338638D01*
X00328481Y00230714D02*
X00333559D01*
X00343716Y00238332D02*
Y00223097D01*
X00348794Y00228175D01*
X00353873Y00223097D01*
Y00238332D01*
X00369108D02*
X00358951D01*
Y00223097D01*
X00369108D01*
X00358951Y00230714D02*
X00364029D01*
X00374186Y00238332D02*
Y00223097D01*
X00381804D01*
X00384343Y00225636D01*
Y00235793D01*
X00381804Y00238332D01*
X00374186D01*
X00414813D02*
X00404656D01*
Y00230714D01*
X00409734D01*
X00404656D01*
Y00223097D01*
X00419891D02*
Y00238332D01*
X00427509D01*
X00430048Y00235793D01*
Y00230714D01*
X00427509Y00228175D01*
X00419891D01*
X00424970D02*
X00430048Y00223097D01*
X00442744Y00238332D02*
X00437665D01*
X00435126Y00235793D01*
Y00225636D01*
X00437665Y00223097D01*
X00442744D01*
X00445283Y00225636D01*
Y00235793D01*
X00442744Y00238332D01*
X00450361Y00223097D02*
Y00238332D01*
X00455440Y00233253D01*
X00460518Y00238332D01*
Y00223097D01*
X00480832Y00238332D02*
X00490988D01*
X00485910D01*
Y00223097D01*
X00503684Y00238332D02*
X00498606D01*
X00496067Y00235793D01*
Y00225636D01*
X00498606Y00223097D01*
X00503684D01*
X00506223Y00225636D01*
Y00235793D01*
X00503684Y00238332D01*
X00511302Y00223097D02*
Y00238332D01*
X00518919D01*
X00521458Y00235793D01*
Y00230714D01*
X00518919Y00228175D01*
X00511302D01*
X00551929Y00235793D02*
X00549389Y00238332D01*
X00544311D01*
X00541772Y00235793D01*
Y00233253D01*
X00544311Y00230714D01*
X00549389D01*
X00551929Y00228175D01*
Y00225636D01*
X00549389Y00223097D01*
X00544311D01*
X00541772Y00225636D01*
X00557007Y00238332D02*
X00562085D01*
X00559546D01*
Y00223097D01*
X00557007D01*
X00562085D01*
X00569703Y00238332D02*
Y00223097D01*
X00577320D01*
X00579860Y00225636D01*
Y00235793D01*
X00577320Y00238332D01*
X00569703D01*
X00595095D02*
X00584938D01*
Y00223097D01*
X00595095D01*
X00584938Y00230714D02*
X00590016D01*
X00757425Y00131991D02*
X00754885Y00134530D01*
X00749807D01*
X00747268Y00131991D01*
Y00121834D01*
X00749807Y00119295D01*
X00754885D01*
X00757425Y00121834D01*
Y00126912D01*
X00752346D01*
X00772660Y00134530D02*
X00762503D01*
Y00119295D01*
X00772660D01*
X00762503Y00126912D02*
X00767581D01*
X00777738Y00119295D02*
Y00134530D01*
X00787895Y00119295D01*
Y00134530D01*
X00803130D02*
X00792973D01*
Y00119295D01*
X00803130D01*
X00792973Y00126912D02*
X00798052D01*
X00808208Y00119295D02*
Y00134530D01*
X00815826D01*
X00818365Y00131991D01*
Y00126912D01*
X00815826Y00124373D01*
X00808208D01*
X00813287D02*
X00818365Y00119295D01*
X00823443D02*
Y00129452D01*
X00828522Y00134530D01*
X00833600Y00129452D01*
Y00119295D01*
Y00126912D01*
X00823443D01*
X00838678Y00134530D02*
X00848835D01*
X00843757D01*
Y00119295D01*
X00864070Y00134530D02*
X00853913D01*
Y00119295D01*
X00864070D01*
X00853913Y00126912D02*
X00858992D01*
X00869149Y00134530D02*
Y00119295D01*
X00876766D01*
X00879305Y00121834D01*
Y00131991D01*
X00876766Y00134530D01*
X00869149D01*
X00945324Y00129452D02*
X00947863D01*
Y00126912D01*
X00945324D01*
Y00129452D01*
Y00121834D02*
X00947863D01*
Y00119295D01*
X00945324D01*
Y00121834D01*
X00968121Y00119295D02*
X00973199D01*
X00970660D01*
Y00134530D01*
X00968121Y00131991D01*
X00980817D02*
X00983356Y00134530D01*
X00988434D01*
X00990974Y00131991D01*
Y00121834D01*
X00988434Y00119295D01*
X00983356D01*
X00980817Y00121834D01*
Y00131991D01*
X00996052Y00119295D02*
X01006209Y00129452D01*
X01021444Y00119295D02*
X01011287D01*
X01021444Y00129452D01*
Y00131991D01*
X01018905Y00134530D01*
X01013826D01*
X01011287Y00131991D01*
X01036679Y00134530D02*
X01031600Y00131991D01*
X01026522Y00126912D01*
Y00121834D01*
X01029061Y00119295D01*
X01034140D01*
X01036679Y00121834D01*
Y00124373D01*
X01034140Y00126912D01*
X01026522D01*
X01041757Y00119295D02*
X01051914Y00129452D01*
X01067149Y00119295D02*
X01056992D01*
X01067149Y00129452D01*
Y00131991D01*
X01064610Y00134530D01*
X01059531D01*
X01056992Y00131991D01*
X01072227D02*
X01074766Y00134530D01*
X01079845D01*
X01082384Y00131991D01*
Y00121834D01*
X01079845Y00119295D01*
X01074766D01*
X01072227Y00121834D01*
Y00131991D01*
X01097619Y00119295D02*
X01087462D01*
X01097619Y00129452D01*
Y00131991D01*
X01095080Y00134530D01*
X01090002D01*
X01087462Y00131991D01*
X01102698D02*
X01105237Y00134530D01*
X01110315D01*
X01112854Y00131991D01*
Y00121834D01*
X01110315Y00119295D01*
X01105237D01*
X01102698Y00121834D01*
Y00131991D01*
X00322326Y00119295D02*
Y00134530D01*
X00327404Y00129452D01*
X00332483Y00134530D01*
Y00119295D01*
X00337561Y00134530D02*
Y00119295D01*
X00345179D01*
X00347718Y00121834D01*
Y00131991D01*
X00345179Y00134530D01*
X00337561D01*
X00352796Y00131991D02*
X00355335Y00134530D01*
X00360414D01*
X00362953Y00131991D01*
Y00121834D01*
X00360414Y00119295D01*
X00355335D01*
X00352796Y00121834D01*
Y00131991D01*
X00378188Y00119295D02*
X00368031D01*
X00378188Y00129452D01*
Y00131991D01*
X00375649Y00134530D01*
X00370570D01*
X00368031Y00131991D01*
X00383266Y00121834D02*
X00385806Y00119295D01*
X00390884D01*
X00393423Y00121834D01*
Y00131991D01*
X00390884Y00134530D01*
X00385806D01*
X00383266Y00131991D01*
Y00129452D01*
X00385806Y00126912D01*
X00393423D01*
X00398501Y00119295D02*
Y00129452D01*
X00403580Y00134530D01*
X00408658Y00129452D01*
Y00119295D01*
Y00126912D01*
X00398501D01*
X00413736Y00119295D02*
Y00121834D01*
X00416276D01*
Y00119295D01*
X00413736D01*
X00436589Y00131991D02*
X00434050Y00134530D01*
X00428971D01*
X00426432Y00131991D01*
Y00121834D01*
X00428971Y00119295D01*
X00434050D01*
X00436589Y00121834D01*
Y00126912D01*
X00431511D01*
X00441667Y00119295D02*
Y00134530D01*
X00446746Y00129452D01*
X00451824Y00134530D01*
Y00119295D01*
X00456903D02*
X00461981D01*
X00459442D01*
Y00134530D01*
X00456903Y00131991D01*
X00479755Y00119295D02*
X00469598D01*
X00479755Y00129452D01*
Y00131991D01*
X00477216Y00134530D01*
X00472137D01*
X00469598Y00131991D01*
X01099820Y00223097D02*
Y00238332D01*
X01107438D01*
X01109977Y00235793D01*
Y00230714D01*
X01107438Y00228175D01*
X01099820D01*
X01104898D02*
X01109977Y00223097D01*
X01125212Y00238332D02*
X01115055D01*
Y00223097D01*
X01125212D01*
X01115055Y00230714D02*
X01120133D01*
X01130290Y00238332D02*
Y00228175D01*
X01135368Y00223097D01*
X01140447Y00228175D01*
Y00238332D01*
X01145525Y00233253D02*
X01148064D01*
Y00230714D01*
X01145525D01*
Y00233253D01*
Y00225636D02*
X01148064D01*
Y00223097D01*
X01145525D01*
Y00225636D01*
X01322829Y00235793D02*
X01320289Y00238332D01*
X01315211D01*
X01312672Y00235793D01*
Y00233253D01*
X01315211Y00230714D01*
X01320289D01*
X01322829Y00228175D01*
Y00225636D01*
X01320289Y00223097D01*
X01315211D01*
X01312672Y00225636D01*
X01327907Y00238332D02*
Y00228175D01*
X01332985Y00223097D01*
X01338064Y00228175D01*
Y00238332D01*
X01343142Y00223097D02*
Y00238332D01*
X01353299Y00223097D01*
Y00238332D01*
X01373612Y00223097D02*
Y00238332D01*
X01381230D01*
X01383769Y00235793D01*
Y00230714D01*
X01381230Y00228175D01*
X01373612D01*
X01378691D02*
X01383769Y00223097D01*
X01399004Y00238332D02*
X01388847D01*
Y00223097D01*
X01399004D01*
X01388847Y00230714D02*
X01393926D01*
X01404082Y00238332D02*
Y00228175D01*
X01409161Y00223097D01*
X01414239Y00228175D01*
Y00238332D01*
X01419317Y00233253D02*
X01421857D01*
Y00230714D01*
X01419317D01*
Y00233253D01*
Y00225636D02*
X01421857D01*
Y00223097D01*
X01419317D01*
Y00225636D01*
X01441196Y00223097D02*
Y00238332D01*
X01451353Y00223097D01*
Y00238332D01*
X01458970Y00223097D02*
X01464049D01*
X01466588Y00225636D01*
Y00230714D01*
X01464049Y00233253D01*
X01458970D01*
X01456431Y00230714D01*
Y00225636D01*
X01458970Y00223097D01*
X01474205Y00235793D02*
Y00233253D01*
X01471666D01*
X01476745D01*
X01474205D01*
Y00225636D01*
X01476745Y00223097D01*
X01499597Y00238332D02*
X01504675D01*
X01502136D01*
Y00223097D01*
X01499597D01*
X01504675D01*
X01512293D02*
Y00233253D01*
X01519910D01*
X01522450Y00230714D01*
Y00223097D01*
X01542763Y00238332D02*
Y00228175D01*
X01547841Y00223097D01*
X01552920Y00228175D01*
Y00238332D01*
X01565616Y00223097D02*
X01560537D01*
X01557998Y00225636D01*
Y00230714D01*
X01560537Y00233253D01*
X01565616D01*
X01568155Y00230714D01*
Y00228175D01*
X01557998D01*
X01573233Y00233253D02*
Y00223097D01*
Y00228175D01*
X01575773Y00230714D01*
X01578312Y00233253D01*
X01580851D01*
X01588468Y00223097D02*
X01596086D01*
X01598625Y00225636D01*
X01596086Y00228175D01*
X01591008D01*
X01588468Y00230714D01*
X01591008Y00233253D01*
X01598625D01*
X01603703Y00223097D02*
X01608782D01*
X01606243D01*
Y00233253D01*
X01603703D01*
X01618938Y00223097D02*
X01624017D01*
X01626556Y00225636D01*
Y00230714D01*
X01624017Y00233253D01*
X01618938D01*
X01616399Y00230714D01*
Y00225636D01*
X01618938Y00223097D01*
X01631634D02*
Y00233253D01*
X01639252D01*
X01641791Y00230714D01*
Y00223097D01*
X01657026Y00235793D02*
X01654487Y00238332D01*
X01649409D01*
X01646870Y00235793D01*
Y00225636D01*
X01649409Y00223097D01*
X01654487D01*
X01657026Y00225636D01*
X01664644Y00223097D02*
X01669722D01*
X01672261Y00225636D01*
Y00230714D01*
X01669722Y00233253D01*
X01664644D01*
X01662104Y00230714D01*
Y00225636D01*
X01664644Y00223097D01*
X01677340D02*
Y00233253D01*
X01684957D01*
X01687496Y00230714D01*
Y00223097D01*
X01695114Y00235793D02*
Y00233253D01*
X01692575D01*
X01697653D01*
X01695114D01*
Y00225636D01*
X01697653Y00223097D01*
X01705271Y00233253D02*
Y00223097D01*
Y00228175D01*
X01707810Y00230714D01*
X01710349Y00233253D01*
X01712888D01*
X01723045Y00223097D02*
X01728123D01*
X01730662Y00225636D01*
Y00230714D01*
X01728123Y00233253D01*
X01723045D01*
X01720506Y00230714D01*
Y00225636D01*
X01723045Y00223097D01*
X01735741D02*
X01740819D01*
X01738280D01*
Y00238332D01*
X01735741D01*
G54D16*
X02644837Y02382261D02*
Y02367026D01*
X02654994D01*
X02662611Y02377183D02*
X02667690D01*
X02670229Y02374644D01*
Y02367026D01*
X02662611D01*
X02660072Y02369565D01*
X02662611Y02372104D01*
X02670229D01*
X02675307Y02377183D02*
Y02369565D01*
X02677846Y02367026D01*
X02685464D01*
Y02364487D01*
X02682924Y02361948D01*
X02680385D01*
X02685464Y02367026D02*
Y02377183D01*
X02698160Y02367026D02*
X02693081D01*
X02690542Y02369565D01*
Y02374644D01*
X02693081Y02377183D01*
X02698160D01*
X02700699Y02374644D01*
Y02372104D01*
X02690542D01*
X02705777Y02377183D02*
Y02367026D01*
Y02372104D01*
X02708316Y02374644D01*
X02710856Y02377183D01*
X02713395D01*
X02644837Y02031746D02*
X02649915D01*
X02647376D01*
Y02046981D01*
X02644837Y02044442D01*
X02657533Y02031746D02*
X02662611D01*
X02660072D01*
Y02046981D01*
X02657533Y02044442D01*
X02644837Y02062226D02*
X02649915D01*
X02647376D01*
Y02077461D01*
X02644837Y02074922D01*
X02657533D02*
X02660072Y02077461D01*
X02665150D01*
X02667690Y02074922D01*
Y02064765D01*
X02665150Y02062226D01*
X02660072D01*
X02657533Y02064765D01*
Y02074922D01*
X02644837Y02095245D02*
X02647376Y02092706D01*
X02652455D01*
X02654994Y02095245D01*
Y02105402D01*
X02652455Y02107941D01*
X02647376D01*
X02644837Y02105402D01*
Y02102863D01*
X02647376Y02100323D01*
X02654994D01*
X02644837Y02135882D02*
X02647376Y02138421D01*
X02652455D01*
X02654994Y02135882D01*
Y02133343D01*
X02652455Y02130804D01*
X02654994Y02128264D01*
Y02125725D01*
X02652455Y02123186D01*
X02647376D01*
X02644837Y02125725D01*
Y02128264D01*
X02647376Y02130804D01*
X02644837Y02133343D01*
Y02135882D01*
X02647376Y02130804D02*
X02652455D01*
X02644837Y02168901D02*
X02654994D01*
Y02166362D01*
X02644837Y02156205D01*
Y02153666D01*
X02654994Y02199381D02*
X02649915Y02196842D01*
X02644837Y02191763D01*
Y02186685D01*
X02647376Y02184146D01*
X02652455D01*
X02654994Y02186685D01*
Y02189224D01*
X02652455Y02191763D01*
X02644837D01*
X02654994Y02229861D02*
X02644837D01*
Y02222243D01*
X02649915Y02224783D01*
X02652455D01*
X02654994Y02222243D01*
Y02217165D01*
X02652455Y02214626D01*
X02647376D01*
X02644837Y02217165D01*
X02652455Y02245106D02*
Y02260341D01*
X02644837Y02252724D01*
X02654994D01*
X02644837Y02288282D02*
X02647376Y02290821D01*
X02652455D01*
X02654994Y02288282D01*
Y02285743D01*
X02652455Y02283203D01*
X02649915D01*
X02652455D01*
X02654994Y02280664D01*
Y02278125D01*
X02652455Y02275586D01*
X02647376D01*
X02644837Y02278125D01*
X02654994Y02306066D02*
X02644837D01*
X02654994Y02316223D01*
Y02318762D01*
X02652455Y02321301D01*
X02647376D01*
X02644837Y02318762D01*
Y02336546D02*
X02649915D01*
X02647376D01*
Y02351781D01*
X02644837Y02349242D01*
X02748955Y02367026D02*
Y02382261D01*
X02759112Y02367026D01*
Y02382261D01*
X02766729Y02377183D02*
X02771807D01*
X02774347Y02374644D01*
Y02367026D01*
X02766729D01*
X02764190Y02369565D01*
X02766729Y02372104D01*
X02774347D01*
X02779425Y02367026D02*
Y02377183D01*
X02781964D01*
X02784503Y02374644D01*
Y02367026D01*
Y02374644D01*
X02787043Y02377183D01*
X02789582Y02374644D01*
Y02367026D01*
X02802278D02*
X02797199D01*
X02794660Y02369565D01*
Y02374644D01*
X02797199Y02377183D01*
X02802278D01*
X02804817Y02374644D01*
Y02372104D01*
X02794660D01*
X02748955Y02046981D02*
Y02031746D01*
X02756572D01*
X02759112Y02034285D01*
Y02036824D01*
X02756572Y02039364D01*
X02748955D01*
X02756572D01*
X02759112Y02041903D01*
Y02044442D01*
X02756572Y02046981D01*
X02748955D01*
X02766729Y02031746D02*
X02771807D01*
X02774347Y02034285D01*
Y02039364D01*
X02771807Y02041903D01*
X02766729D01*
X02764190Y02039364D01*
Y02034285D01*
X02766729Y02031746D01*
X02781964Y02044442D02*
Y02041903D01*
X02779425D01*
X02784503D01*
X02781964D01*
Y02034285D01*
X02784503Y02031746D01*
X02794660Y02044442D02*
Y02041903D01*
X02792121D01*
X02797199D01*
X02794660D01*
Y02034285D01*
X02797199Y02031746D01*
X02807356D02*
X02812434D01*
X02814973Y02034285D01*
Y02039364D01*
X02812434Y02041903D01*
X02807356D01*
X02804817Y02039364D01*
Y02034285D01*
X02807356Y02031746D01*
X02820052D02*
Y02041903D01*
X02822591D01*
X02825130Y02039364D01*
Y02031746D01*
Y02039364D01*
X02827669Y02041903D01*
X02830208Y02039364D01*
Y02031746D01*
X02858139Y02046981D02*
X02853061D01*
X02850522Y02044442D01*
Y02034285D01*
X02853061Y02031746D01*
X02858139D01*
X02860679Y02034285D01*
Y02044442D01*
X02858139Y02046981D01*
X02865757Y02041903D02*
X02870835Y02031746D01*
X02875914Y02041903D01*
X02888610Y02031746D02*
X02883531D01*
X02880992Y02034285D01*
Y02039364D01*
X02883531Y02041903D01*
X02888610D01*
X02891149Y02039364D01*
Y02036824D01*
X02880992D01*
X02896227Y02041903D02*
Y02031746D01*
Y02036824D01*
X02898766Y02039364D01*
X02901306Y02041903D01*
X02903845D01*
X02911462Y02031746D02*
X02916541D01*
X02914001D01*
Y02046981D01*
X02911462D01*
X02926697Y02041903D02*
X02931776D01*
X02934315Y02039364D01*
Y02031746D01*
X02926697D01*
X02924158Y02034285D01*
X02926697Y02036824D01*
X02934315D01*
X02939393Y02041903D02*
Y02034285D01*
X02941932Y02031746D01*
X02949550D01*
Y02029207D01*
X02947011Y02026668D01*
X02944471D01*
X02949550Y02031746D02*
Y02041903D01*
X02748955Y02077461D02*
Y02062226D01*
X02756572D01*
X02759112Y02064765D01*
Y02067304D01*
X02756572Y02069843D01*
X02748955D01*
X02756572D01*
X02759112Y02072383D01*
Y02074922D01*
X02756572Y02077461D01*
X02748955D01*
X02766729Y02062226D02*
X02771807D01*
X02774347Y02064765D01*
Y02069843D01*
X02771807Y02072383D01*
X02766729D01*
X02764190Y02069843D01*
Y02064765D01*
X02766729Y02062226D01*
X02781964Y02074922D02*
Y02072383D01*
X02779425D01*
X02784503D01*
X02781964D01*
Y02064765D01*
X02784503Y02062226D01*
X02794660Y02074922D02*
Y02072383D01*
X02792121D01*
X02797199D01*
X02794660D01*
Y02064765D01*
X02797199Y02062226D01*
X02807356D02*
X02812434D01*
X02814973Y02064765D01*
Y02069843D01*
X02812434Y02072383D01*
X02807356D01*
X02804817Y02069843D01*
Y02064765D01*
X02807356Y02062226D01*
X02820052D02*
Y02072383D01*
X02822591D01*
X02825130Y02069843D01*
Y02062226D01*
Y02069843D01*
X02827669Y02072383D01*
X02830208Y02069843D01*
Y02062226D01*
X02860679Y02074922D02*
X02858139Y02077461D01*
X02853061D01*
X02850522Y02074922D01*
Y02072383D01*
X02853061Y02069843D01*
X02858139D01*
X02860679Y02067304D01*
Y02064765D01*
X02858139Y02062226D01*
X02853061D01*
X02850522Y02064765D01*
X02868296Y02062226D02*
X02873375D01*
X02875914Y02064765D01*
Y02069843D01*
X02873375Y02072383D01*
X02868296D01*
X02865757Y02069843D01*
Y02064765D01*
X02868296Y02062226D01*
X02880992D02*
X02886070D01*
X02883531D01*
Y02077461D01*
X02880992D01*
X02903845D02*
Y02062226D01*
X02896227D01*
X02893688Y02064765D01*
Y02069843D01*
X02896227Y02072383D01*
X02903845D01*
X02916541Y02062226D02*
X02911462D01*
X02908923Y02064765D01*
Y02069843D01*
X02911462Y02072383D01*
X02916541D01*
X02919080Y02069843D01*
Y02067304D01*
X02908923D01*
X02924158Y02072383D02*
Y02062226D01*
Y02067304D01*
X02926697Y02069843D01*
X02929236Y02072383D01*
X02931776D01*
X02748955Y02107941D02*
Y02092706D01*
X02756572D01*
X02759112Y02095245D01*
Y02097784D01*
X02756572Y02100323D01*
X02748955D01*
X02756572D01*
X02759112Y02102863D01*
Y02105402D01*
X02756572Y02107941D01*
X02748955D01*
X02766729Y02092706D02*
X02771807D01*
X02774347Y02095245D01*
Y02100323D01*
X02771807Y02102863D01*
X02766729D01*
X02764190Y02100323D01*
Y02095245D01*
X02766729Y02092706D01*
X02781964Y02105402D02*
Y02102863D01*
X02779425D01*
X02784503D01*
X02781964D01*
Y02095245D01*
X02784503Y02092706D01*
X02794660Y02105402D02*
Y02102863D01*
X02792121D01*
X02797199D01*
X02794660D01*
Y02095245D01*
X02797199Y02092706D01*
X02807356D02*
X02812434D01*
X02814973Y02095245D01*
Y02100323D01*
X02812434Y02102863D01*
X02807356D01*
X02804817Y02100323D01*
Y02095245D01*
X02807356Y02092706D01*
X02820052D02*
Y02102863D01*
X02822591D01*
X02825130Y02100323D01*
Y02092706D01*
Y02100323D01*
X02827669Y02102863D01*
X02830208Y02100323D01*
Y02092706D01*
X02850522Y02107941D02*
Y02092706D01*
X02860679D01*
X02868296Y02102863D02*
X02873375D01*
X02875914Y02100323D01*
Y02092706D01*
X02868296D01*
X02865757Y02095245D01*
X02868296Y02097784D01*
X02875914D01*
X02880992Y02102863D02*
Y02095245D01*
X02883531Y02092706D01*
X02891149D01*
Y02090167D01*
X02888610Y02087628D01*
X02886070D01*
X02891149Y02092706D02*
Y02102863D01*
X02903845Y02092706D02*
X02898766D01*
X02896227Y02095245D01*
Y02100323D01*
X02898766Y02102863D01*
X02903845D01*
X02906384Y02100323D01*
Y02097784D01*
X02896227D01*
X02911462Y02102863D02*
Y02092706D01*
Y02097784D01*
X02914001Y02100323D01*
X02916541Y02102863D01*
X02919080D01*
X02748955Y02138421D02*
Y02123186D01*
X02756572D01*
X02759112Y02125725D01*
Y02135882D01*
X02756572Y02138421D01*
X02748955D01*
X02764190Y02123186D02*
X02769268D01*
X02766729D01*
Y02133343D01*
X02764190D01*
X02784503Y02123186D02*
X02779425D01*
X02776886Y02125725D01*
Y02130804D01*
X02779425Y02133343D01*
X02784503D01*
X02787043Y02130804D01*
Y02128264D01*
X02776886D01*
X02792121Y02123186D02*
X02797199D01*
X02794660D01*
Y02138421D01*
X02792121D01*
X02812434Y02123186D02*
X02807356D01*
X02804817Y02125725D01*
Y02130804D01*
X02807356Y02133343D01*
X02812434D01*
X02814973Y02130804D01*
Y02128264D01*
X02804817D01*
X02830208Y02133343D02*
X02822591D01*
X02820052Y02130804D01*
Y02125725D01*
X02822591Y02123186D01*
X02830208D01*
X02837826Y02135882D02*
Y02133343D01*
X02835287D01*
X02840365D01*
X02837826D01*
Y02125725D01*
X02840365Y02123186D01*
X02847983Y02133343D02*
Y02123186D01*
Y02128264D01*
X02850522Y02130804D01*
X02853061Y02133343D01*
X02855600D01*
X02863218Y02123186D02*
X02868296D01*
X02865757D01*
Y02133343D01*
X02863218D01*
X02886070D02*
X02878453D01*
X02875914Y02130804D01*
Y02125725D01*
X02878453Y02123186D01*
X02886070D01*
X02906384Y02135882D02*
X02908923Y02138421D01*
X02914001D01*
X02916541Y02135882D01*
Y02133343D01*
X02914001Y02130804D01*
X02911462D01*
X02914001D01*
X02916541Y02128264D01*
Y02125725D01*
X02914001Y02123186D01*
X02908923D01*
X02906384Y02125725D01*
X02759112Y02166362D02*
X02756572Y02168901D01*
X02751494D01*
X02748955Y02166362D01*
Y02163823D01*
X02751494Y02161284D01*
X02756572D01*
X02759112Y02158744D01*
Y02156205D01*
X02756572Y02153666D01*
X02751494D01*
X02748955Y02156205D01*
X02764190Y02153666D02*
X02769268D01*
X02766729D01*
Y02163823D01*
X02764190D01*
X02781964Y02148588D02*
X02784503D01*
X02787043Y02151127D01*
Y02163823D01*
X02779425D01*
X02776886Y02161284D01*
Y02156205D01*
X02779425Y02153666D01*
X02787043D01*
X02792121D02*
Y02163823D01*
X02799738D01*
X02802278Y02161284D01*
Y02153666D01*
X02809895Y02163823D02*
X02814973D01*
X02817513Y02161284D01*
Y02153666D01*
X02809895D01*
X02807356Y02156205D01*
X02809895Y02158744D01*
X02817513D01*
X02822591Y02153666D02*
X02827669D01*
X02825130D01*
Y02168901D01*
X02822591D01*
X02850522D02*
Y02153666D01*
X02860679D01*
X02868296Y02163823D02*
X02873375D01*
X02875914Y02161284D01*
Y02153666D01*
X02868296D01*
X02865757Y02156205D01*
X02868296Y02158744D01*
X02875914D01*
X02880992Y02163823D02*
Y02156205D01*
X02883531Y02153666D01*
X02891149D01*
Y02151127D01*
X02888610Y02148588D01*
X02886070D01*
X02891149Y02153666D02*
Y02163823D01*
X02903845Y02153666D02*
X02898766D01*
X02896227Y02156205D01*
Y02161284D01*
X02898766Y02163823D01*
X02903845D01*
X02906384Y02161284D01*
Y02158744D01*
X02896227D01*
X02911462Y02163823D02*
Y02153666D01*
Y02158744D01*
X02914001Y02161284D01*
X02916541Y02163823D01*
X02919080D01*
X02952089Y02153666D02*
X02941932D01*
X02952089Y02163823D01*
Y02166362D01*
X02949550Y02168901D01*
X02944471D01*
X02941932Y02166362D01*
X02748955Y02199381D02*
Y02184146D01*
X02756572D01*
X02759112Y02186685D01*
Y02196842D01*
X02756572Y02199381D01*
X02748955D01*
X02764190Y02184146D02*
X02769268D01*
X02766729D01*
Y02194303D01*
X02764190D01*
X02784503Y02184146D02*
X02779425D01*
X02776886Y02186685D01*
Y02191763D01*
X02779425Y02194303D01*
X02784503D01*
X02787043Y02191763D01*
Y02189224D01*
X02776886D01*
X02792121Y02184146D02*
X02797199D01*
X02794660D01*
Y02199381D01*
X02792121D01*
X02812434Y02184146D02*
X02807356D01*
X02804817Y02186685D01*
Y02191763D01*
X02807356Y02194303D01*
X02812434D01*
X02814973Y02191763D01*
Y02189224D01*
X02804817D01*
X02830208Y02194303D02*
X02822591D01*
X02820052Y02191763D01*
Y02186685D01*
X02822591Y02184146D01*
X02830208D01*
X02837826Y02196842D02*
Y02194303D01*
X02835287D01*
X02840365D01*
X02837826D01*
Y02186685D01*
X02840365Y02184146D01*
X02847983Y02194303D02*
Y02184146D01*
Y02189224D01*
X02850522Y02191763D01*
X02853061Y02194303D01*
X02855600D01*
X02863218Y02184146D02*
X02868296D01*
X02865757D01*
Y02194303D01*
X02863218D01*
X02886070D02*
X02878453D01*
X02875914Y02191763D01*
Y02186685D01*
X02878453Y02184146D01*
X02886070D01*
X02916541D02*
X02906384D01*
X02916541Y02194303D01*
Y02196842D01*
X02914001Y02199381D01*
X02908923D01*
X02906384Y02196842D01*
X02759112Y02227322D02*
X02756572Y02229861D01*
X02751494D01*
X02748955Y02227322D01*
Y02224783D01*
X02751494Y02222243D01*
X02756572D01*
X02759112Y02219704D01*
Y02217165D01*
X02756572Y02214626D01*
X02751494D01*
X02748955Y02217165D01*
X02764190Y02214626D02*
X02769268D01*
X02766729D01*
Y02224783D01*
X02764190D01*
X02781964Y02209548D02*
X02784503D01*
X02787043Y02212087D01*
Y02224783D01*
X02779425D01*
X02776886Y02222243D01*
Y02217165D01*
X02779425Y02214626D01*
X02787043D01*
X02792121D02*
Y02224783D01*
X02799738D01*
X02802278Y02222243D01*
Y02214626D01*
X02809895Y02224783D02*
X02814973D01*
X02817513Y02222243D01*
Y02214626D01*
X02809895D01*
X02807356Y02217165D01*
X02809895Y02219704D01*
X02817513D01*
X02822591Y02214626D02*
X02827669D01*
X02825130D01*
Y02229861D01*
X02822591D01*
X02850522D02*
Y02214626D01*
X02860679D01*
X02868296Y02224783D02*
X02873375D01*
X02875914Y02222243D01*
Y02214626D01*
X02868296D01*
X02865757Y02217165D01*
X02868296Y02219704D01*
X02875914D01*
X02880992Y02224783D02*
Y02217165D01*
X02883531Y02214626D01*
X02891149D01*
Y02212087D01*
X02888610Y02209548D01*
X02886070D01*
X02891149Y02214626D02*
Y02224783D01*
X02903845Y02214626D02*
X02898766D01*
X02896227Y02217165D01*
Y02222243D01*
X02898766Y02224783D01*
X02903845D01*
X02906384Y02222243D01*
Y02219704D01*
X02896227D01*
X02911462Y02224783D02*
Y02214626D01*
Y02219704D01*
X02914001Y02222243D01*
X02916541Y02224783D01*
X02919080D01*
X02941932Y02214626D02*
X02947011D01*
X02944471D01*
Y02229861D01*
X02941932Y02227322D01*
X02748955Y02260341D02*
Y02245106D01*
X02756572D01*
X02759112Y02247645D01*
Y02257802D01*
X02756572Y02260341D01*
X02748955D01*
X02764190Y02245106D02*
X02769268D01*
X02766729D01*
Y02255263D01*
X02764190D01*
X02784503Y02245106D02*
X02779425D01*
X02776886Y02247645D01*
Y02252724D01*
X02779425Y02255263D01*
X02784503D01*
X02787043Y02252724D01*
Y02250184D01*
X02776886D01*
X02792121Y02245106D02*
X02797199D01*
X02794660D01*
Y02260341D01*
X02792121D01*
X02812434Y02245106D02*
X02807356D01*
X02804817Y02247645D01*
Y02252724D01*
X02807356Y02255263D01*
X02812434D01*
X02814973Y02252724D01*
Y02250184D01*
X02804817D01*
X02830208Y02255263D02*
X02822591D01*
X02820052Y02252724D01*
Y02247645D01*
X02822591Y02245106D01*
X02830208D01*
X02837826Y02257802D02*
Y02255263D01*
X02835287D01*
X02840365D01*
X02837826D01*
Y02247645D01*
X02840365Y02245106D01*
X02847983Y02255263D02*
Y02245106D01*
Y02250184D01*
X02850522Y02252724D01*
X02853061Y02255263D01*
X02855600D01*
X02863218Y02245106D02*
X02868296D01*
X02865757D01*
Y02255263D01*
X02863218D01*
X02886070D02*
X02878453D01*
X02875914Y02252724D01*
Y02247645D01*
X02878453Y02245106D01*
X02886070D01*
X02906384D02*
X02911462D01*
X02908923D01*
Y02260341D01*
X02906384Y02257802D01*
X02748955Y02290821D02*
X02759112D01*
X02754033D01*
Y02275586D01*
X02766729D02*
X02771807D01*
X02774347Y02278125D01*
Y02283203D01*
X02771807Y02285743D01*
X02766729D01*
X02764190Y02283203D01*
Y02278125D01*
X02766729Y02275586D01*
X02779425Y02270508D02*
Y02285743D01*
X02787043D01*
X02789582Y02283203D01*
Y02278125D01*
X02787043Y02275586D01*
X02779425D01*
X02809895Y02290821D02*
Y02275586D01*
X02820052D01*
X02827669Y02285743D02*
X02832748D01*
X02835287Y02283203D01*
Y02275586D01*
X02827669D01*
X02825130Y02278125D01*
X02827669Y02280664D01*
X02835287D01*
X02840365Y02285743D02*
Y02278125D01*
X02842904Y02275586D01*
X02850522D01*
Y02273047D01*
X02847983Y02270508D01*
X02845444D01*
X02850522Y02275586D02*
Y02285743D01*
X02863218Y02275586D02*
X02858140D01*
X02855600Y02278125D01*
Y02283203D01*
X02858140Y02285743D01*
X02863218D01*
X02865757Y02283203D01*
Y02280664D01*
X02855600D01*
X02870835Y02285743D02*
Y02275586D01*
Y02280664D01*
X02873375Y02283203D01*
X02875914Y02285743D01*
X02878453D01*
X02748955Y02321301D02*
X02759112D01*
X02754033D01*
Y02306066D01*
X02766729D02*
X02771807D01*
X02774347Y02308605D01*
Y02313683D01*
X02771807Y02316223D01*
X02766729D01*
X02764190Y02313683D01*
Y02308605D01*
X02766729Y02306066D01*
X02779425Y02300988D02*
Y02316223D01*
X02787043D01*
X02789582Y02313683D01*
Y02308605D01*
X02787043Y02306066D01*
X02779425D01*
X02820052Y02318762D02*
X02817513Y02321301D01*
X02812434D01*
X02809895Y02318762D01*
Y02316223D01*
X02812434Y02313683D01*
X02817513D01*
X02820052Y02311144D01*
Y02308605D01*
X02817513Y02306066D01*
X02812434D01*
X02809895Y02308605D01*
X02827669Y02306066D02*
X02832748D01*
X02835287Y02308605D01*
Y02313683D01*
X02832748Y02316223D01*
X02827669D01*
X02825130Y02313683D01*
Y02308605D01*
X02827669Y02306066D01*
X02840365D02*
X02845444D01*
X02842904D01*
Y02321301D01*
X02840365D01*
X02863218D02*
Y02306066D01*
X02855600D01*
X02853061Y02308605D01*
Y02313683D01*
X02855600Y02316223D01*
X02863218D01*
X02875914Y02306066D02*
X02870835D01*
X02868296Y02308605D01*
Y02313683D01*
X02870835Y02316223D01*
X02875914D01*
X02878453Y02313683D01*
Y02311144D01*
X02868296D01*
X02883531Y02316223D02*
Y02306066D01*
Y02311144D01*
X02886070Y02313683D01*
X02888610Y02316223D01*
X02891149D01*
X02748955Y02351781D02*
X02759112D01*
X02754033D01*
Y02336546D01*
X02766729D02*
X02771807D01*
X02774347Y02339085D01*
Y02344164D01*
X02771807Y02346703D01*
X02766729D01*
X02764190Y02344164D01*
Y02339085D01*
X02766729Y02336546D01*
X02779425Y02331468D02*
Y02346703D01*
X02787043D01*
X02789582Y02344164D01*
Y02339085D01*
X02787043Y02336546D01*
X02779425D01*
X02817513Y02351781D02*
X02812434D01*
X02809895Y02349242D01*
Y02339085D01*
X02812434Y02336546D01*
X02817513D01*
X02820052Y02339085D01*
Y02349242D01*
X02817513Y02351781D01*
X02825130Y02346703D02*
X02830208Y02336546D01*
X02835287Y02346703D01*
X02847983Y02336546D02*
X02842904D01*
X02840365Y02339085D01*
Y02344164D01*
X02842904Y02346703D01*
X02847983D01*
X02850522Y02344164D01*
Y02341624D01*
X02840365D01*
X02855600Y02346703D02*
Y02336546D01*
Y02341624D01*
X02858140Y02344164D01*
X02860679Y02346703D01*
X02863218D01*
X02870835Y02336546D02*
X02875914D01*
X02873375D01*
Y02351781D01*
X02870835D01*
X02886070Y02346703D02*
X02891149D01*
X02893688Y02344164D01*
Y02336546D01*
X02886070D01*
X02883531Y02339085D01*
X02886070Y02341624D01*
X02893688D01*
X02898766Y02346703D02*
Y02339085D01*
X02901306Y02336546D01*
X02908923D01*
Y02334007D01*
X02906384Y02331468D01*
X02903845D01*
X02908923Y02336546D02*
Y02346703D01*
X02987649Y02367026D02*
Y02382261D01*
X02992727Y02377183D01*
X02997806Y02382261D01*
Y02367026D01*
X03005423Y02377183D02*
X03010502D01*
X03013041Y02374644D01*
Y02367026D01*
X03005423D01*
X03002884Y02369565D01*
X03005423Y02372104D01*
X03013041D01*
X03020658Y02379722D02*
Y02377183D01*
X03018119D01*
X03023198D01*
X03020658D01*
Y02369565D01*
X03023198Y02367026D01*
X03038433D02*
X03033354D01*
X03030815Y02369565D01*
Y02374644D01*
X03033354Y02377183D01*
X03038433D01*
X03040972Y02374644D01*
Y02372104D01*
X03030815D01*
X03046050Y02377183D02*
Y02367026D01*
Y02372104D01*
X03048589Y02374644D01*
X03051129Y02377183D01*
X03053668D01*
X03061285Y02367026D02*
X03066364D01*
X03063824D01*
Y02377183D01*
X03061285D01*
X03076520D02*
X03081599D01*
X03084138Y02374644D01*
Y02367026D01*
X03076520D01*
X03073981Y02369565D01*
X03076520Y02372104D01*
X03084138D01*
X03089216Y02367026D02*
X03094294D01*
X03091755D01*
Y02382261D01*
X03089216D01*
X02997806Y02074922D02*
X02995267Y02077461D01*
X02990188D01*
X02987649Y02074922D01*
Y02072383D01*
X02990188Y02069843D01*
X02995267D01*
X02997806Y02067304D01*
Y02064765D01*
X02995267Y02062226D01*
X02990188D01*
X02987649Y02064765D01*
X03005423Y02062226D02*
X03010502D01*
X03013041Y02064765D01*
Y02069843D01*
X03010502Y02072383D01*
X03005423D01*
X03002884Y02069843D01*
Y02064765D01*
X03005423Y02062226D01*
X03018119D02*
X03023198D01*
X03020658D01*
Y02077461D01*
X03018119D01*
X03040972D02*
Y02062226D01*
X03033354D01*
X03030815Y02064765D01*
Y02069843D01*
X03033354Y02072383D01*
X03040972D01*
X03053668Y02062226D02*
X03048589D01*
X03046050Y02064765D01*
Y02069843D01*
X03048589Y02072383D01*
X03053668D01*
X03056207Y02069843D01*
Y02067304D01*
X03046050D01*
X03061285Y02072383D02*
Y02062226D01*
Y02067304D01*
X03063824Y02069843D01*
X03066364Y02072383D01*
X03068903D01*
X03091755Y02062226D02*
Y02077461D01*
X03099373D01*
X03101912Y02074922D01*
Y02069843D01*
X03099373Y02067304D01*
X03091755D01*
X03096834D02*
X03101912Y02062226D01*
X03114608D02*
X03109530D01*
X03106990Y02064765D01*
Y02069843D01*
X03109530Y02072383D01*
X03114608D01*
X03117147Y02069843D01*
Y02067304D01*
X03106990D01*
X03122226Y02062226D02*
X03129843D01*
X03132382Y02064765D01*
X03129843Y02067304D01*
X03124765D01*
X03122226Y02069843D01*
X03124765Y02072383D01*
X03132382D01*
X03137461Y02062226D02*
X03142539D01*
X03140000D01*
Y02072383D01*
X03137461D01*
X03150157Y02062226D02*
X03157774D01*
X03160313Y02064765D01*
X03157774Y02067304D01*
X03152696D01*
X03150157Y02069843D01*
X03152696Y02072383D01*
X03160313D01*
X03167931Y02074922D02*
Y02072383D01*
X03165392D01*
X03170470D01*
X03167931D01*
Y02064765D01*
X03170470Y02062226D01*
X02997806Y02105402D02*
X02995267Y02107941D01*
X02990188D01*
X02987649Y02105402D01*
Y02095245D01*
X02990188Y02092706D01*
X02995267D01*
X02997806Y02095245D01*
X03005423Y02092706D02*
X03010502D01*
X03013041Y02095245D01*
Y02100323D01*
X03010502Y02102863D01*
X03005423D01*
X03002884Y02100323D01*
Y02095245D01*
X03005423Y02092706D01*
X03018119Y02087628D02*
Y02102863D01*
X03025737D01*
X03028276Y02100323D01*
Y02095245D01*
X03025737Y02092706D01*
X03018119D01*
X03033354Y02087628D02*
Y02102863D01*
X03040972D01*
X03043511Y02100323D01*
Y02095245D01*
X03040972Y02092706D01*
X03033354D01*
X03056207D02*
X03051129D01*
X03048589Y02095245D01*
Y02100323D01*
X03051129Y02102863D01*
X03056207D01*
X03058746Y02100323D01*
Y02097784D01*
X03048589D01*
X03063824Y02102863D02*
Y02092706D01*
Y02097784D01*
X03066364Y02100323D01*
X03068903Y02102863D01*
X03071442D01*
X02997806Y02138421D02*
X02987649D01*
Y02130804D01*
X02992727D01*
X02987649D01*
Y02123186D01*
X03002884D02*
Y02138421D01*
X03010502D01*
X03013041Y02135882D01*
Y02130804D01*
X03010502Y02128264D01*
X03002884D01*
X03007963D02*
X03013041Y02123186D01*
X03018119Y02130804D02*
X03028276D01*
X03040972Y02123186D02*
Y02138421D01*
X03033354Y02130804D01*
X03043511D01*
X02997806Y02166362D02*
X02995267Y02168901D01*
X02990188D01*
X02987649Y02166362D01*
Y02156205D01*
X02990188Y02153666D01*
X02995267D01*
X02997806Y02156205D01*
X03005423Y02153666D02*
X03010502D01*
X03013041Y02156205D01*
Y02161284D01*
X03010502Y02163823D01*
X03005423D01*
X03002884Y02161284D01*
Y02156205D01*
X03005423Y02153666D01*
X03018119Y02148588D02*
Y02163823D01*
X03025737D01*
X03028276Y02161284D01*
Y02156205D01*
X03025737Y02153666D01*
X03018119D01*
X03033354Y02148588D02*
Y02163823D01*
X03040972D01*
X03043511Y02161284D01*
Y02156205D01*
X03040972Y02153666D01*
X03033354D01*
X03056207D02*
X03051129D01*
X03048589Y02156205D01*
Y02161284D01*
X03051129Y02163823D01*
X03056207D01*
X03058746Y02161284D01*
Y02158744D01*
X03048589D01*
X03063824Y02163823D02*
Y02153666D01*
Y02158744D01*
X03066364Y02161284D01*
X03068903Y02163823D01*
X03071442D01*
X02997806Y02199381D02*
X02987649D01*
Y02191763D01*
X02992727D01*
X02987649D01*
Y02184146D01*
X03002884D02*
Y02199381D01*
X03010502D01*
X03013041Y02196842D01*
Y02191763D01*
X03010502Y02189224D01*
X03002884D01*
X03007963D02*
X03013041Y02184146D01*
X03018119Y02191763D02*
X03028276D01*
X03040972Y02184146D02*
Y02199381D01*
X03033354Y02191763D01*
X03043511D01*
X02997806Y02227322D02*
X02995267Y02229861D01*
X02990188D01*
X02987649Y02227322D01*
Y02217165D01*
X02990188Y02214626D01*
X02995267D01*
X02997806Y02217165D01*
X03005423Y02214626D02*
X03010502D01*
X03013041Y02217165D01*
Y02222243D01*
X03010502Y02224783D01*
X03005423D01*
X03002884Y02222243D01*
Y02217165D01*
X03005423Y02214626D01*
X03018119Y02209548D02*
Y02224783D01*
X03025737D01*
X03028276Y02222243D01*
Y02217165D01*
X03025737Y02214626D01*
X03018119D01*
X03033354Y02209548D02*
Y02224783D01*
X03040972D01*
X03043511Y02222243D01*
Y02217165D01*
X03040972Y02214626D01*
X03033354D01*
X03056207D02*
X03051129D01*
X03048589Y02217165D01*
Y02222243D01*
X03051129Y02224783D01*
X03056207D01*
X03058746Y02222243D01*
Y02219704D01*
X03048589D01*
X03063824Y02224783D02*
Y02214626D01*
Y02219704D01*
X03066364Y02222243D01*
X03068903Y02224783D01*
X03071442D01*
X02997806Y02260341D02*
X02987649D01*
Y02252724D01*
X02992727D01*
X02987649D01*
Y02245106D01*
X03002884D02*
Y02260341D01*
X03010502D01*
X03013041Y02257802D01*
Y02252724D01*
X03010502Y02250184D01*
X03002884D01*
X03007963D02*
X03013041Y02245106D01*
X03018119Y02252724D02*
X03028276D01*
X03040972Y02245106D02*
Y02260341D01*
X03033354Y02252724D01*
X03043511D01*
X02997806Y02288282D02*
X02995267Y02290821D01*
X02990188D01*
X02987649Y02288282D01*
Y02278125D01*
X02990188Y02275586D01*
X02995267D01*
X02997806Y02278125D01*
X03005423Y02275586D02*
X03010502D01*
X03013041Y02278125D01*
Y02283203D01*
X03010502Y02285743D01*
X03005423D01*
X03002884Y02283203D01*
Y02278125D01*
X03005423Y02275586D01*
X03018119Y02270508D02*
Y02285743D01*
X03025737D01*
X03028276Y02283203D01*
Y02278125D01*
X03025737Y02275586D01*
X03018119D01*
X03033354Y02270508D02*
Y02285743D01*
X03040972D01*
X03043511Y02283203D01*
Y02278125D01*
X03040972Y02275586D01*
X03033354D01*
X03056207D02*
X03051129D01*
X03048589Y02278125D01*
Y02283203D01*
X03051129Y02285743D01*
X03056207D01*
X03058746Y02283203D01*
Y02280664D01*
X03048589D01*
X03063824Y02285743D02*
Y02275586D01*
Y02280664D01*
X03066364Y02283203D01*
X03068903Y02285743D01*
X03071442D01*
X02997806Y02318762D02*
X02995267Y02321301D01*
X02990188D01*
X02987649Y02318762D01*
Y02316223D01*
X02990188Y02313683D01*
X02995267D01*
X02997806Y02311144D01*
Y02308605D01*
X02995267Y02306066D01*
X02990188D01*
X02987649Y02308605D01*
X03005423Y02306066D02*
X03010502D01*
X03013041Y02308605D01*
Y02313683D01*
X03010502Y02316223D01*
X03005423D01*
X03002884Y02313683D01*
Y02308605D01*
X03005423Y02306066D01*
X03018119D02*
X03023198D01*
X03020658D01*
Y02321301D01*
X03018119D01*
X03040972D02*
Y02306066D01*
X03033354D01*
X03030815Y02308605D01*
Y02313683D01*
X03033354Y02316223D01*
X03040972D01*
X03053668Y02306066D02*
X03048589D01*
X03046050Y02308605D01*
Y02313683D01*
X03048589Y02316223D01*
X03053668D01*
X03056207Y02313683D01*
Y02311144D01*
X03046050D01*
X03061285Y02316223D02*
Y02306066D01*
Y02311144D01*
X03063824Y02313683D01*
X03066364Y02316223D01*
X03068903D01*
X03091755Y02306066D02*
Y02321301D01*
X03099373D01*
X03101912Y02318762D01*
Y02313683D01*
X03099373Y02311144D01*
X03091755D01*
X03096834D02*
X03101912Y02306066D01*
X03114608D02*
X03109530D01*
X03106990Y02308605D01*
Y02313683D01*
X03109530Y02316223D01*
X03114608D01*
X03117147Y02313683D01*
Y02311144D01*
X03106990D01*
X03122226Y02306066D02*
X03129843D01*
X03132382Y02308605D01*
X03129843Y02311144D01*
X03124765D01*
X03122226Y02313683D01*
X03124765Y02316223D01*
X03132382D01*
X03137461Y02306066D02*
X03142539D01*
X03140000D01*
Y02316223D01*
X03137461D01*
X03150157Y02306066D02*
X03157774D01*
X03160313Y02308605D01*
X03157774Y02311144D01*
X03152696D01*
X03150157Y02313683D01*
X03152696Y02316223D01*
X03160313D01*
X03167931Y02318762D02*
Y02316223D01*
X03165392D01*
X03170470D01*
X03167931D01*
Y02308605D01*
X03170470Y02306066D01*
X03206030Y02382261D02*
X03216187D01*
X03211108D01*
Y02367026D01*
X03221265Y02382261D02*
Y02367026D01*
Y02374644D01*
X03223804Y02377183D01*
X03228882D01*
X03231422Y02374644D01*
Y02367026D01*
X03236500D02*
X03241578D01*
X03239039D01*
Y02377183D01*
X03236500D01*
X03259353D02*
X03251735D01*
X03249196Y02374644D01*
Y02369565D01*
X03251735Y02367026D01*
X03259353D01*
X03264431D02*
Y02382261D01*
Y02372104D02*
X03272049Y02377183D01*
X03264431Y02372104D02*
X03272049Y02367026D01*
X03279666D02*
Y02377183D01*
X03287284D01*
X03289823Y02374644D01*
Y02367026D01*
X03302519D02*
X03297440D01*
X03294901Y02369565D01*
Y02374644D01*
X03297440Y02377183D01*
X03302519D01*
X03305058Y02374644D01*
Y02372104D01*
X03294901D01*
X03310136Y02367026D02*
X03317754D01*
X03320293Y02369565D01*
X03317754Y02372104D01*
X03312675D01*
X03310136Y02374644D01*
X03312675Y02377183D01*
X03320293D01*
X03325371Y02367026D02*
X03332989D01*
X03335528Y02369565D01*
X03332989Y02372104D01*
X03327910D01*
X03325371Y02374644D01*
X03327910Y02377183D01*
X03335528D01*
X03206030Y02074922D02*
X03208569Y02077461D01*
X03213647D01*
X03216187Y02074922D01*
Y02064765D01*
X03213647Y02062226D01*
X03208569D01*
X03206030Y02064765D01*
Y02074922D01*
X03221265Y02062226D02*
Y02064765D01*
X03223804D01*
Y02062226D01*
X03221265D01*
X03241578D02*
Y02077461D01*
X03233961Y02069843D01*
X03244118D01*
X03249196Y02074922D02*
X03251735Y02077461D01*
X03256813D01*
X03259353Y02074922D01*
Y02064765D01*
X03256813Y02062226D01*
X03251735D01*
X03249196Y02064765D01*
Y02074922D01*
X03264431Y02062226D02*
Y02072383D01*
X03266970D01*
X03269509Y02069843D01*
Y02062226D01*
Y02069843D01*
X03272049Y02072383D01*
X03274588Y02069843D01*
Y02062226D01*
X03279666D02*
X03284744D01*
X03282205D01*
Y02072383D01*
X03279666D01*
X03292362Y02062226D02*
X03297440D01*
X03294901D01*
Y02077461D01*
X03292362D01*
X03216187Y02092706D02*
X03206030D01*
X03216187Y02102863D01*
Y02105402D01*
X03213647Y02107941D01*
X03208569D01*
X03206030Y02105402D01*
X03221265Y02092706D02*
Y02095245D01*
X03223804D01*
Y02092706D01*
X03221265D01*
X03233961Y02105402D02*
X03236500Y02107941D01*
X03241578D01*
X03244118Y02105402D01*
Y02102863D01*
X03241578Y02100323D01*
X03244118Y02097784D01*
Y02095245D01*
X03241578Y02092706D01*
X03236500D01*
X03233961Y02095245D01*
Y02097784D01*
X03236500Y02100323D01*
X03233961Y02102863D01*
Y02105402D01*
X03236500Y02100323D02*
X03241578D01*
X03249196Y02105402D02*
X03251735Y02107941D01*
X03256813D01*
X03259353Y02105402D01*
Y02095245D01*
X03256813Y02092706D01*
X03251735D01*
X03249196Y02095245D01*
Y02105402D01*
X03264431Y02092706D02*
Y02102863D01*
X03266970D01*
X03269509Y02100323D01*
Y02092706D01*
Y02100323D01*
X03272049Y02102863D01*
X03274588Y02100323D01*
Y02092706D01*
X03279666D02*
X03284744D01*
X03282205D01*
Y02102863D01*
X03279666D01*
X03292362Y02092706D02*
X03297440D01*
X03294901D01*
Y02107941D01*
X03292362D01*
X03206030Y02135882D02*
X03208569Y02138421D01*
X03213647D01*
X03216187Y02135882D01*
Y02133343D01*
X03213647Y02130804D01*
X03216187Y02128264D01*
Y02125725D01*
X03213647Y02123186D01*
X03208569D01*
X03206030Y02125725D01*
Y02128264D01*
X03208569Y02130804D01*
X03206030Y02133343D01*
Y02135882D01*
X03208569Y02130804D02*
X03213647D01*
X03221265Y02123186D02*
Y02125725D01*
X03223804D01*
Y02123186D01*
X03221265D01*
X03233961Y02135882D02*
X03236500Y02138421D01*
X03241578D01*
X03244118Y02135882D01*
Y02125725D01*
X03241578Y02123186D01*
X03236500D01*
X03233961Y02125725D01*
Y02135882D01*
X03249196D02*
X03251735Y02138421D01*
X03256813D01*
X03259353Y02135882D01*
Y02125725D01*
X03256813Y02123186D01*
X03251735D01*
X03249196Y02125725D01*
Y02135882D01*
X03264431Y02123186D02*
Y02133343D01*
X03266970D01*
X03269509Y02130804D01*
Y02123186D01*
Y02130804D01*
X03272049Y02133343D01*
X03274588Y02130804D01*
Y02123186D01*
X03279666D02*
X03284744D01*
X03282205D01*
Y02133343D01*
X03279666D01*
X03292362Y02123186D02*
X03297440D01*
X03294901D01*
Y02138421D01*
X03292362D01*
X03206030Y02153666D02*
X03211108D01*
X03208569D01*
Y02168901D01*
X03206030Y02166362D01*
X03218726Y02153666D02*
Y02156205D01*
X03221265D01*
Y02153666D01*
X03218726D01*
X03239039D02*
Y02168901D01*
X03231422Y02161284D01*
X03241578D01*
X03246657Y02166362D02*
X03249196Y02168901D01*
X03254274D01*
X03256813Y02166362D01*
Y02156205D01*
X03254274Y02153666D01*
X03249196D01*
X03246657Y02156205D01*
Y02166362D01*
X03261892Y02153666D02*
Y02163823D01*
X03264431D01*
X03266970Y02161284D01*
Y02153666D01*
Y02161284D01*
X03269509Y02163823D01*
X03272049Y02161284D01*
Y02153666D01*
X03277127D02*
X03282205D01*
X03279666D01*
Y02163823D01*
X03277127D01*
X03289823Y02153666D02*
X03294901D01*
X03292362D01*
Y02168901D01*
X03289823D01*
X03206030Y02196842D02*
X03208569Y02199381D01*
X03213647D01*
X03216187Y02196842D01*
Y02194303D01*
X03213647Y02191763D01*
X03211108D01*
X03213647D01*
X03216187Y02189224D01*
Y02186685D01*
X03213647Y02184146D01*
X03208569D01*
X03206030Y02186685D01*
X03221265Y02196842D02*
X03223804Y02199381D01*
X03228882D01*
X03231422Y02196842D01*
Y02194303D01*
X03228882Y02191763D01*
X03231422Y02189224D01*
Y02186685D01*
X03228882Y02184146D01*
X03223804D01*
X03221265Y02186685D01*
Y02189224D01*
X03223804Y02191763D01*
X03221265Y02194303D01*
Y02196842D01*
X03223804Y02191763D02*
X03228882D01*
X03236500Y02184146D02*
Y02186685D01*
X03239039D01*
Y02184146D01*
X03236500D01*
X03256813D02*
Y02199381D01*
X03249196Y02191763D01*
X03259353D01*
X03264431Y02196842D02*
X03266970Y02199381D01*
X03272049D01*
X03274588Y02196842D01*
Y02186685D01*
X03272049Y02184146D01*
X03266970D01*
X03264431Y02186685D01*
Y02196842D01*
X03279666Y02184146D02*
Y02194303D01*
X03282205D01*
X03284744Y02191763D01*
Y02184146D01*
Y02191763D01*
X03287284Y02194303D01*
X03289823Y02191763D01*
Y02184146D01*
X03294901D02*
X03299980D01*
X03297440D01*
Y02194303D01*
X03294901D01*
X03307597Y02184146D02*
X03312675D01*
X03310136D01*
Y02199381D01*
X03307597D01*
X03206030Y02214626D02*
X03211108D01*
X03208569D01*
Y02229861D01*
X03206030Y02227322D01*
X03218726Y02214626D02*
Y02217165D01*
X03221265D01*
Y02214626D01*
X03218726D01*
X03239039D02*
Y02229861D01*
X03231422Y02222243D01*
X03241578D01*
X03246657Y02227322D02*
X03249196Y02229861D01*
X03254274D01*
X03256813Y02227322D01*
Y02217165D01*
X03254274Y02214626D01*
X03249196D01*
X03246657Y02217165D01*
Y02227322D01*
X03261892Y02214626D02*
Y02224783D01*
X03264431D01*
X03266970Y02222243D01*
Y02214626D01*
Y02222243D01*
X03269509Y02224783D01*
X03272049Y02222243D01*
Y02214626D01*
X03277127D02*
X03282205D01*
X03279666D01*
Y02224783D01*
X03277127D01*
X03289823Y02214626D02*
X03294901D01*
X03292362D01*
Y02229861D01*
X03289823D01*
X03206030Y02257802D02*
X03208569Y02260341D01*
X03213647D01*
X03216187Y02257802D01*
Y02255263D01*
X03213647Y02252724D01*
X03216187Y02250184D01*
Y02247645D01*
X03213647Y02245106D01*
X03208569D01*
X03206030Y02247645D01*
Y02250184D01*
X03208569Y02252724D01*
X03206030Y02255263D01*
Y02257802D01*
X03208569Y02252724D02*
X03213647D01*
X03221265Y02245106D02*
Y02247645D01*
X03223804D01*
Y02245106D01*
X03221265D01*
X03233961Y02257802D02*
X03236500Y02260341D01*
X03241578D01*
X03244118Y02257802D01*
Y02247645D01*
X03241578Y02245106D01*
X03236500D01*
X03233961Y02247645D01*
Y02257802D01*
X03249196D02*
X03251735Y02260341D01*
X03256813D01*
X03259353Y02257802D01*
Y02247645D01*
X03256813Y02245106D01*
X03251735D01*
X03249196Y02247645D01*
Y02257802D01*
X03264431Y02245106D02*
Y02255263D01*
X03266970D01*
X03269509Y02252724D01*
Y02245106D01*
Y02252724D01*
X03272049Y02255263D01*
X03274588Y02252724D01*
Y02245106D01*
X03279666D02*
X03284744D01*
X03282205D01*
Y02255263D01*
X03279666D01*
X03292362Y02245106D02*
X03297440D01*
X03294901D01*
Y02260341D01*
X03292362D01*
X03216187Y02275586D02*
X03206030D01*
X03216187Y02285743D01*
Y02288282D01*
X03213647Y02290821D01*
X03208569D01*
X03206030Y02288282D01*
X03221265Y02275586D02*
Y02278125D01*
X03223804D01*
Y02275586D01*
X03221265D01*
X03233961Y02288282D02*
X03236500Y02290821D01*
X03241578D01*
X03244118Y02288282D01*
Y02285743D01*
X03241578Y02283203D01*
X03244118Y02280664D01*
Y02278125D01*
X03241578Y02275586D01*
X03236500D01*
X03233961Y02278125D01*
Y02280664D01*
X03236500Y02283203D01*
X03233961Y02285743D01*
Y02288282D01*
X03236500Y02283203D02*
X03241578D01*
X03249196Y02288282D02*
X03251735Y02290821D01*
X03256813D01*
X03259353Y02288282D01*
Y02278125D01*
X03256813Y02275586D01*
X03251735D01*
X03249196Y02278125D01*
Y02288282D01*
X03264431Y02275586D02*
Y02285743D01*
X03266970D01*
X03269509Y02283203D01*
Y02275586D01*
Y02283203D01*
X03272049Y02285743D01*
X03274588Y02283203D01*
Y02275586D01*
X03279666D02*
X03284744D01*
X03282205D01*
Y02285743D01*
X03279666D01*
X03292362Y02275586D02*
X03297440D01*
X03294901D01*
Y02290821D01*
X03292362D01*
X03206030Y02318762D02*
X03208569Y02321301D01*
X03213647D01*
X03216187Y02318762D01*
Y02308605D01*
X03213647Y02306066D01*
X03208569D01*
X03206030Y02308605D01*
Y02318762D01*
X03221265Y02306066D02*
Y02308605D01*
X03223804D01*
Y02306066D01*
X03221265D01*
X03241578D02*
Y02321301D01*
X03233961Y02313683D01*
X03244118D01*
X03249196Y02318762D02*
X03251735Y02321301D01*
X03256813D01*
X03259353Y02318762D01*
Y02308605D01*
X03256813Y02306066D01*
X03251735D01*
X03249196Y02308605D01*
Y02318762D01*
X03264431Y02306066D02*
Y02316223D01*
X03266970D01*
X03269509Y02313683D01*
Y02306066D01*
Y02313683D01*
X03272049Y02316223D01*
X03274588Y02313683D01*
Y02306066D01*
X03279666D02*
X03284744D01*
X03282205D01*
Y02316223D01*
X03279666D01*
X03292362Y02306066D02*
X03297440D01*
X03294901D01*
Y02321301D01*
X03292362D01*
X03381245Y02379722D02*
X03378706Y02382261D01*
X03373627D01*
X03371088Y02379722D01*
Y02369565D01*
X03373627Y02367026D01*
X03378706D01*
X03381245Y02369565D01*
X03388862Y02367026D02*
X03393941D01*
X03396480Y02369565D01*
Y02374644D01*
X03393941Y02377183D01*
X03388862D01*
X03386323Y02374644D01*
Y02369565D01*
X03388862Y02367026D01*
X03401558D02*
Y02377183D01*
X03409176D01*
X03411715Y02374644D01*
Y02367026D01*
X03416793D02*
X03424411D01*
X03426950Y02369565D01*
X03424411Y02372104D01*
X03419332D01*
X03416793Y02374644D01*
X03419332Y02377183D01*
X03426950D01*
X03434568Y02379722D02*
Y02377183D01*
X03432028D01*
X03437107D01*
X03434568D01*
Y02369565D01*
X03437107Y02367026D01*
X03447263Y02377183D02*
X03452342D01*
X03454881Y02374644D01*
Y02367026D01*
X03447263D01*
X03444724Y02369565D01*
X03447263Y02372104D01*
X03454881D01*
X03459959Y02367026D02*
Y02377183D01*
X03467577D01*
X03470116Y02374644D01*
Y02367026D01*
X03477733Y02379722D02*
Y02377183D01*
X03475194D01*
X03480273D01*
X03477733D01*
Y02369565D01*
X03480273Y02367026D01*
X03371088Y02074922D02*
X03373627Y02077461D01*
X03378706D01*
X03381245Y02074922D01*
Y02072383D01*
X03378706Y02069843D01*
X03376166D01*
X03378706D01*
X03381245Y02067304D01*
Y02064765D01*
X03378706Y02062226D01*
X03373627D01*
X03371088Y02064765D01*
X03386323Y02062226D02*
Y02064765D01*
X03388862D01*
Y02062226D01*
X03386323D01*
X03409176Y02077461D02*
X03399019D01*
Y02069843D01*
X03404097Y02072383D01*
X03406636D01*
X03409176Y02069843D01*
Y02064765D01*
X03406636Y02062226D01*
X03401558D01*
X03399019Y02064765D01*
X03378706Y02123186D02*
Y02138421D01*
X03371088Y02130804D01*
X03381245D01*
X03386323Y02123186D02*
Y02125725D01*
X03388862D01*
Y02123186D01*
X03386323D01*
X03409176D02*
X03399019D01*
X03409176Y02133343D01*
Y02135882D01*
X03406636Y02138421D01*
X03401558D01*
X03399019Y02135882D01*
X03378706Y02184146D02*
Y02199381D01*
X03371088Y02191763D01*
X03381245D01*
X03386323Y02184146D02*
Y02186685D01*
X03388862D01*
Y02184146D01*
X03386323D01*
X03409176D02*
X03399019D01*
X03409176Y02194303D01*
Y02196842D01*
X03406636Y02199381D01*
X03401558D01*
X03399019Y02196842D01*
X03378706Y02245106D02*
Y02260341D01*
X03371088Y02252724D01*
X03381245D01*
X03386323Y02245106D02*
Y02247645D01*
X03388862D01*
Y02245106D01*
X03386323D01*
X03409176D02*
X03399019D01*
X03409176Y02255263D01*
Y02257802D01*
X03406636Y02260341D01*
X03401558D01*
X03399019Y02257802D01*
X03371088Y02318762D02*
X03373627Y02321301D01*
X03378706D01*
X03381245Y02318762D01*
Y02316223D01*
X03378706Y02313683D01*
X03376166D01*
X03378706D01*
X03381245Y02311144D01*
Y02308605D01*
X03378706Y02306066D01*
X03373627D01*
X03371088Y02308605D01*
X03386323Y02306066D02*
Y02308605D01*
X03388862D01*
Y02306066D01*
X03386323D01*
X03409176Y02321301D02*
X03399019D01*
Y02313683D01*
X03404097Y02316223D01*
X03406636D01*
X03409176Y02313683D01*
Y02308605D01*
X03406636Y02306066D01*
X03401558D01*
X03399019Y02308605D01*
X03515833Y02382261D02*
Y02367026D01*
X03523450D01*
X03525989Y02369565D01*
Y02372104D01*
X03523450Y02374644D01*
X03515833D01*
X03523450D01*
X03525989Y02377183D01*
Y02379722D01*
X03523450Y02382261D01*
X03515833D01*
X03533607Y02367026D02*
X03538685D01*
X03541224Y02369565D01*
Y02374644D01*
X03538685Y02377183D01*
X03533607D01*
X03531068Y02374644D01*
Y02369565D01*
X03533607Y02367026D01*
X03548842Y02377183D02*
X03553920D01*
X03556460Y02374644D01*
Y02367026D01*
X03548842D01*
X03546303Y02369565D01*
X03548842Y02372104D01*
X03556460D01*
X03561538Y02377183D02*
Y02367026D01*
Y02372104D01*
X03564077Y02374644D01*
X03566616Y02377183D01*
X03569155D01*
X03586930Y02382261D02*
Y02367026D01*
X03579312D01*
X03576773Y02369565D01*
Y02374644D01*
X03579312Y02377183D01*
X03586930D01*
X03607243Y02382261D02*
Y02367026D01*
X03617400D01*
X03625017Y02377183D02*
X03630096D01*
X03632635Y02374644D01*
Y02367026D01*
X03625017D01*
X03622478Y02369565D01*
X03625017Y02372104D01*
X03632635D01*
X03637713Y02377183D02*
Y02369565D01*
X03640252Y02367026D01*
X03647870D01*
Y02364487D01*
X03645331Y02361948D01*
X03642792D01*
X03647870Y02367026D02*
Y02377183D01*
X03660566Y02367026D02*
X03655487D01*
X03652948Y02369565D01*
Y02374644D01*
X03655487Y02377183D01*
X03660566D01*
X03663105Y02374644D01*
Y02372104D01*
X03652948D01*
X03668183Y02377183D02*
Y02367026D01*
Y02372104D01*
X03670723Y02374644D01*
X03673262Y02377183D01*
X03675801D01*
X03708810Y02379722D02*
X03706271Y02382261D01*
X03701193D01*
X03698654Y02379722D01*
Y02377183D01*
X03701193Y02374644D01*
X03706271D01*
X03708810Y02372104D01*
Y02369565D01*
X03706271Y02367026D01*
X03701193D01*
X03698654Y02369565D01*
X03716428Y02379722D02*
Y02377183D01*
X03713889D01*
X03718967D01*
X03716428D01*
Y02369565D01*
X03718967Y02367026D01*
X03729124Y02377183D02*
X03734202D01*
X03736741Y02374644D01*
Y02367026D01*
X03729124D01*
X03726584Y02369565D01*
X03729124Y02372104D01*
X03736741D01*
X03751976Y02377183D02*
X03744359D01*
X03741819Y02374644D01*
Y02369565D01*
X03744359Y02367026D01*
X03751976D01*
X03757055D02*
Y02382261D01*
Y02372104D02*
X03764672Y02377183D01*
X03757055Y02372104D02*
X03764672Y02367026D01*
X01420876Y00100076D02*
Y00151596D01*
X01118870Y00101727D02*
X01778508D01*
Y00256667D01*
X00727710Y00101727D02*
Y00256667D01*
X00101600Y00101727D02*
Y00256667D01*
X00101727Y00101727D02*
X00501904D01*
X00101727D02*
Y00256667D01*
X01778508D01*
X00101600Y00101727D02*
X01118870D01*
X00101600Y00153374D02*
X01778000D01*
X00101600Y00205020D02*
X01778508D01*
X01049528D02*
Y00256667D01*
X01262888Y00205020D02*
Y00256667D01*
G54D95*
X02629597Y02359406D02*
X03784992D01*
X02629597Y02389886D02*
X03784992D01*
X02629597Y02024126D02*
Y02389886D01*
Y02024126D02*
X02733715D01*
X02629597Y02054606D02*
X02733715D01*
X02629597Y02085086D02*
X02733715D01*
X02629597Y02115566D02*
X02733715D01*
X02629597Y02146046D02*
X02733715D01*
X02629597Y02176526D02*
X02733715D01*
X02629597Y02207006D02*
X02733715D01*
X02629597Y02237486D02*
X02733715D01*
X02629597Y02267966D02*
X02733715D01*
X02629597Y02298446D02*
X02733715D01*
X02629597Y02328926D02*
X02733715D01*
Y02024126D02*
Y02389886D01*
Y02024126D02*
X02972409D01*
X02733715Y02054606D02*
X02972409D01*
X02733715Y02085086D02*
X02972409D01*
X02733715Y02115566D02*
X02972409D01*
X02733715Y02146046D02*
X02972409D01*
X02733715Y02176526D02*
X02972409D01*
X02733715Y02207006D02*
X02972409D01*
X02733715Y02237486D02*
X02972409D01*
X02733715Y02267966D02*
X02972409D01*
X02733715Y02298446D02*
X02972409D01*
X02733715Y02328926D02*
X02972409D01*
Y02024126D02*
Y02389886D01*
Y02024126D02*
X03190790D01*
X02972409Y02054606D02*
X03190790D01*
X02972409Y02085086D02*
X03190790D01*
X02972409Y02115566D02*
X03190790D01*
X02972409Y02146046D02*
X03190790D01*
X02972409Y02176526D02*
X03190790D01*
X02972409Y02207006D02*
X03190790D01*
X02972409Y02237486D02*
X03190790D01*
X02972409Y02267966D02*
X03190790D01*
X02972409Y02298446D02*
X03190790D01*
X02972409Y02328926D02*
X03190790D01*
Y02024126D02*
Y02389886D01*
Y02024126D02*
X03355848D01*
X03190790Y02054606D02*
X03355848D01*
X03190790Y02085086D02*
X03355848D01*
X03190790Y02115566D02*
X03355848D01*
X03190790Y02146046D02*
X03355848D01*
X03190790Y02176526D02*
X03355848D01*
X03190790Y02207006D02*
X03355848D01*
X03190790Y02237486D02*
X03355848D01*
X03190790Y02267966D02*
X03355848D01*
X03190790Y02298446D02*
X03355848D01*
X03190790Y02328926D02*
X03355848D01*
Y02024126D02*
Y02389886D01*
Y02024126D02*
X03500593D01*
X03355848Y02054606D02*
X03500593D01*
X03355848Y02085086D02*
X03500593D01*
X03355848Y02115566D02*
X03500593D01*
X03355848Y02146046D02*
X03500593D01*
X03355848Y02176526D02*
X03500593D01*
X03355848Y02207006D02*
X03500593D01*
X03355848Y02237486D02*
X03500593D01*
X03355848Y02267966D02*
X03500593D01*
X03355848Y02298446D02*
X03500593D01*
X03355848Y02328926D02*
X03500593D01*
Y02024126D02*
Y02389886D01*
Y02024126D02*
X03784992D01*
X03500593Y02054606D02*
X03784992D01*
X03500593Y02085086D02*
X03784992D01*
X03500593Y02115566D02*
X03784992D01*
X03500593Y02146046D02*
X03784992D01*
X03500593Y02176526D02*
X03784992D01*
X03500593Y02207006D02*
X03784992D01*
X03500593Y02237486D02*
X03784992D01*
X03500593Y02267966D02*
X03784992D01*
X03500593Y02298446D02*
X03784992D01*
X03500593Y02328926D02*
X03784992D01*
Y02024126D02*
Y02389886D01*
G54D119*
X03769752Y02024126D02*
X03784992Y02039366D01*
X03754512Y02024126D02*
X03784992Y02054606D01*
X03739272Y02024126D02*
X03769752Y02054606D01*
X03724032Y02024126D02*
X03754512Y02054606D01*
X03708792Y02024126D02*
X03739272Y02054606D01*
X03693552Y02024126D02*
X03724032Y02054606D01*
X03678312Y02024126D02*
X03708792Y02054606D01*
X03663072Y02024126D02*
X03693552Y02054606D01*
X03647832Y02024126D02*
X03678312Y02054606D01*
X03632592Y02024126D02*
X03663072Y02054606D01*
X03617352Y02024126D02*
X03647832Y02054606D01*
X03602112Y02024126D02*
X03632592Y02054606D01*
X03586872Y02024126D02*
X03617352Y02054606D01*
X03571632Y02024126D02*
X03602112Y02054606D01*
X03556392Y02024126D02*
X03586872Y02054606D01*
X03541152Y02024126D02*
X03571632Y02054606D01*
X03525912Y02024126D02*
X03556392Y02054606D01*
X03510672Y02024126D02*
X03541152Y02054606D01*
X03500593Y02029286D02*
X03525912Y02054606D01*
X03500593Y02044527D02*
X03510672Y02054606D01*
X03769752D02*
X03784992Y02069846D01*
X03754512Y02054606D02*
X03784992Y02085086D01*
X03739272Y02054606D02*
X03769752Y02085086D01*
X03724032Y02054606D02*
X03754512Y02085086D01*
X03708792Y02054606D02*
X03739272Y02085086D01*
X03693552Y02054606D02*
X03724032Y02085086D01*
X03678312Y02054606D02*
X03708792Y02085086D01*
X03663072Y02054606D02*
X03693552Y02085086D01*
X03647832Y02054606D02*
X03678312Y02085086D01*
X03632592Y02054606D02*
X03663072Y02085086D01*
X03617352Y02054606D02*
X03647832Y02085086D01*
X03602112Y02054606D02*
X03632592Y02085086D01*
X03586872Y02054606D02*
X03617352Y02085086D01*
X03571632Y02054606D02*
X03602112Y02085086D01*
X03556392Y02054606D02*
X03586872Y02085086D01*
X03541152Y02054606D02*
X03571632Y02085086D01*
X03525912Y02054606D02*
X03556392Y02085086D01*
X03510672Y02054606D02*
X03541152Y02085086D01*
X03500593Y02059767D02*
X03525912Y02085086D01*
X03500593Y02075007D02*
X03510672Y02085086D01*
X03769752D02*
X03784992Y02100326D01*
X03754512Y02085086D02*
X03784992Y02115566D01*
X03739272Y02085086D02*
X03769752Y02115566D01*
X03724032Y02085086D02*
X03754512Y02115566D01*
X03708792Y02085086D02*
X03739272Y02115566D01*
X03693552Y02085086D02*
X03724032Y02115566D01*
X03678312Y02085086D02*
X03708792Y02115566D01*
X03663072Y02085086D02*
X03693552Y02115566D01*
X03647832Y02085086D02*
X03678312Y02115566D01*
X03632592Y02085086D02*
X03663072Y02115566D01*
X03617352Y02085086D02*
X03647832Y02115566D01*
X03602112Y02085086D02*
X03632592Y02115566D01*
X03586872Y02085086D02*
X03617352Y02115566D01*
X03571632Y02085086D02*
X03602112Y02115566D01*
X03556392Y02085086D02*
X03586872Y02115566D01*
X03541152Y02085086D02*
X03571632Y02115566D01*
X03525912Y02085086D02*
X03556392Y02115566D01*
X03510672Y02085086D02*
X03541152Y02115566D01*
X03500593Y02090246D02*
X03525912Y02115566D01*
X03500593Y02105486D02*
X03510672Y02115566D01*
X03769752D02*
X03784992Y02130806D01*
X03754512Y02115566D02*
X03784992Y02146046D01*
X03739272Y02115566D02*
X03769752Y02146046D01*
X03724032Y02115566D02*
X03754512Y02146046D01*
X03708792Y02115566D02*
X03739272Y02146046D01*
X03693552Y02115566D02*
X03724032Y02146046D01*
X03678312Y02115566D02*
X03708792Y02146046D01*
X03663072Y02115566D02*
X03693552Y02146046D01*
X03647832Y02115566D02*
X03678312Y02146046D01*
X03632592Y02115566D02*
X03663072Y02146046D01*
X03617352Y02115566D02*
X03647832Y02146046D01*
X03602112Y02115566D02*
X03632592Y02146046D01*
X03586872Y02115566D02*
X03617352Y02146046D01*
X03571632Y02115566D02*
X03602112Y02146046D01*
X03556392Y02115566D02*
X03586872Y02146046D01*
X03541152Y02115566D02*
X03571632Y02146046D01*
X03525912Y02115566D02*
X03556392Y02146046D01*
X03510672Y02115566D02*
X03541152Y02146046D01*
X03500593Y02120726D02*
X03525912Y02146046D01*
X03500593Y02135966D02*
X03510672Y02146046D01*
X03769752D02*
X03784992Y02161286D01*
X03754512Y02146046D02*
X03784992Y02176526D01*
X03739272Y02146046D02*
X03769752Y02176526D01*
X03724032Y02146046D02*
X03754512Y02176526D01*
X03708792Y02146046D02*
X03739272Y02176526D01*
X03693552Y02146046D02*
X03724032Y02176526D01*
X03678312Y02146046D02*
X03708792Y02176526D01*
X03663072Y02146046D02*
X03693552Y02176526D01*
X03647832Y02146046D02*
X03678312Y02176526D01*
X03632592Y02146046D02*
X03663072Y02176526D01*
X03617352Y02146046D02*
X03647832Y02176526D01*
X03602112Y02146046D02*
X03632592Y02176526D01*
X03586872Y02146046D02*
X03617352Y02176526D01*
X03571632Y02146046D02*
X03602112Y02176526D01*
X03556392Y02146046D02*
X03586872Y02176526D01*
X03541152Y02146046D02*
X03571632Y02176526D01*
X03525912Y02146046D02*
X03556392Y02176526D01*
X03510672Y02146046D02*
X03541152Y02176526D01*
X03500593Y02151207D02*
X03525912Y02176526D01*
X03500593Y02166447D02*
X03510672Y02176526D01*
X03769752D02*
X03784992Y02191766D01*
X03754512Y02176526D02*
X03784992Y02207006D01*
X03739272Y02176526D02*
X03769752Y02207006D01*
X03724032Y02176526D02*
X03754512Y02207006D01*
X03708792Y02176526D02*
X03739272Y02207006D01*
X03693552Y02176526D02*
X03724032Y02207006D01*
X03678312Y02176526D02*
X03708792Y02207006D01*
X03663072Y02176526D02*
X03693552Y02207006D01*
X03647832Y02176526D02*
X03678312Y02207006D01*
X03632592Y02176526D02*
X03663072Y02207006D01*
X03617352Y02176526D02*
X03647832Y02207006D01*
X03602112Y02176526D02*
X03632592Y02207006D01*
X03586872Y02176526D02*
X03617352Y02207006D01*
X03571632Y02176526D02*
X03602112Y02207006D01*
X03556392Y02176526D02*
X03586872Y02207006D01*
X03541152Y02176526D02*
X03571632Y02207006D01*
X03525912Y02176526D02*
X03556392Y02207006D01*
X03510672Y02176526D02*
X03541152Y02207006D01*
X03500593Y02181687D02*
X03525912Y02207006D01*
X03500593Y02196927D02*
X03510672Y02207006D01*
X03769752D02*
X03784992Y02222246D01*
X03754512Y02207006D02*
X03784992Y02237486D01*
X03739272Y02207006D02*
X03769752Y02237486D01*
X03724032Y02207006D02*
X03754512Y02237486D01*
X03708792Y02207006D02*
X03739272Y02237486D01*
X03693552Y02207006D02*
X03724032Y02237486D01*
X03678312Y02207006D02*
X03708792Y02237486D01*
X03663072Y02207006D02*
X03693552Y02237486D01*
X03647832Y02207006D02*
X03678312Y02237486D01*
X03632592Y02207006D02*
X03663072Y02237486D01*
X03617352Y02207006D02*
X03647832Y02237486D01*
X03602112Y02207006D02*
X03632592Y02237486D01*
X03586872Y02207006D02*
X03617352Y02237486D01*
X03571632Y02207006D02*
X03602112Y02237486D01*
X03556392Y02207006D02*
X03586872Y02237486D01*
X03541152Y02207006D02*
X03571632Y02237486D01*
X03525912Y02207006D02*
X03556392Y02237486D01*
X03510672Y02207006D02*
X03541152Y02237486D01*
X03500593Y02212166D02*
X03525912Y02237486D01*
X03500593Y02227406D02*
X03510672Y02237486D01*
X03769752D02*
X03784992Y02252726D01*
X03754512Y02237486D02*
X03784992Y02267966D01*
X03739272Y02237486D02*
X03769752Y02267966D01*
X03724032Y02237486D02*
X03754512Y02267966D01*
X03708792Y02237486D02*
X03739272Y02267966D01*
X03693552Y02237486D02*
X03724032Y02267966D01*
X03678312Y02237486D02*
X03708792Y02267966D01*
X03663072Y02237486D02*
X03693552Y02267966D01*
X03647832Y02237486D02*
X03678312Y02267966D01*
X03632592Y02237486D02*
X03663072Y02267966D01*
X03617352Y02237486D02*
X03647832Y02267966D01*
X03602112Y02237486D02*
X03632592Y02267966D01*
X03586872Y02237486D02*
X03617352Y02267966D01*
X03571632Y02237486D02*
X03602112Y02267966D01*
X03556392Y02237486D02*
X03586872Y02267966D01*
X03541152Y02237486D02*
X03571632Y02267966D01*
X03525912Y02237486D02*
X03556392Y02267966D01*
X03510672Y02237486D02*
X03541152Y02267966D01*
X03500593Y02242646D02*
X03525912Y02267966D01*
X03500593Y02257887D02*
X03510672Y02267966D01*
X03769752D02*
X03784992Y02283206D01*
X03754512Y02267966D02*
X03784992Y02298446D01*
X03739272Y02267966D02*
X03769752Y02298446D01*
X03724032Y02267966D02*
X03754512Y02298446D01*
X03708792Y02267966D02*
X03739272Y02298446D01*
X03693552Y02267966D02*
X03724032Y02298446D01*
X03678312Y02267966D02*
X03708792Y02298446D01*
X03663072Y02267966D02*
X03693552Y02298446D01*
X03647832Y02267966D02*
X03678312Y02298446D01*
X03632592Y02267966D02*
X03663072Y02298446D01*
X03617352Y02267966D02*
X03647832Y02298446D01*
X03602112Y02267966D02*
X03632592Y02298446D01*
X03586872Y02267966D02*
X03617352Y02298446D01*
X03571632Y02267966D02*
X03602112Y02298446D01*
X03556392Y02267966D02*
X03586872Y02298446D01*
X03541152Y02267966D02*
X03571632Y02298446D01*
X03525912Y02267966D02*
X03556392Y02298446D01*
X03510672Y02267966D02*
X03541152Y02298446D01*
X03500593Y02273127D02*
X03525912Y02298446D01*
X03500593Y02288367D02*
X03510672Y02298446D01*
X03769752D02*
X03784992Y02313686D01*
X03754512Y02298446D02*
X03784992Y02328926D01*
X03739272Y02298446D02*
X03769752Y02328926D01*
X03724032Y02298446D02*
X03754512Y02328926D01*
X03708792Y02298446D02*
X03739272Y02328926D01*
X03693552Y02298446D02*
X03724032Y02328926D01*
X03678312Y02298446D02*
X03708792Y02328926D01*
X03663072Y02298446D02*
X03693552Y02328926D01*
X03647832Y02298446D02*
X03678312Y02328926D01*
X03632592Y02298446D02*
X03663072Y02328926D01*
X03617352Y02298446D02*
X03647832Y02328926D01*
X03602112Y02298446D02*
X03632592Y02328926D01*
X03586872Y02298446D02*
X03617352Y02328926D01*
X03571632Y02298446D02*
X03602112Y02328926D01*
X03556392Y02298446D02*
X03586872Y02328926D01*
X03541152Y02298446D02*
X03571632Y02328926D01*
X03525912Y02298446D02*
X03556392Y02328926D01*
X03510672Y02298446D02*
X03541152Y02328926D01*
X03500593Y02303607D02*
X03525912Y02328926D01*
X03500593Y02318846D02*
X03510672Y02328926D01*
X03769752D02*
X03784992Y02344166D01*
X03754512Y02328926D02*
X03784992Y02359406D01*
X03739272Y02328926D02*
X03769752Y02359406D01*
X03724032Y02328926D02*
X03754512Y02359406D01*
X03708792Y02328926D02*
X03739272Y02359406D01*
X03693552Y02328926D02*
X03724032Y02359406D01*
X03678312Y02328926D02*
X03708792Y02359406D01*
X03663072Y02328926D02*
X03693552Y02359406D01*
X03647832Y02328926D02*
X03678312Y02359406D01*
X03632592Y02328926D02*
X03663072Y02359406D01*
X03617352Y02328926D02*
X03647832Y02359406D01*
X03602112Y02328926D02*
X03632592Y02359406D01*
X03586872Y02328926D02*
X03617352Y02359406D01*
X03571632Y02328926D02*
X03602112Y02359406D01*
X03556392Y02328926D02*
X03586872Y02359406D01*
X03541152Y02328926D02*
X03571632Y02359406D01*
X03525912Y02328926D02*
X03556392Y02359406D01*
X03510672Y02328926D02*
X03541152Y02359406D01*
X03500593Y02334086D02*
X03525912Y02359406D01*
X03500593Y02349326D02*
X03510672Y02359406D01*
M02*
