M48
;Layer_Color=9474304
;FILE_FORMAT=4:4
METRIC
;TYPE=PLATED
T1F00S00C0.2000
T2F00S00C0.2540
T3F00S00C1.0160
T4F00S00C1.0200
T5F00S00C1.1500
T6F00S00C1.2000
T7F00S00C1.3000
T8F00S00C1.3000
%
T01
X00237710Y00671156
Y00682156
X00250710
Y00671156
X00263710
Y00682156
X00276710
Y00671156
T02
X00822198Y00411226
X00883920Y00411595
X00874817Y00430825
X00873808Y00449536
X00895350Y00457200
X00933450
X00952500Y00419100
X00990600
X01028700
X01066800
X01047750Y00457200
X01009650
X01066800Y00495300
X01028700Y00571500
X01009650Y00609600
X01028700Y00647700
X01047750Y00685800
X01009650
X01028700Y00723900
X01009650Y00762000
X01004132Y00782066
X00992378
X00985781Y00788036
X01016096Y00782066
X01023069Y00788036
X00971550Y00762000
X00954110Y00738679
X00952500Y00723900
X00901700Y00749300
X00889000
X00876300
X00882650Y00762000
X00895350
X00901700Y00774700
X00876300
X00863600
X00869950Y00787400
X00846127Y00700926
Y00690639
Y00680352
Y00670065
X00834162
Y00680352
Y00690639
Y00700926
X00822198Y00700926
Y00690639
X00822409Y00680352
Y00670065
X00834162Y00654105
X00846127
X00845536Y00616268
X00833167Y00615854
X00838608Y00606255
X00837124Y00596937
X00812178Y00620188
X00801624Y00568706
X00836168Y00541485
X00822198Y00526796
Y00516636
X00805688Y00498856
X00850971Y00510862
X00860298Y00533146
X00869188Y00533400
X00879348Y00532929
X00889024
X00897959Y00534771
X00898398Y00543859
X00908558Y00581406
X00874267Y00485675
X00803148Y00732720
X01085850Y00762000
X00781050
X00768350
X00755650
X00762000Y00774700
X00774700
Y00749300
X00762000
X00749300Y00774700
X00742950Y00787400
X00666750
X00660400Y00774700
X00666750Y00762000
X00654050
X00641350
X00647700Y00749300
X00660400
X00635000
Y00774700
X00628650Y00787400
X00552450Y00762000
X00540258Y00760476
X00514350Y00762000
X00514367Y00740918
X00502155Y00719346
X00486147Y00702056
X00489243Y00678981
X00496975Y00645018
X00500888Y00636016
X00499618Y00616496
X00500690Y00589523
X00489243Y00560508
X00477153Y00571794
X00461308Y00581355
X00452005Y00591566
X00429465Y00580786
X00441198Y00543306
X00404849Y00544576
X00400050Y00533400
X00406883Y00522926
X00439928Y00479806
X00426509Y00464426
X00398018Y00455126
X00478391Y00453976
X00488185Y00464426
X00473054Y00475996
X00498348Y00482346
X00517238Y00456786
X00551307Y00456057
Y00496500
X00601218Y00492675
X00607568Y00470916
X00601218Y00456786
X00646219Y00462280
X00657426Y00467073
X00654035Y00437556
X00645201Y00437388
X00636535
X00635868Y00408432
X00645668
X00655248
X00668020Y00440125
X00711708Y00439166
X00706042Y00447040
X00730544Y00445620
X00729488Y00456184
X00725932Y00470916
X00727964Y00495013
X00714082Y00524449
X00711136Y00538737
X00717370Y00545736
X00713728Y00557939
X00724408Y00569886
X00705322Y00580479
X00675892Y00584530
X00677418Y00569580
X00655828Y00567436
X00655655Y00560061
X00655828Y00552911
X00665988Y00549656
X00657098Y00540640
X00643417Y00537972
X00634933Y00538288
X00626238
X00608343Y00535294
X00608543Y00523288
X00598678Y00524256
Y00539496
X00596457Y00571246
X00621680Y00579366
X00657098Y00583234
X00645320Y00627215
X00688572Y00622390
X00705358Y00617377
X00714572Y00618236
X00724408Y00617377
X00718269Y00655866
X00706628
X00706304Y00670065
Y00680352
X00706094Y00690639
Y00700926
X00718058Y00700926
Y00690639
Y00680352
Y00670065
X00730022
Y00680352
Y00690639
Y00700926
X00687578Y00732720
X00609387Y00701767
Y00691480
Y00681193
Y00670906
X00597422
Y00681193
Y00691480
Y00701767
X00585458Y00701767
Y00691480
X00585669Y00681193
Y00670906
X00585978Y00657136
X00597422
X00588518Y00642396
X00590163Y00618236
X00580898Y00618052
X00599948Y00618236
X00572758Y00602277
X00550418Y00599306
X00561722Y00624078
X00560849Y00565965
X00552086Y00563230
X00489458Y00528161
X00496857Y00407612
X00521208Y00415036
X00551374Y00407668
X00584174Y00407612
X00707898Y00408686
X00721308Y00411226
X00742950Y00419100
X00700724Y00474606
X00682289Y00503740
X00667977Y00503936
X00654558Y00502249
X00639318Y00488696
X00692658Y00524256
X00687578Y00543306
X00743602Y00535294
X00754862Y00534771
X00763778Y00535476
X00755729Y00525625
X00775208Y00507684
X00786638Y00509016
X00780288Y00538737
Y00546780
Y00555141
Y00564896
X00789153Y00562292
X00786241Y00580431
X00749300Y00577003
X00787774Y00472814
X00444500Y00407416
X00452005Y00636005
X00456540Y00644216
X00447740Y00670246
X00452955Y00695680
X00450085Y00729936
X00467868Y00731450
X00476250Y00762000
X00482600Y00774700
X00476250Y00787400
X00514350
X00566928Y00736346
X00432308Y00715226
X00422965
X00400271Y00706476
X00404368Y00678981
X00398018Y00622046
X00381000Y00723900
X00336366Y00719836
X00318008Y00723646
Y00735076
X00333375Y00762000
X00314620Y00788036
X00307647Y00782066
X00295682
X00283929
X00277332Y00788036
X00291338Y00769366
X00247650Y00762000
X00221190Y00769366
X00224190Y00732956
X00217840Y00662260
X00237090Y00570836
X00246888Y00526974
X00266700Y00495300
X00270438Y00481656
X00292608Y00492506
X00290068Y00452236
X00252678Y00444956
X00247670Y00458216
X00203708Y00495656
X00306270Y00559816
X00326328Y00561086
X00334518Y00533576
X00381000Y00495300
X00355798Y00444106
X00304800Y00419100
X00314620Y00798322
X00314409Y00808609
Y00818896
X00314620Y00828676
Y00838962
X00314409Y00849249
Y00859536
X00307647Y00868426
X00295682
X00283929
X00277121Y00859536
Y00849249
X00277332Y00838962
Y00828676
X00277121Y00818896
Y00808609
X00277332Y00798322
X00266700Y00800100
X00228600
X00247650Y00838200
X00266700Y00876300
X00228600
X00247650Y00914400
X00277121Y00922655
Y00932942
X00276910Y00943229
Y00953516
X00277121Y00963296
Y00973582
X00276910Y00983869
Y00994156
X00314198
Y00983869
X00314409Y00973582
Y00963296
X00314198Y00953516
Y00943229
X00314409Y00932942
Y00922655
X00307436Y00916686
X00295472
X00283718
X00349250Y00920750
X00381000
X00365125Y00952500
X00333375
X00349250Y00984250
X00381000
X00365125Y00889000
X00333375
X00349250Y00857250
X00381000
X00365125Y00825500
X00333375
X00381000Y00793750
X00228600Y00952500
X00396875
X00428625
X00460375
X00492125
X00523875
X00555625
X00584174Y00952246
X00584384Y00962025
Y00972312
X00584174Y00982599
Y00992886
X00596138Y00992886
Y00982599
Y00972312
Y00962025
Y00952246
Y00941959
Y00931672
Y00921385
X00584384
Y00931672
X00584174Y00941959
X00608102
Y00931672
Y00921385
Y00952246
Y00962025
Y00972312
Y00982599
Y00992886
X00635000Y00984250
X00666750
X00694129Y00983869
Y00994156
X00706094Y00994156
Y00983869
Y00973582
Y00963295
X00706304Y00952246
Y00941959
Y00931672
Y00921385
X00694551
Y00931672
X00694340Y00941959
Y00952246
Y00963295
Y00973582
X00718058
Y00983869
Y00994156
X00730250Y00984250
X00762000
X00777875Y00952500
X00746125
X00718269Y00952246
Y00941959
Y00931672
Y00921385
X00730250Y00920750
X00762000
X00781050Y00863600
X00774700Y00850900
X00781050Y00838200
X00768350
X00755650
X00742950
X00749300Y00825500
X00762000
X00774700
X00781050Y00812800
X00768350
X00755650
X00742950
X00749300Y00800100
X00698811Y00818896
X00666750Y00812800
X00654050
X00641350
X00628650
X00635000Y00825500
X00647700
X00660400
X00666750Y00838200
X00654050
X00641350
X00628650
X00635000Y00850900
X00647700
X00662684Y00883159
X00654558Y00901115
X00625348
X00618998Y00881126
X00619125Y00952500
X00650875
X00682625
X00718058Y00963295
X00666750Y00920750
X00690118Y00885912
X00660400Y00800100
X00635000
X00508000
X00514350Y00812800
X00501650
X00488950
X00476250
X00463550
X00450850
X00457200Y00800100
X00469900
X00482600
Y00825500
X00495300
X00508000
X00520700
X00527050Y00838200
X00539750
X00533400Y00850900
X00520700
X00508000
X00495300
X00501650Y00838200
X00514350
Y00863600
X00527050
X00533400Y00876300
X00546100
X00495300
X00457200
X00419100
X00396875Y00889000
X00412750Y00920750
X00444500
X00476250
X00508000
X00539750
X00571500
Y00984250
X00539750
X00508000
X00476250
X00444500
X00412750
X00438150Y00838200
X00476250
X00488950
X00469900Y00825500
X00444500Y00800100
X00431800
X00863600
X00876300
X00882650Y00812800
X00895350
X00901700Y00825500
X00889000
X00876300
X00863600
X00869950Y00838200
X00882650
X00895350
X00901700Y00850900
X00889000
X00876300
X00882650Y00863600
X00875538Y00899656
X00857250Y00920750
X00837972Y00921385
Y00931672
Y00941959
Y00952246
Y00963295
Y00973582
Y00983869
Y00994156
X00826008
Y00983869
Y00973582
Y00963295
Y00952246
Y00941959
Y00931672
Y00921385
X00814254
Y00931672
X00814044Y00941959
Y00952246
X00814254Y00963295
Y00973582
X00814044Y00983869
Y00994156
X00793750Y00984250
X00857250
X00889000
X00920750
X00952500
X00986840Y00982599
Y00992886
X00987051Y00972312
Y00962026
X00986840Y00952246
Y00941959
X00987051Y00931672
Y00921385
X00993648Y00915416
X01005402
X01017366
X01024339Y00921385
Y00931672
X01024128Y00941959
Y00952246
X01024339Y00962026
Y00972312
X01024128Y00982599
Y00992886
X01066800Y00952500
X01085850Y00914400
X01066800Y00876300
X01028700
X01016096Y00868426
X01004132
X00992378
X00985570Y00859536
Y00849249
X00985781Y00838962
Y00828676
X00985570Y00818896
Y00808609
X00985781Y00798322
X00952500Y00800100
X00901700
X00869950Y00812800
X00971550Y00838200
X01023069Y00838962
Y00828676
X01022858Y00818896
Y00808609
X01023069Y00798322
X01066800Y00800100
X01085850Y00838200
X01047750
X01022858Y00849249
Y00859536
X00952500Y00876300
Y00920750
X00920750
X00936625Y00952500
X00968375
X00904875
X00873125
X00793750Y00920750
T03
X00811381Y00603377
X00913638Y00564896
X01033018Y00479806
X00888238Y00789686
X00814578
X00766318
X00697526
X00647180
X00578298
X00495960
X00688848Y00599730
X00601472Y00433487
X00414219Y00478340
T04
X00942848Y00472186
X00968248
Y00497586
Y00522986
Y00548386
Y00573786
Y00599186
Y00624586
Y00649986
Y00675386
Y00700786
X00942848
Y00675386
Y00649986
Y00624586
Y00599186
Y00573786
Y00548386
Y00522986
Y00497586
X00536448
Y00472186
X00511048
Y00497586
Y00522986
X00536448
Y00548386
Y00573786
Y00599186
Y00624586
Y00649986
Y00675386
Y00700786
X00511048
Y00675386
Y00649986
Y00624586
Y00599186
Y00573786
Y00548386
T05
X01033018Y00511556
X01058418
X01083818
X00385318Y00514096
X00359918
X00334518
X00333168Y00477266
X00358568
X00383968
T06
X01058418Y00557576
Y00607576
Y00657576
Y00707576
Y00757576
T07
X00453657Y00861556
X00548857
X00660057
X00755257
X00850457
T08
X00206248Y00769366
X00307848
M30
