G04*
G04 #@! TF.GenerationSoftware,Altium Limited,Altium Designer,18.1.9 (240)*
G04*
G04 Layer_Color=128*
%FSAX44Y44*%
%MOMM*%
G71*
G01*
G75*
%ADD15C,0.2032*%
%ADD16C,0.2540*%
%ADD120C,0.0508*%
G54D15*
X00885317Y00171450D02*
Y00186685D01*
X00895474Y00171450D01*
Y00186685D01*
X00900552Y00171450D02*
X00910709Y00181607D01*
X00915787Y00171450D02*
Y00181607D01*
X00920865Y00186685D01*
X00925944Y00181607D01*
Y00171450D01*
Y00179067D01*
X00915787D01*
X00746760Y00186685D02*
X00756917D01*
X00751838D01*
Y00171450D01*
X00761995Y00186685D02*
X00767073D01*
X00764534D01*
Y00171450D01*
X00761995D01*
X00767073D01*
X00774691Y00186685D02*
Y00171450D01*
X00782309D01*
X00784848Y00173989D01*
Y00184146D01*
X00782309Y00186685D01*
X00774691D01*
X00807700Y00171450D02*
Y00186685D01*
X00812779D02*
Y00171450D01*
X00805161Y00181607D02*
X00812779D01*
X00815318D01*
X00805161Y00176528D02*
X00815318D01*
X00820396Y00181607D02*
X00822935D01*
Y00179067D01*
X00820396D01*
Y00181607D01*
Y00173989D02*
X00822935D01*
Y00171450D01*
X00820396D01*
Y00173989D01*
X01474470Y00134530D02*
X01484627D01*
X01479548D01*
Y00119295D01*
X01499862Y00134530D02*
X01489705D01*
Y00119295D01*
X01499862D01*
X01489705Y00126912D02*
X01494783D01*
X01504940Y00134530D02*
X01515097Y00119295D01*
Y00134530D02*
X01504940Y00119295D01*
X01520175D02*
Y00129452D01*
X01525254Y00134530D01*
X01530332Y00129452D01*
Y00119295D01*
Y00126912D01*
X01520175D01*
X01545567Y00131991D02*
X01543028Y00134530D01*
X01537950D01*
X01535410Y00131991D01*
Y00129452D01*
X01537950Y00126912D01*
X01543028D01*
X01545567Y00124373D01*
Y00121834D01*
X01543028Y00119295D01*
X01537950D01*
X01535410Y00121834D01*
X01565880Y00134530D02*
X01570959D01*
X01568420D01*
Y00119295D01*
X01565880D01*
X01570959D01*
X01578576D02*
Y00134530D01*
X01588733Y00119295D01*
Y00134530D01*
X01603968Y00131991D02*
X01601429Y00134530D01*
X01596351D01*
X01593811Y00131991D01*
Y00129452D01*
X01596351Y00126912D01*
X01601429D01*
X01603968Y00124373D01*
Y00121834D01*
X01601429Y00119295D01*
X01596351D01*
X01593811Y00121834D01*
X01609046Y00134530D02*
X01619203D01*
X01614125D01*
Y00119295D01*
X01624281D02*
Y00134530D01*
X01631899D01*
X01634438Y00131991D01*
Y00126912D01*
X01631899Y00124373D01*
X01624281D01*
X01629360D02*
X01634438Y00119295D01*
X01639517Y00134530D02*
Y00121834D01*
X01642056Y00119295D01*
X01647134D01*
X01649673Y00121834D01*
Y00134530D01*
X01654752Y00119295D02*
Y00134530D01*
X01659830Y00129452D01*
X01664908Y00134530D01*
Y00119295D01*
X01680143Y00134530D02*
X01669987D01*
Y00119295D01*
X01680143D01*
X01669987Y00126912D02*
X01675065D01*
X01685222Y00119295D02*
Y00134530D01*
X01695379Y00119295D01*
Y00134530D01*
X01700457D02*
X01710614D01*
X01705535D01*
Y00119295D01*
X01725849Y00131991D02*
X01723309Y00134530D01*
X01718231D01*
X01715692Y00131991D01*
Y00129452D01*
X01718231Y00126912D01*
X01723309D01*
X01725849Y00124373D01*
Y00121834D01*
X01723309Y00119295D01*
X01718231D01*
X01715692Y00121834D01*
X01153287Y00131991D02*
X01155826Y00134530D01*
X01160904D01*
X01163444Y00131991D01*
Y00129452D01*
X01160904Y00126912D01*
X01158365D01*
X01160904D01*
X01163444Y00124373D01*
Y00121834D01*
X01160904Y00119295D01*
X01155826D01*
X01153287Y00121834D01*
X01168522Y00129452D02*
X01171061D01*
Y00126912D01*
X01168522D01*
Y00129452D01*
Y00121834D02*
X01171061D01*
Y00119295D01*
X01168522D01*
Y00121834D01*
X01191375Y00134530D02*
X01181218D01*
Y00126912D01*
X01186296Y00129452D01*
X01188836D01*
X01191375Y00126912D01*
Y00121834D01*
X01188836Y00119295D01*
X01183757D01*
X01181218Y00121834D01*
X01196453D02*
X01198992Y00119295D01*
X01204071D01*
X01206610Y00121834D01*
Y00131991D01*
X01204071Y00134530D01*
X01198992D01*
X01196453Y00131991D01*
Y00129452D01*
X01198992Y00126912D01*
X01206610D01*
X01211688Y00129452D02*
X01214227D01*
Y00126912D01*
X01211688D01*
Y00129452D01*
Y00121834D02*
X01214227D01*
Y00119295D01*
X01211688D01*
Y00121834D01*
X01232001Y00119295D02*
Y00134530D01*
X01224384Y00126912D01*
X01234541D01*
X01239619Y00121834D02*
X01242158Y00119295D01*
X01247237D01*
X01249776Y00121834D01*
Y00131991D01*
X01247237Y00134530D01*
X01242158D01*
X01239619Y00131991D01*
Y00129452D01*
X01242158Y00126912D01*
X01249776D01*
X01270089Y00119295D02*
Y00134530D01*
X01277707D01*
X01280246Y00131991D01*
Y00126912D01*
X01277707Y00124373D01*
X01270089D01*
X01285324Y00119295D02*
Y00134530D01*
X01290403Y00129452D01*
X01295481Y00134530D01*
Y00119295D01*
X00117729D02*
Y00134530D01*
X00125346D01*
X00127886Y00131991D01*
Y00126912D01*
X00125346Y00124373D01*
X00117729D01*
X00132964Y00134530D02*
Y00119295D01*
X00143121D01*
X00155817Y00134530D02*
X00150738D01*
X00148199Y00131991D01*
Y00121834D01*
X00150738Y00119295D01*
X00155817D01*
X00158356Y00121834D01*
Y00131991D01*
X00155817Y00134530D01*
X00163434D02*
X00173591D01*
X00168513D01*
Y00119295D01*
X00193904D02*
Y00134530D01*
X00204061Y00119295D01*
Y00134530D01*
X00209139Y00119295D02*
Y00129452D01*
X00214218Y00134530D01*
X00219296Y00129452D01*
Y00119295D01*
Y00126912D01*
X00209139D01*
X00224375Y00119295D02*
Y00134530D01*
X00229453Y00129452D01*
X00234531Y00134530D01*
Y00119295D01*
X00249766Y00134530D02*
X00239610D01*
Y00119295D01*
X00249766D01*
X00239610Y00126912D02*
X00244688D01*
X00270080Y00124373D02*
X00280236D01*
X00270080Y00129452D02*
X00280236D01*
X00117729Y00186814D02*
Y00171579D01*
X00127886D01*
X00132964D02*
Y00181735D01*
X00138042Y00186814D01*
X00143121Y00181735D01*
Y00171579D01*
Y00179196D01*
X00132964D01*
X00148199Y00186814D02*
Y00184275D01*
X00153278Y00179196D01*
X00158356Y00184275D01*
Y00186814D01*
X00153278Y00179196D02*
Y00171579D01*
X00173591Y00186814D02*
X00163434D01*
Y00171579D01*
X00173591D01*
X00163434Y00179196D02*
X00168513D01*
X00178669Y00171579D02*
Y00186814D01*
X00186287D01*
X00188826Y00184275D01*
Y00179196D01*
X00186287Y00176657D01*
X00178669D01*
X00183748D02*
X00188826Y00171579D01*
X00209139D02*
Y00186814D01*
X00219296Y00171579D01*
Y00186814D01*
X00224375Y00171579D02*
Y00181735D01*
X00229453Y00186814D01*
X00234531Y00181735D01*
Y00171579D01*
Y00179196D01*
X00224375D01*
X00239610Y00171579D02*
Y00186814D01*
X00244688Y00181735D01*
X00249766Y00186814D01*
Y00171579D01*
X00265001Y00186814D02*
X00254845D01*
Y00171579D01*
X00265001D01*
X00254845Y00179196D02*
X00259923D01*
X00285315Y00176657D02*
X00295471D01*
X00285315Y00181735D02*
X00295471D01*
X00746760Y00238332D02*
Y00223097D01*
X00754378D01*
X00756917Y00225636D01*
Y00228175D01*
X00754378Y00230714D01*
X00746760D01*
X00754378D01*
X00756917Y00233253D01*
Y00235793D01*
X00754378Y00238332D01*
X00746760D01*
X00769613D02*
X00764534D01*
X00761995Y00235793D01*
Y00225636D01*
X00764534Y00223097D01*
X00769613D01*
X00772152Y00225636D01*
Y00235793D01*
X00769613Y00238332D01*
X00777230Y00223097D02*
Y00233253D01*
X00782309Y00238332D01*
X00787387Y00233253D01*
Y00223097D01*
Y00230714D01*
X00777230D01*
X00792465Y00223097D02*
Y00238332D01*
X00800083D01*
X00802622Y00235793D01*
Y00230714D01*
X00800083Y00228175D01*
X00792465D01*
X00797544D02*
X00802622Y00223097D01*
X00807700Y00238332D02*
Y00223097D01*
X00815318D01*
X00817857Y00225636D01*
Y00235793D01*
X00815318Y00238332D01*
X00807700D01*
X00840710Y00223097D02*
Y00238332D01*
X00845788D02*
Y00223097D01*
X00838170Y00233253D02*
X00845788D01*
X00848327D01*
X00838170Y00228175D02*
X00848327D01*
X00853406Y00233253D02*
X00855945D01*
Y00230714D01*
X00853406D01*
Y00233253D01*
Y00225636D02*
X00855945D01*
Y00223097D01*
X00853406D01*
Y00225636D01*
X00885317Y00223097D02*
Y00238332D01*
X00890395Y00233253D01*
X00895474Y00238332D01*
Y00223097D01*
X00900552Y00238332D02*
Y00223097D01*
X00908170D01*
X00910709Y00225636D01*
Y00235793D01*
X00908170Y00238332D01*
X00900552D01*
X00915787Y00235793D02*
X00918326Y00238332D01*
X00923405D01*
X00925944Y00235793D01*
Y00225636D01*
X00923405Y00223097D01*
X00918326D01*
X00915787Y00225636D01*
Y00235793D01*
X00941179Y00223097D02*
X00931022D01*
X00941179Y00233253D01*
Y00235793D01*
X00938640Y00238332D01*
X00933561D01*
X00931022Y00235793D01*
X00946257Y00225636D02*
X00948796Y00223097D01*
X00953875D01*
X00956414Y00225636D01*
Y00235793D01*
X00953875Y00238332D01*
X00948796D01*
X00946257Y00235793D01*
Y00233253D01*
X00948796Y00230714D01*
X00956414D01*
X01173861Y00223097D02*
Y00233253D01*
X01178939Y00238332D01*
X01184018Y00233253D01*
Y00223097D01*
Y00230714D01*
X01173861D01*
X00117729Y00223097D02*
Y00233253D01*
X00122807Y00238332D01*
X00127886Y00233253D01*
Y00223097D01*
Y00230714D01*
X00117729D01*
X00132964Y00238332D02*
Y00223097D01*
X00143121D01*
X00148199Y00238332D02*
Y00223097D01*
X00158356D01*
X00178669D02*
Y00233253D01*
X00183748Y00238332D01*
X00188826Y00233253D01*
Y00223097D01*
Y00230714D01*
X00178669D01*
X00193904Y00223097D02*
Y00238332D01*
X00201522D01*
X00204061Y00235793D01*
Y00230714D01*
X00201522Y00228175D01*
X00193904D01*
X00198983D02*
X00204061Y00223097D01*
X00209139Y00238332D02*
X00219296D01*
X00214218D01*
Y00223097D01*
X00224375Y00238332D02*
Y00223097D01*
X00229453Y00228175D01*
X00234531Y00223097D01*
Y00238332D01*
X00247227D02*
X00242149D01*
X00239610Y00235793D01*
Y00225636D01*
X00242149Y00223097D01*
X00247227D01*
X00249766Y00225636D01*
Y00235793D01*
X00247227Y00238332D01*
X00254845Y00223097D02*
Y00238332D01*
X00262462D01*
X00265001Y00235793D01*
Y00230714D01*
X00262462Y00228175D01*
X00254845D01*
X00259923D02*
X00265001Y00223097D01*
X00270080Y00238332D02*
Y00223097D01*
Y00228175D01*
X00280236Y00238332D01*
X00272619Y00230714D01*
X00280236Y00223097D01*
X00300550Y00238332D02*
Y00228175D01*
X00305628Y00223097D01*
X00310707Y00228175D01*
Y00238332D01*
X00315785D02*
X00320863D01*
X00318324D01*
Y00223097D01*
X00315785D01*
X00320863D01*
X00338638Y00238332D02*
X00328481D01*
Y00223097D01*
X00338638D01*
X00328481Y00230714D02*
X00333559D01*
X00343716Y00238332D02*
Y00223097D01*
X00348794Y00228175D01*
X00353873Y00223097D01*
Y00238332D01*
X00369108D02*
X00358951D01*
Y00223097D01*
X00369108D01*
X00358951Y00230714D02*
X00364029D01*
X00374186Y00238332D02*
Y00223097D01*
X00381804D01*
X00384343Y00225636D01*
Y00235793D01*
X00381804Y00238332D01*
X00374186D01*
X00414813D02*
X00404656D01*
Y00230714D01*
X00409734D01*
X00404656D01*
Y00223097D01*
X00419891D02*
Y00238332D01*
X00427509D01*
X00430048Y00235793D01*
Y00230714D01*
X00427509Y00228175D01*
X00419891D01*
X00424970D02*
X00430048Y00223097D01*
X00442744Y00238332D02*
X00437665D01*
X00435126Y00235793D01*
Y00225636D01*
X00437665Y00223097D01*
X00442744D01*
X00445283Y00225636D01*
Y00235793D01*
X00442744Y00238332D01*
X00450361Y00223097D02*
Y00238332D01*
X00455440Y00233253D01*
X00460518Y00238332D01*
Y00223097D01*
X00480832Y00238332D02*
X00490988D01*
X00485910D01*
Y00223097D01*
X00503684Y00238332D02*
X00498606D01*
X00496067Y00235793D01*
Y00225636D01*
X00498606Y00223097D01*
X00503684D01*
X00506223Y00225636D01*
Y00235793D01*
X00503684Y00238332D01*
X00511302Y00223097D02*
Y00238332D01*
X00518919D01*
X00521458Y00235793D01*
Y00230714D01*
X00518919Y00228175D01*
X00511302D01*
X00551929Y00235793D02*
X00549389Y00238332D01*
X00544311D01*
X00541772Y00235793D01*
Y00233253D01*
X00544311Y00230714D01*
X00549389D01*
X00551929Y00228175D01*
Y00225636D01*
X00549389Y00223097D01*
X00544311D01*
X00541772Y00225636D01*
X00557007Y00238332D02*
X00562085D01*
X00559546D01*
Y00223097D01*
X00557007D01*
X00562085D01*
X00569703Y00238332D02*
Y00223097D01*
X00577320D01*
X00579860Y00225636D01*
Y00235793D01*
X00577320Y00238332D01*
X00569703D01*
X00595095D02*
X00584938D01*
Y00223097D01*
X00595095D01*
X00584938Y00230714D02*
X00590016D01*
X00757425Y00131991D02*
X00754885Y00134530D01*
X00749807D01*
X00747268Y00131991D01*
Y00121834D01*
X00749807Y00119295D01*
X00754885D01*
X00757425Y00121834D01*
Y00126912D01*
X00752346D01*
X00772660Y00134530D02*
X00762503D01*
Y00119295D01*
X00772660D01*
X00762503Y00126912D02*
X00767581D01*
X00777738Y00119295D02*
Y00134530D01*
X00787895Y00119295D01*
Y00134530D01*
X00803130D02*
X00792973D01*
Y00119295D01*
X00803130D01*
X00792973Y00126912D02*
X00798052D01*
X00808208Y00119295D02*
Y00134530D01*
X00815826D01*
X00818365Y00131991D01*
Y00126912D01*
X00815826Y00124373D01*
X00808208D01*
X00813287D02*
X00818365Y00119295D01*
X00823443D02*
Y00129452D01*
X00828522Y00134530D01*
X00833600Y00129452D01*
Y00119295D01*
Y00126912D01*
X00823443D01*
X00838678Y00134530D02*
X00848835D01*
X00843757D01*
Y00119295D01*
X00864070Y00134530D02*
X00853913D01*
Y00119295D01*
X00864070D01*
X00853913Y00126912D02*
X00858992D01*
X00869149Y00134530D02*
Y00119295D01*
X00876766D01*
X00879305Y00121834D01*
Y00131991D01*
X00876766Y00134530D01*
X00869149D01*
X00945324Y00129452D02*
X00947863D01*
Y00126912D01*
X00945324D01*
Y00129452D01*
Y00121834D02*
X00947863D01*
Y00119295D01*
X00945324D01*
Y00121834D01*
X00968121Y00119295D02*
X00973199D01*
X00970660D01*
Y00134530D01*
X00968121Y00131991D01*
X00980817D02*
X00983356Y00134530D01*
X00988434D01*
X00990974Y00131991D01*
Y00121834D01*
X00988434Y00119295D01*
X00983356D01*
X00980817Y00121834D01*
Y00131991D01*
X00996052Y00119295D02*
X01006209Y00129452D01*
X01021444Y00119295D02*
X01011287D01*
X01021444Y00129452D01*
Y00131991D01*
X01018905Y00134530D01*
X01013826D01*
X01011287Y00131991D01*
X01036679Y00134530D02*
X01031600Y00131991D01*
X01026522Y00126912D01*
Y00121834D01*
X01029061Y00119295D01*
X01034140D01*
X01036679Y00121834D01*
Y00124373D01*
X01034140Y00126912D01*
X01026522D01*
X01041757Y00119295D02*
X01051914Y00129452D01*
X01067149Y00119295D02*
X01056992D01*
X01067149Y00129452D01*
Y00131991D01*
X01064610Y00134530D01*
X01059531D01*
X01056992Y00131991D01*
X01072227D02*
X01074766Y00134530D01*
X01079845D01*
X01082384Y00131991D01*
Y00121834D01*
X01079845Y00119295D01*
X01074766D01*
X01072227Y00121834D01*
Y00131991D01*
X01097619Y00119295D02*
X01087462D01*
X01097619Y00129452D01*
Y00131991D01*
X01095080Y00134530D01*
X01090002D01*
X01087462Y00131991D01*
X01102698D02*
X01105237Y00134530D01*
X01110315D01*
X01112854Y00131991D01*
Y00121834D01*
X01110315Y00119295D01*
X01105237D01*
X01102698Y00121834D01*
Y00131991D01*
X00322326Y00119295D02*
Y00134530D01*
X00327404Y00129452D01*
X00332483Y00134530D01*
Y00119295D01*
X00337561Y00134530D02*
Y00119295D01*
X00345179D01*
X00347718Y00121834D01*
Y00131991D01*
X00345179Y00134530D01*
X00337561D01*
X00352796Y00131991D02*
X00355335Y00134530D01*
X00360414D01*
X00362953Y00131991D01*
Y00121834D01*
X00360414Y00119295D01*
X00355335D01*
X00352796Y00121834D01*
Y00131991D01*
X00378188Y00119295D02*
X00368031D01*
X00378188Y00129452D01*
Y00131991D01*
X00375649Y00134530D01*
X00370570D01*
X00368031Y00131991D01*
X00383266Y00121834D02*
X00385806Y00119295D01*
X00390884D01*
X00393423Y00121834D01*
Y00131991D01*
X00390884Y00134530D01*
X00385806D01*
X00383266Y00131991D01*
Y00129452D01*
X00385806Y00126912D01*
X00393423D01*
X00398501Y00119295D02*
Y00129452D01*
X00403580Y00134530D01*
X00408658Y00129452D01*
Y00119295D01*
Y00126912D01*
X00398501D01*
X00413736Y00119295D02*
Y00121834D01*
X00416276D01*
Y00119295D01*
X00413736D01*
X00436589Y00131991D02*
X00434050Y00134530D01*
X00428971D01*
X00426432Y00131991D01*
Y00121834D01*
X00428971Y00119295D01*
X00434050D01*
X00436589Y00121834D01*
Y00126912D01*
X00431511D01*
X00451824Y00131991D02*
X00449285Y00134530D01*
X00444207D01*
X00441667Y00131991D01*
Y00121834D01*
X00444207Y00119295D01*
X00449285D01*
X00451824Y00121834D01*
Y00126912D01*
X00446746D01*
X00456903Y00119295D02*
X00461981D01*
X00459442D01*
Y00134530D01*
X00456903Y00131991D01*
X01099820Y00223097D02*
Y00238332D01*
X01107438D01*
X01109977Y00235793D01*
Y00230714D01*
X01107438Y00228175D01*
X01099820D01*
X01104898D02*
X01109977Y00223097D01*
X01125212Y00238332D02*
X01115055D01*
Y00223097D01*
X01125212D01*
X01115055Y00230714D02*
X01120133D01*
X01130290Y00238332D02*
Y00228175D01*
X01135368Y00223097D01*
X01140447Y00228175D01*
Y00238332D01*
X01145525Y00233253D02*
X01148064D01*
Y00230714D01*
X01145525D01*
Y00233253D01*
Y00225636D02*
X01148064D01*
Y00223097D01*
X01145525D01*
Y00225636D01*
X01322829Y00235793D02*
X01320289Y00238332D01*
X01315211D01*
X01312672Y00235793D01*
Y00233253D01*
X01315211Y00230714D01*
X01320289D01*
X01322829Y00228175D01*
Y00225636D01*
X01320289Y00223097D01*
X01315211D01*
X01312672Y00225636D01*
X01327907Y00238332D02*
Y00228175D01*
X01332985Y00223097D01*
X01338064Y00228175D01*
Y00238332D01*
X01343142Y00223097D02*
Y00238332D01*
X01353299Y00223097D01*
Y00238332D01*
X01373612Y00223097D02*
Y00238332D01*
X01381230D01*
X01383769Y00235793D01*
Y00230714D01*
X01381230Y00228175D01*
X01373612D01*
X01378691D02*
X01383769Y00223097D01*
X01399004Y00238332D02*
X01388847D01*
Y00223097D01*
X01399004D01*
X01388847Y00230714D02*
X01393926D01*
X01404082Y00238332D02*
Y00228175D01*
X01409161Y00223097D01*
X01414239Y00228175D01*
Y00238332D01*
X01419317Y00233253D02*
X01421857D01*
Y00230714D01*
X01419317D01*
Y00233253D01*
Y00225636D02*
X01421857D01*
Y00223097D01*
X01419317D01*
Y00225636D01*
X01441196Y00223097D02*
Y00238332D01*
X01451353Y00223097D01*
Y00238332D01*
X01458970Y00223097D02*
X01464049D01*
X01466588Y00225636D01*
Y00230714D01*
X01464049Y00233253D01*
X01458970D01*
X01456431Y00230714D01*
Y00225636D01*
X01458970Y00223097D01*
X01474205Y00235793D02*
Y00233253D01*
X01471666D01*
X01476745D01*
X01474205D01*
Y00225636D01*
X01476745Y00223097D01*
X01499597Y00238332D02*
X01504675D01*
X01502136D01*
Y00223097D01*
X01499597D01*
X01504675D01*
X01512293D02*
Y00233253D01*
X01519910D01*
X01522450Y00230714D01*
Y00223097D01*
X01542763Y00238332D02*
Y00228175D01*
X01547841Y00223097D01*
X01552920Y00228175D01*
Y00238332D01*
X01565616Y00223097D02*
X01560537D01*
X01557998Y00225636D01*
Y00230714D01*
X01560537Y00233253D01*
X01565616D01*
X01568155Y00230714D01*
Y00228175D01*
X01557998D01*
X01573233Y00233253D02*
Y00223097D01*
Y00228175D01*
X01575773Y00230714D01*
X01578312Y00233253D01*
X01580851D01*
X01588468Y00223097D02*
X01596086D01*
X01598625Y00225636D01*
X01596086Y00228175D01*
X01591008D01*
X01588468Y00230714D01*
X01591008Y00233253D01*
X01598625D01*
X01603703Y00223097D02*
X01608782D01*
X01606243D01*
Y00233253D01*
X01603703D01*
X01618938Y00223097D02*
X01624017D01*
X01626556Y00225636D01*
Y00230714D01*
X01624017Y00233253D01*
X01618938D01*
X01616399Y00230714D01*
Y00225636D01*
X01618938Y00223097D01*
X01631634D02*
Y00233253D01*
X01639252D01*
X01641791Y00230714D01*
Y00223097D01*
X01657026Y00235793D02*
X01654487Y00238332D01*
X01649409D01*
X01646870Y00235793D01*
Y00225636D01*
X01649409Y00223097D01*
X01654487D01*
X01657026Y00225636D01*
X01664644Y00223097D02*
X01669722D01*
X01672261Y00225636D01*
Y00230714D01*
X01669722Y00233253D01*
X01664644D01*
X01662104Y00230714D01*
Y00225636D01*
X01664644Y00223097D01*
X01677340D02*
Y00233253D01*
X01684957D01*
X01687496Y00230714D01*
Y00223097D01*
X01695114Y00235793D02*
Y00233253D01*
X01692575D01*
X01697653D01*
X01695114D01*
Y00225636D01*
X01697653Y00223097D01*
X01705271Y00233253D02*
Y00223097D01*
Y00228175D01*
X01707810Y00230714D01*
X01710349Y00233253D01*
X01712888D01*
X01723045Y00223097D02*
X01728123D01*
X01730662Y00225636D01*
Y00230714D01*
X01728123Y00233253D01*
X01723045D01*
X01720506Y00230714D01*
Y00225636D01*
X01723045Y00223097D01*
X01735741D02*
X01740819D01*
X01738280D01*
Y00238332D01*
X01735741D01*
X00322326Y00186814D02*
Y00171579D01*
X00329944D01*
X00332483Y00174118D01*
Y00184275D01*
X00329944Y00186814D01*
X00322326D01*
X00337561Y00181735D02*
Y00171579D01*
Y00176657D01*
X00340100Y00179196D01*
X00342639Y00181735D01*
X00345179D01*
X00352796Y00171579D02*
X00357874D01*
X00355335D01*
Y00181735D01*
X00352796D01*
X00365492Y00171579D02*
X00370570D01*
X00368031D01*
Y00186814D01*
X00365492D01*
X00378188Y00171579D02*
X00383266D01*
X00380727D01*
Y00186814D01*
X00378188D01*
X00416276Y00184275D02*
X00413736Y00186814D01*
X00408658D01*
X00406119Y00184275D01*
Y00174118D01*
X00408658Y00171579D01*
X00413736D01*
X00416276Y00174118D01*
Y00179196D01*
X00411197D01*
X00421354Y00181735D02*
Y00174118D01*
X00423893Y00171579D01*
X00431511D01*
Y00181735D01*
X00436589Y00171579D02*
X00441667D01*
X00439128D01*
Y00181735D01*
X00436589D01*
X00459442Y00186814D02*
Y00171579D01*
X00451824D01*
X00449285Y00174118D01*
Y00179196D01*
X00451824Y00181735D01*
X00459442D01*
X00472137Y00171579D02*
X00467059D01*
X00464520Y00174118D01*
Y00179196D01*
X00467059Y00181735D01*
X00472137D01*
X00474677Y00179196D01*
Y00176657D01*
X00464520D01*
G54D16*
X01420876Y00100076D02*
Y00151596D01*
X01118870Y00101727D02*
X01778508D01*
Y00256667D01*
X00727710Y00101727D02*
Y00256667D01*
X00101600Y00101727D02*
Y00256667D01*
X00101727Y00101727D02*
X00501904D01*
X00101727D02*
Y00256667D01*
X01778508D01*
X00101600Y00101727D02*
X01118870D01*
X00101600Y00153374D02*
X01778000D01*
X00101600Y00205020D02*
X01778508D01*
X01049528D02*
Y00256667D01*
X01262888Y00205020D02*
Y00256667D01*
G54D120*
X00379568Y00514096D02*
X00391068D01*
X00385318Y00508346D02*
Y00519846D01*
X00354168Y00514096D02*
X00365668D01*
X00359918Y00508346D02*
Y00519846D01*
X00328768Y00514096D02*
X00340268D01*
X00334518Y00508346D02*
Y00519846D01*
X00963148Y00472186D02*
X00973348D01*
X00968248Y00467086D02*
Y00477286D01*
X00963148Y00497586D02*
X00973348D01*
X00968248Y00492486D02*
Y00502686D01*
X00963148Y00522986D02*
X00973348D01*
X00968248Y00517886D02*
Y00528086D01*
X00963148Y00548386D02*
X00973348D01*
X00968248Y00543286D02*
Y00553486D01*
X00963148Y00573786D02*
X00973348D01*
X00968248Y00568686D02*
Y00578886D01*
X00963148Y00599186D02*
X00973348D01*
X00968248Y00594086D02*
Y00604286D01*
X00963148Y00624586D02*
X00973348D01*
X00968248Y00619486D02*
Y00629686D01*
X00963148Y00649986D02*
X00973348D01*
X00968248Y00644886D02*
Y00655086D01*
X00963148Y00675386D02*
X00973348D01*
X00968248Y00670286D02*
Y00680486D01*
X00963148Y00700786D02*
X00973348D01*
X00968248Y00695686D02*
Y00705886D01*
X00937748Y00472186D02*
X00947948D01*
X00942848Y00467086D02*
Y00477286D01*
X00937748Y00497586D02*
X00947948D01*
X00942848Y00492486D02*
Y00502686D01*
X00937748Y00522986D02*
X00947948D01*
X00942848Y00517886D02*
Y00528086D01*
X00937748Y00548386D02*
X00947948D01*
X00942848Y00543286D02*
Y00553486D01*
X00937748Y00573786D02*
X00947948D01*
X00942848Y00568686D02*
Y00578886D01*
X00937748Y00599186D02*
X00947948D01*
X00942848Y00594086D02*
Y00604286D01*
X00937748Y00624586D02*
X00947948D01*
X00942848Y00619486D02*
Y00629686D01*
X00937748Y00649986D02*
X00947948D01*
X00942848Y00644886D02*
Y00655086D01*
X00937748Y00675386D02*
X00947948D01*
X00942848Y00670286D02*
Y00680486D01*
X00937748Y00700786D02*
X00947948D01*
X00942848Y00695686D02*
Y00705886D01*
X00748757Y00861556D02*
X00761757D01*
X00755257Y00855056D02*
Y00868056D01*
X00843957Y00861556D02*
X00856957D01*
X00850457Y00855056D02*
Y00868056D01*
X00653557Y00861556D02*
X00666557D01*
X00660057Y00855056D02*
Y00868056D01*
X00447157Y00861556D02*
X00460157D01*
X00453657Y00855056D02*
Y00868056D01*
X00542357Y00861556D02*
X00555357D01*
X00548857Y00855056D02*
Y00868056D01*
X01052418Y00757576D02*
X01064418D01*
X01058418Y00751576D02*
Y00763576D01*
X01052418Y00707576D02*
X01064418D01*
X01058418Y00701576D02*
Y00713576D01*
X01052418Y00657576D02*
X01064418D01*
X01058418Y00651576D02*
Y00663576D01*
X01052418Y00607576D02*
X01064418D01*
X01058418Y00601576D02*
Y00613576D01*
X01052418Y00557576D02*
X01064418D01*
X01058418Y00551576D02*
Y00563576D01*
X00908558Y00564896D02*
X00918718D01*
X00913638Y00559816D02*
Y00569976D01*
X00490880Y00789686D02*
X00501040D01*
X00495960Y00784606D02*
Y00794766D01*
X00301348Y00769366D02*
X00314348D01*
X00307848Y00762866D02*
Y00775866D01*
X00199748Y00769366D02*
X00212748D01*
X00206248Y00762866D02*
Y00775866D01*
X00531348Y00472186D02*
X00541548D01*
X00536448Y00467086D02*
Y00477286D01*
X00531348Y00497586D02*
X00541548D01*
X00536448Y00492486D02*
Y00502686D01*
X00531348Y00522986D02*
X00541548D01*
X00536448Y00517886D02*
Y00528086D01*
X00531348Y00548386D02*
X00541548D01*
X00536448Y00543286D02*
Y00553486D01*
X00531348Y00573786D02*
X00541548D01*
X00536448Y00568686D02*
Y00578886D01*
X00531348Y00599186D02*
X00541548D01*
X00536448Y00594086D02*
Y00604286D01*
X00531348Y00624586D02*
X00541548D01*
X00536448Y00619486D02*
Y00629686D01*
X00531348Y00649986D02*
X00541548D01*
X00536448Y00644886D02*
Y00655086D01*
X00531348Y00675386D02*
X00541548D01*
X00536448Y00670286D02*
Y00680486D01*
X00531348Y00700786D02*
X00541548D01*
X00536448Y00695686D02*
Y00705886D01*
X00505948Y00472186D02*
X00516148D01*
X00511048Y00467086D02*
Y00477286D01*
X00505948Y00497586D02*
X00516148D01*
X00511048Y00492486D02*
Y00502686D01*
X00505948Y00522986D02*
X00516148D01*
X00511048Y00517886D02*
Y00528086D01*
X00505948Y00548386D02*
X00516148D01*
X00511048Y00543286D02*
Y00553486D01*
X00505948Y00573786D02*
X00516148D01*
X00511048Y00568686D02*
Y00578886D01*
X00505948Y00599186D02*
X00516148D01*
X00511048Y00594086D02*
Y00604286D01*
X00505948Y00624586D02*
X00516148D01*
X00511048Y00619486D02*
Y00629686D01*
X00505948Y00649986D02*
X00516148D01*
X00511048Y00644886D02*
Y00655086D01*
X00505948Y00675386D02*
X00516148D01*
X00511048Y00670286D02*
Y00680486D01*
X00505948Y00700786D02*
X00516148D01*
X00511048Y00695686D02*
Y00705886D01*
X01027268Y00511556D02*
X01038768D01*
X01033018Y00505806D02*
Y00517306D01*
X01052668Y00511556D02*
X01064168D01*
X01058418Y00505806D02*
Y00517306D01*
X01078068Y00511556D02*
X01089568D01*
X01083818Y00505806D02*
Y00517306D01*
X00378218Y00477266D02*
X00389718D01*
X00383968Y00471516D02*
Y00483016D01*
X00352818Y00477266D02*
X00364318D01*
X00358568Y00471516D02*
Y00483016D01*
X00327418Y00477266D02*
X00338918D01*
X00333168Y00471516D02*
Y00483016D01*
X00596392Y00433487D02*
X00606552D01*
X00601472Y00428407D02*
Y00438567D01*
X00409139Y00478340D02*
X00419299D01*
X00414219Y00473260D02*
Y00483420D01*
X01027938Y00479806D02*
X01038098D01*
X01033018Y00474726D02*
Y00484886D01*
X00573218Y00789686D02*
X00583378D01*
X00578298Y00784606D02*
Y00794766D01*
X00692446Y00789686D02*
X00702606D01*
X00697526Y00784606D02*
Y00794766D01*
X00642100Y00789686D02*
X00652260D01*
X00647180Y00784606D02*
Y00794766D01*
X00761238Y00789686D02*
X00771398D01*
X00766318Y00784606D02*
Y00794766D01*
X00683768Y00599730D02*
X00693928D01*
X00688848Y00594650D02*
Y00604810D01*
X00806301Y00603377D02*
X00816461D01*
X00811381Y00598297D02*
Y00608457D01*
X00809498Y00789686D02*
X00819658D01*
X00814578Y00784606D02*
Y00794766D01*
X00883158Y00789686D02*
X00893318D01*
X00888238Y00784606D02*
Y00794766D01*
X00262710Y00682156D02*
X00264710D01*
X00263710Y00681156D02*
Y00683156D01*
X00262710Y00671156D02*
X00264710D01*
X00263710Y00670156D02*
Y00672156D01*
X00249710Y00682156D02*
X00251710D01*
X00250710Y00681156D02*
Y00683156D01*
X00249710Y00671156D02*
X00251710D01*
X00250710Y00670156D02*
Y00672156D01*
X00275710Y00671156D02*
X00277710D01*
X00276710Y00670156D02*
Y00672156D01*
X00275710Y00682156D02*
X00277710D01*
X00276710Y00681156D02*
Y00683156D01*
X00236710Y00682156D02*
X00238710D01*
X00237710Y00681156D02*
Y00683156D01*
X00236710Y00671156D02*
X00238710D01*
X00237710Y00670156D02*
Y00672156D01*
X01065530Y00952500D02*
X01068070D01*
X01066800Y00951230D02*
Y00953770D01*
X01084580Y00914400D02*
X01087120D01*
X01085850Y00913130D02*
Y00915670D01*
X01065530Y00876300D02*
X01068070D01*
X01066800Y00875030D02*
Y00877570D01*
X01084580Y00838200D02*
X01087120D01*
X01085850Y00836930D02*
Y00839470D01*
X01065530Y00800100D02*
X01068070D01*
X01066800Y00798830D02*
Y00801370D01*
X01084580Y00762000D02*
X01087120D01*
X01085850Y00760730D02*
Y00763270D01*
X01065530Y00495300D02*
X01068070D01*
X01066800Y00494030D02*
Y00496570D01*
X01065530Y00419100D02*
X01068070D01*
X01066800Y00417830D02*
Y00420370D01*
X01027430Y00876300D02*
X01029970D01*
X01028700Y00875030D02*
Y00877570D01*
X01046480Y00838200D02*
X01049020D01*
X01047750Y00836930D02*
Y00839470D01*
X01027430Y00723900D02*
X01029970D01*
X01028700Y00722630D02*
Y00725170D01*
X01046480Y00685800D02*
X01049020D01*
X01047750Y00684530D02*
Y00687070D01*
X01027430Y00647700D02*
X01029970D01*
X01028700Y00646430D02*
Y00648970D01*
X01027430Y00571500D02*
X01029970D01*
X01028700Y00570230D02*
Y00572770D01*
X01046480Y00457200D02*
X01049020D01*
X01047750Y00455930D02*
Y00458470D01*
X01027430Y00419100D02*
X01029970D01*
X01028700Y00417830D02*
Y00420370D01*
X01008380Y00762000D02*
X01010920D01*
X01009650Y00760730D02*
Y00763270D01*
X01008380Y00685800D02*
X01010920D01*
X01009650Y00684530D02*
Y00687070D01*
X01008380Y00609600D02*
X01010920D01*
X01009650Y00608330D02*
Y00610870D01*
X01008380Y00457200D02*
X01010920D01*
X01009650Y00455930D02*
Y00458470D01*
X00989330Y00419100D02*
X00991870D01*
X00990600Y00417830D02*
Y00420370D01*
X00951230Y00876300D02*
X00953770D01*
X00952500Y00875030D02*
Y00877570D01*
X00970280Y00838200D02*
X00972820D01*
X00971550Y00836930D02*
Y00839470D01*
X00951230Y00800100D02*
X00953770D01*
X00952500Y00798830D02*
Y00801370D01*
X00970280Y00762000D02*
X00972820D01*
X00971550Y00760730D02*
Y00763270D01*
X00951230Y00723900D02*
X00953770D01*
X00952500Y00722630D02*
Y00725170D01*
X00951230Y00419100D02*
X00953770D01*
X00952500Y00417830D02*
Y00420370D01*
X00932180Y00457200D02*
X00934720D01*
X00933450Y00455930D02*
Y00458470D01*
X00894080Y00457200D02*
X00896620D01*
X00895350Y00455930D02*
Y00458470D01*
X00551180Y00762000D02*
X00553720D01*
X00552450Y00760730D02*
Y00763270D01*
X00494030Y00876300D02*
X00496570D01*
X00495300Y00875030D02*
Y00877570D01*
X00513080Y00762000D02*
X00515620D01*
X00514350Y00760730D02*
Y00763270D01*
X00455930Y00876300D02*
X00458470D01*
X00457200Y00875030D02*
Y00877570D01*
X00417830Y00876300D02*
X00420370D01*
X00419100Y00875030D02*
Y00877570D01*
X00436880Y00838200D02*
X00439420D01*
X00438150Y00836930D02*
Y00839470D01*
X00379730Y00723900D02*
X00382270D01*
X00381000Y00722630D02*
Y00725170D01*
X00398780Y00533400D02*
X00401320D01*
X00400050Y00532130D02*
Y00534670D01*
X00379730Y00495300D02*
X00382270D01*
X00381000Y00494030D02*
Y00496570D01*
X00303530Y00419100D02*
X00306070D01*
X00304800Y00417830D02*
Y00420370D01*
X00265430Y00876300D02*
X00267970D01*
X00266700Y00875030D02*
Y00877570D01*
X00265430Y00800100D02*
X00267970D01*
X00266700Y00798830D02*
Y00801370D01*
X00265430Y00495300D02*
X00267970D01*
X00266700Y00494030D02*
Y00496570D01*
X00227330Y00952500D02*
X00229870D01*
X00228600Y00951230D02*
Y00953770D01*
X00246380Y00914400D02*
X00248920D01*
X00247650Y00913130D02*
Y00915670D01*
X00227330Y00876300D02*
X00229870D01*
X00228600Y00875030D02*
Y00877570D01*
X00246380Y00838200D02*
X00248920D01*
X00247650Y00836930D02*
Y00839470D01*
X00227330Y00800100D02*
X00229870D01*
X00228600Y00798830D02*
Y00801370D01*
X00246380Y00762000D02*
X00248920D01*
X00247650Y00760730D02*
Y00763270D01*
X00786504Y00472814D02*
X00789044D01*
X00787774Y00471544D02*
Y00474084D01*
X00710438Y00439166D02*
X00712978D01*
X00711708Y00437896D02*
Y00440436D01*
X00704772Y00447040D02*
X00707312D01*
X00706042Y00445770D02*
Y00448310D01*
X00666750Y00440125D02*
X00669290D01*
X00668020Y00438855D02*
Y00441395D01*
X00728218Y00456184D02*
X00730758D01*
X00729488Y00454914D02*
Y00457454D01*
X00729274Y00445620D02*
X00731814D01*
X00730544Y00444350D02*
Y00446890D01*
X00644949Y00462280D02*
X00647489D01*
X00646219Y00461010D02*
Y00463550D01*
X00656156Y00467073D02*
X00658696D01*
X00657426Y00465803D02*
Y00468343D01*
X00706628Y00408686D02*
X00709168D01*
X00707898Y00407416D02*
Y00409956D01*
X00741680Y00419100D02*
X00744220D01*
X00742950Y00417830D02*
Y00420370D01*
X00720038Y00411226D02*
X00722578D01*
X00721308Y00409956D02*
Y00412496D01*
X00699454Y00474606D02*
X00701994D01*
X00700724Y00473336D02*
Y00475876D01*
X00724662Y00470916D02*
X00727202D01*
X00725932Y00469646D02*
Y00472186D01*
X00653288Y00502249D02*
X00655828D01*
X00654558Y00500979D02*
Y00503519D01*
X00681019Y00503740D02*
X00683559D01*
X00682289Y00502470D02*
Y00505010D01*
X00666707Y00503936D02*
X00669247D01*
X00667977Y00502666D02*
Y00505206D01*
X00726694Y00495013D02*
X00729234D01*
X00727964Y00493743D02*
Y00496283D01*
X00820928Y00411226D02*
X00823468D01*
X00822198Y00409956D02*
Y00412496D01*
X00882650Y00411595D02*
X00885190D01*
X00883920Y00410325D02*
Y00412865D01*
X00396748Y00622046D02*
X00399288D01*
X00398018Y00620776D02*
Y00623316D01*
X00403098Y00678981D02*
X00405638D01*
X00404368Y00677711D02*
Y00680251D01*
X00951230Y00984250D02*
X00953770D01*
X00952500Y00982980D02*
Y00985520D01*
X00967105Y00952500D02*
X00969645D01*
X00968375Y00951230D02*
Y00953770D01*
X00951230Y00920750D02*
X00953770D01*
X00952500Y00919480D02*
Y00922020D01*
X00919480Y00984250D02*
X00922020D01*
X00920750Y00982980D02*
Y00985520D01*
X00935355Y00952500D02*
X00937895D01*
X00936625Y00951230D02*
Y00953770D01*
X00919480Y00920750D02*
X00922020D01*
X00920750Y00919480D02*
Y00922020D01*
X00887730Y00984250D02*
X00890270D01*
X00889000Y00982980D02*
Y00985520D01*
X00903605Y00952500D02*
X00906145D01*
X00904875Y00951230D02*
Y00953770D01*
X00855980Y00984250D02*
X00858520D01*
X00857250Y00982980D02*
Y00985520D01*
X00871855Y00952500D02*
X00874395D01*
X00873125Y00951230D02*
Y00953770D01*
X00855980Y00920750D02*
X00858520D01*
X00857250Y00919480D02*
Y00922020D01*
X00792480Y00984250D02*
X00795020D01*
X00793750Y00982980D02*
Y00985520D01*
X00792480Y00920750D02*
X00795020D01*
X00793750Y00919480D02*
Y00922020D01*
X00760730Y00984250D02*
X00763270D01*
X00762000Y00982980D02*
Y00985520D01*
X00776605Y00952500D02*
X00779145D01*
X00777875Y00951230D02*
Y00953770D01*
X00760730Y00920750D02*
X00763270D01*
X00762000Y00919480D02*
Y00922020D01*
X00728980Y00984250D02*
X00731520D01*
X00730250Y00982980D02*
Y00985520D01*
X00744855Y00952500D02*
X00747395D01*
X00746125Y00951230D02*
Y00953770D01*
X00728980Y00920750D02*
X00731520D01*
X00730250Y00919480D02*
Y00922020D01*
X00665480Y00984250D02*
X00668020D01*
X00666750Y00982980D02*
Y00985520D01*
X00681355Y00952500D02*
X00683895D01*
X00682625Y00951230D02*
Y00953770D01*
X00665480Y00920750D02*
X00668020D01*
X00666750Y00919480D02*
Y00922020D01*
X00633730Y00984250D02*
X00636270D01*
X00635000Y00982980D02*
Y00985520D01*
X00649605Y00952500D02*
X00652145D01*
X00650875Y00951230D02*
Y00953770D01*
X00617855Y00952500D02*
X00620395D01*
X00619125Y00951230D02*
Y00953770D01*
X00570230Y00984250D02*
X00572770D01*
X00571500Y00982980D02*
Y00985520D01*
X00570230Y00920750D02*
X00572770D01*
X00571500Y00919480D02*
Y00922020D01*
X00538480Y00984250D02*
X00541020D01*
X00539750Y00982980D02*
Y00985520D01*
X00554355Y00952500D02*
X00556895D01*
X00555625Y00951230D02*
Y00953770D01*
X00538480Y00920750D02*
X00541020D01*
X00539750Y00919480D02*
Y00922020D01*
X00506730Y00984250D02*
X00509270D01*
X00508000Y00982980D02*
Y00985520D01*
X00522605Y00952500D02*
X00525145D01*
X00523875Y00951230D02*
Y00953770D01*
X00506730Y00920750D02*
X00509270D01*
X00508000Y00919480D02*
Y00922020D01*
X00474980Y00984250D02*
X00477520D01*
X00476250Y00982980D02*
Y00985520D01*
X00490855Y00952500D02*
X00493395D01*
X00492125Y00951230D02*
Y00953770D01*
X00474980Y00920750D02*
X00477520D01*
X00476250Y00919480D02*
Y00922020D01*
X00443230Y00984250D02*
X00445770D01*
X00444500Y00982980D02*
Y00985520D01*
X00459105Y00952500D02*
X00461645D01*
X00460375Y00951230D02*
Y00953770D01*
X00443230Y00920750D02*
X00445770D01*
X00444500Y00919480D02*
Y00922020D01*
X00411480Y00984250D02*
X00414020D01*
X00412750Y00982980D02*
Y00985520D01*
X00427355Y00952500D02*
X00429895D01*
X00428625Y00951230D02*
Y00953770D01*
X00411480Y00920750D02*
X00414020D01*
X00412750Y00919480D02*
Y00922020D01*
X00379730Y00984250D02*
X00382270D01*
X00381000Y00982980D02*
Y00985520D01*
X00395605Y00952500D02*
X00398145D01*
X00396875Y00951230D02*
Y00953770D01*
X00379730Y00920750D02*
X00382270D01*
X00381000Y00919480D02*
Y00922020D01*
X00395605Y00889000D02*
X00398145D01*
X00396875Y00887730D02*
Y00890270D01*
X00379730Y00857250D02*
X00382270D01*
X00381000Y00855980D02*
Y00858520D01*
X00379730Y00793750D02*
X00382270D01*
X00381000Y00792480D02*
Y00795020D01*
X00347980Y00984250D02*
X00350520D01*
X00349250Y00982980D02*
Y00985520D01*
X00363855Y00952500D02*
X00366395D01*
X00365125Y00951230D02*
Y00953770D01*
X00347980Y00920750D02*
X00350520D01*
X00349250Y00919480D02*
Y00922020D01*
X00363855Y00889000D02*
X00366395D01*
X00365125Y00887730D02*
Y00890270D01*
X00347980Y00857250D02*
X00350520D01*
X00349250Y00855980D02*
Y00858520D01*
X00363855Y00825500D02*
X00366395D01*
X00365125Y00824230D02*
Y00826770D01*
X00332105Y00952500D02*
X00334645D01*
X00333375Y00951230D02*
Y00953770D01*
X00332105Y00889000D02*
X00334645D01*
X00333375Y00887730D02*
Y00890270D01*
X00332105Y00825500D02*
X00334645D01*
X00333375Y00824230D02*
Y00826770D01*
X00332105Y00762000D02*
X00334645D01*
X00333375Y00760730D02*
Y00763270D01*
X00443230Y00407416D02*
X00445770D01*
X00444500Y00406146D02*
Y00408686D01*
X00495587Y00407612D02*
X00498127D01*
X00496857Y00406342D02*
Y00408882D01*
X00550104Y00407668D02*
X00552644D01*
X00551374Y00406398D02*
Y00408938D01*
X00582904Y00407612D02*
X00585444D01*
X00584174Y00406342D02*
Y00408882D01*
X00544830Y00876300D02*
X00547370D01*
X00546100Y00875030D02*
Y00877570D01*
X00532130Y00876300D02*
X00534670D01*
X00533400Y00875030D02*
Y00877570D01*
X00532130Y00850900D02*
X00534670D01*
X00533400Y00849630D02*
Y00852170D01*
X00538480Y00838200D02*
X00541020D01*
X00539750Y00836930D02*
Y00839470D01*
X00525780Y00863600D02*
X00528320D01*
X00527050Y00862330D02*
Y00864870D01*
X00519430Y00850900D02*
X00521970D01*
X00520700Y00849630D02*
Y00852170D01*
X00525780Y00838200D02*
X00528320D01*
X00527050Y00836930D02*
Y00839470D01*
X00519430Y00825500D02*
X00521970D01*
X00520700Y00824230D02*
Y00826770D01*
X00513080Y00863600D02*
X00515620D01*
X00514350Y00862330D02*
Y00864870D01*
X00506730Y00850900D02*
X00509270D01*
X00508000Y00849630D02*
Y00852170D01*
X00513080Y00838200D02*
X00515620D01*
X00514350Y00836930D02*
Y00839470D01*
X00506730Y00825500D02*
X00509270D01*
X00508000Y00824230D02*
Y00826770D01*
X00513080Y00812800D02*
X00515620D01*
X00514350Y00811530D02*
Y00814070D01*
X00506730Y00800100D02*
X00509270D01*
X00508000Y00798830D02*
Y00801370D01*
X00513080Y00787400D02*
X00515620D01*
X00514350Y00786130D02*
Y00788670D01*
X00494030Y00850900D02*
X00496570D01*
X00495300Y00849630D02*
Y00852170D01*
X00500380Y00838200D02*
X00502920D01*
X00501650Y00836930D02*
Y00839470D01*
X00494030Y00825500D02*
X00496570D01*
X00495300Y00824230D02*
Y00826770D01*
X00500380Y00812800D02*
X00502920D01*
X00501650Y00811530D02*
Y00814070D01*
X00487680Y00838200D02*
X00490220D01*
X00488950Y00836930D02*
Y00839470D01*
X00481330Y00825500D02*
X00483870D01*
X00482600Y00824230D02*
Y00826770D01*
X00487680Y00812800D02*
X00490220D01*
X00488950Y00811530D02*
Y00814070D01*
X00481330Y00800100D02*
X00483870D01*
X00482600Y00798830D02*
Y00801370D01*
X00481330Y00774700D02*
X00483870D01*
X00482600Y00773430D02*
Y00775970D01*
X00474980Y00838200D02*
X00477520D01*
X00476250Y00836930D02*
Y00839470D01*
X00468630Y00825500D02*
X00471170D01*
X00469900Y00824230D02*
Y00826770D01*
X00474980Y00812800D02*
X00477520D01*
X00476250Y00811530D02*
Y00814070D01*
X00468630Y00800100D02*
X00471170D01*
X00469900Y00798830D02*
Y00801370D01*
X00474980Y00787400D02*
X00477520D01*
X00476250Y00786130D02*
Y00788670D01*
X00474980Y00762000D02*
X00477520D01*
X00476250Y00760730D02*
Y00763270D01*
X00462280Y00812800D02*
X00464820D01*
X00463550Y00811530D02*
Y00814070D01*
X00455930Y00800100D02*
X00458470D01*
X00457200Y00798830D02*
Y00801370D01*
X00449580Y00812800D02*
X00452120D01*
X00450850Y00811530D02*
Y00814070D01*
X00443230Y00800100D02*
X00445770D01*
X00444500Y00798830D02*
Y00801370D01*
X00430530Y00800100D02*
X00433070D01*
X00431800Y00798830D02*
Y00801370D01*
X00900430Y00850900D02*
X00902970D01*
X00901700Y00849630D02*
Y00852170D01*
X00900430Y00825500D02*
X00902970D01*
X00901700Y00824230D02*
Y00826770D01*
X00900430Y00800100D02*
X00902970D01*
X00901700Y00798830D02*
Y00801370D01*
X00900430Y00774700D02*
X00902970D01*
X00901700Y00773430D02*
Y00775970D01*
X00900430Y00749300D02*
X00902970D01*
X00901700Y00748030D02*
Y00750570D01*
X00887730Y00850900D02*
X00890270D01*
X00889000Y00849630D02*
Y00852170D01*
X00894080Y00838200D02*
X00896620D01*
X00895350Y00836930D02*
Y00839470D01*
X00887730Y00825500D02*
X00890270D01*
X00889000Y00824230D02*
Y00826770D01*
X00894080Y00812800D02*
X00896620D01*
X00895350Y00811530D02*
Y00814070D01*
X00894080Y00762000D02*
X00896620D01*
X00895350Y00760730D02*
Y00763270D01*
X00887730Y00749300D02*
X00890270D01*
X00889000Y00748030D02*
Y00750570D01*
X00881380Y00863600D02*
X00883920D01*
X00882650Y00862330D02*
Y00864870D01*
X00875030Y00850900D02*
X00877570D01*
X00876300Y00849630D02*
Y00852170D01*
X00881380Y00838200D02*
X00883920D01*
X00882650Y00836930D02*
Y00839470D01*
X00875030Y00825500D02*
X00877570D01*
X00876300Y00824230D02*
Y00826770D01*
X00881380Y00812800D02*
X00883920D01*
X00882650Y00811530D02*
Y00814070D01*
X00875030Y00800100D02*
X00877570D01*
X00876300Y00798830D02*
Y00801370D01*
X00875030Y00774700D02*
X00877570D01*
X00876300Y00773430D02*
Y00775970D01*
X00881380Y00762000D02*
X00883920D01*
X00882650Y00760730D02*
Y00763270D01*
X00875030Y00749300D02*
X00877570D01*
X00876300Y00748030D02*
Y00750570D01*
X00868680Y00838200D02*
X00871220D01*
X00869950Y00836930D02*
Y00839470D01*
X00862330Y00825500D02*
X00864870D01*
X00863600Y00824230D02*
Y00826770D01*
X00868680Y00812800D02*
X00871220D01*
X00869950Y00811530D02*
Y00814070D01*
X00862330Y00800100D02*
X00864870D01*
X00863600Y00798830D02*
Y00801370D01*
X00868680Y00787400D02*
X00871220D01*
X00869950Y00786130D02*
Y00788670D01*
X00862330Y00774700D02*
X00864870D01*
X00863600Y00773430D02*
Y00775970D01*
X00779780Y00863600D02*
X00782320D01*
X00781050Y00862330D02*
Y00864870D01*
X00773430Y00850900D02*
X00775970D01*
X00774700Y00849630D02*
Y00852170D01*
X00779780Y00838200D02*
X00782320D01*
X00781050Y00836930D02*
Y00839470D01*
X00773430Y00825500D02*
X00775970D01*
X00774700Y00824230D02*
Y00826770D01*
X00779780Y00812800D02*
X00782320D01*
X00781050Y00811530D02*
Y00814070D01*
X00773430Y00774700D02*
X00775970D01*
X00774700Y00773430D02*
Y00775970D01*
X00779780Y00762000D02*
X00782320D01*
X00781050Y00760730D02*
Y00763270D01*
X00773430Y00749300D02*
X00775970D01*
X00774700Y00748030D02*
Y00750570D01*
X00767080Y00838200D02*
X00769620D01*
X00768350Y00836930D02*
Y00839470D01*
X00760730Y00825500D02*
X00763270D01*
X00762000Y00824230D02*
Y00826770D01*
X00767080Y00812800D02*
X00769620D01*
X00768350Y00811530D02*
Y00814070D01*
X00760730Y00774700D02*
X00763270D01*
X00762000Y00773430D02*
Y00775970D01*
X00767080Y00762000D02*
X00769620D01*
X00768350Y00760730D02*
Y00763270D01*
X00760730Y00749300D02*
X00763270D01*
X00762000Y00748030D02*
Y00750570D01*
X00754380Y00838200D02*
X00756920D01*
X00755650Y00836930D02*
Y00839470D01*
X00748030Y00825500D02*
X00750570D01*
X00749300Y00824230D02*
Y00826770D01*
X00754380Y00812800D02*
X00756920D01*
X00755650Y00811530D02*
Y00814070D01*
X00748030Y00800100D02*
X00750570D01*
X00749300Y00798830D02*
Y00801370D01*
X00748030Y00774700D02*
X00750570D01*
X00749300Y00773430D02*
Y00775970D01*
X00754380Y00762000D02*
X00756920D01*
X00755650Y00760730D02*
Y00763270D01*
X00741680Y00838200D02*
X00744220D01*
X00742950Y00836930D02*
Y00839470D01*
X00741680Y00812800D02*
X00744220D01*
X00742950Y00811530D02*
Y00814070D01*
X00741680Y00787400D02*
X00744220D01*
X00742950Y00786130D02*
Y00788670D01*
X00665480Y00838200D02*
X00668020D01*
X00666750Y00836930D02*
Y00839470D01*
X00659130Y00825500D02*
X00661670D01*
X00660400Y00824230D02*
Y00826770D01*
X00665480Y00812800D02*
X00668020D01*
X00666750Y00811530D02*
Y00814070D01*
X00659130Y00800100D02*
X00661670D01*
X00660400Y00798830D02*
Y00801370D01*
X00665480Y00787400D02*
X00668020D01*
X00666750Y00786130D02*
Y00788670D01*
X00659130Y00774700D02*
X00661670D01*
X00660400Y00773430D02*
Y00775970D01*
X00665480Y00762000D02*
X00668020D01*
X00666750Y00760730D02*
Y00763270D01*
X00659130Y00749300D02*
X00661670D01*
X00660400Y00748030D02*
Y00750570D01*
X00646430Y00850900D02*
X00648970D01*
X00647700Y00849630D02*
Y00852170D01*
X00652780Y00838200D02*
X00655320D01*
X00654050Y00836930D02*
Y00839470D01*
X00646430Y00825500D02*
X00648970D01*
X00647700Y00824230D02*
Y00826770D01*
X00652780Y00812800D02*
X00655320D01*
X00654050Y00811530D02*
Y00814070D01*
X00652780Y00762000D02*
X00655320D01*
X00654050Y00760730D02*
Y00763270D01*
X00646430Y00749300D02*
X00648970D01*
X00647700Y00748030D02*
Y00750570D01*
X00633730Y00850900D02*
X00636270D01*
X00635000Y00849630D02*
Y00852170D01*
X00640080Y00838200D02*
X00642620D01*
X00641350Y00836930D02*
Y00839470D01*
X00633730Y00825500D02*
X00636270D01*
X00635000Y00824230D02*
Y00826770D01*
X00640080Y00812800D02*
X00642620D01*
X00641350Y00811530D02*
Y00814070D01*
X00633730Y00800100D02*
X00636270D01*
X00635000Y00798830D02*
Y00801370D01*
X00633730Y00774700D02*
X00636270D01*
X00635000Y00773430D02*
Y00775970D01*
X00640080Y00762000D02*
X00642620D01*
X00641350Y00760730D02*
Y00763270D01*
X00633730Y00749300D02*
X00636270D01*
X00635000Y00748030D02*
Y00750570D01*
X00627380Y00838200D02*
X00629920D01*
X00628650Y00836930D02*
Y00839470D01*
X00627380Y00812800D02*
X00629920D01*
X00628650Y00811530D02*
Y00814070D01*
X00627380Y00787400D02*
X00629920D01*
X00628650Y00786130D02*
Y00788670D01*
X00835854Y00596937D02*
X00838394D01*
X00837124Y00595667D02*
Y00598207D01*
X00837338Y00606255D02*
X00839878D01*
X00838608Y00604985D02*
Y00607525D01*
X00787883Y00562292D02*
X00790423D01*
X00789153Y00561022D02*
Y00563562D01*
X00559579Y00565965D02*
X00562118D01*
X00560849Y00564695D02*
Y00567235D01*
X00550816Y00563230D02*
X00553356D01*
X00552086Y00561960D02*
Y00564500D01*
X00754459Y00525625D02*
X00756999D01*
X00755729Y00524356D02*
Y00526895D01*
X00691388Y00524256D02*
X00693928D01*
X00692658Y00522986D02*
Y00525526D01*
X00716100Y00545736D02*
X00718640D01*
X00717370Y00544466D02*
Y00547006D01*
X00709866Y00538737D02*
X00712406D01*
X00711136Y00537467D02*
Y00540008D01*
X00571488Y00602277D02*
X00574028D01*
X00572758Y00601007D02*
Y00603547D01*
X00606298Y00470916D02*
X00608838D01*
X00607568Y00469646D02*
Y00472186D01*
X00748030Y00577003D02*
X00750570D01*
X00749300Y00575733D02*
Y00578273D01*
X00804418Y00498856D02*
X00806958D01*
X00805688Y00497586D02*
Y00500126D01*
X00762508Y00535476D02*
X00765048D01*
X00763778Y00534206D02*
Y00536746D01*
X00773938Y00507684D02*
X00776478D01*
X00775208Y00506414D02*
Y00508954D01*
X00896689Y00534771D02*
X00899229D01*
X00897959Y00533501D02*
Y00536041D01*
X00897128Y00543859D02*
X00899668D01*
X00898398Y00542589D02*
Y00545129D01*
X00742332Y00535294D02*
X00744872D01*
X00743602Y00534024D02*
Y00536564D01*
X00779018Y00538737D02*
X00781558D01*
X00780288Y00537467D02*
Y00540008D01*
X00779018Y00555141D02*
X00781558D01*
X00780288Y00553871D02*
Y00556411D01*
X00753592Y00534771D02*
X00756132D01*
X00754862Y00533501D02*
Y00536041D01*
X00654385Y00560061D02*
X00656925D01*
X00655655Y00558791D02*
Y00561331D01*
X00633663Y00538288D02*
X00636203D01*
X00634933Y00537018D02*
Y00539558D01*
X00607073Y00535294D02*
X00609613D01*
X00608343Y00534024D02*
Y00536564D01*
X00723138Y00569886D02*
X00725678D01*
X00724408Y00568616D02*
Y00571156D01*
X00874268Y00899656D02*
X00876808D01*
X00875538Y00898386D02*
Y00900926D01*
X01014826Y00782066D02*
X01017366D01*
X01016096Y00780796D02*
Y00783336D01*
X01002862Y00782066D02*
X01005402D01*
X01004132Y00780796D02*
Y00783336D01*
X00991108Y00782066D02*
X00993648D01*
X00992378Y00780796D02*
Y00783336D01*
X01021588Y00859536D02*
X01024128D01*
X01022858Y00858266D02*
Y00860806D01*
X01021799Y00828676D02*
X01024339D01*
X01023069Y00827405D02*
Y00829946D01*
X01021799Y00838962D02*
X01024339D01*
X01023069Y00837692D02*
Y00840232D01*
X01021588Y00849249D02*
X01024128D01*
X01022858Y00847979D02*
Y00850519D01*
X01021588Y00818896D02*
X01024128D01*
X01022858Y00817626D02*
Y00820166D01*
X01021799Y00788036D02*
X01024339D01*
X01023069Y00786766D02*
Y00789305D01*
X01021799Y00798322D02*
X01024339D01*
X01023069Y00797052D02*
Y00799592D01*
X01021588Y00808609D02*
X01024128D01*
X01022858Y00807339D02*
Y00809879D01*
X00984300Y00859536D02*
X00986840D01*
X00985570Y00858266D02*
Y00860806D01*
X00984511Y00828676D02*
X00987051D01*
X00985781Y00827405D02*
Y00829946D01*
X00984511Y00838962D02*
X00987051D01*
X00985781Y00837692D02*
Y00840232D01*
X00984300Y00849249D02*
X00986840D01*
X00985570Y00847979D02*
Y00850519D01*
X00984300Y00818896D02*
X00986840D01*
X00985570Y00817626D02*
Y00820166D01*
X00984511Y00788036D02*
X00987051D01*
X00985781Y00786766D02*
Y00789305D01*
X00984511Y00798322D02*
X00987051D01*
X00985781Y00797052D02*
Y00799592D01*
X00984300Y00808609D02*
X00986840D01*
X00985570Y00807339D02*
Y00809879D01*
X01014826Y00868426D02*
X01017366D01*
X01016096Y00867156D02*
Y00869696D01*
X01002862Y00868426D02*
X01005402D01*
X01004132Y00867156D02*
Y00869696D01*
X00991108Y00868426D02*
X00993648D01*
X00992378Y00867156D02*
Y00869696D01*
X00282659Y00868426D02*
X00285199D01*
X00283929Y00867156D02*
Y00869696D01*
X00294412Y00868426D02*
X00296952D01*
X00295682Y00867156D02*
Y00869696D01*
X00306377Y00868426D02*
X00308917D01*
X00307647Y00867156D02*
Y00869696D01*
X00275851Y00808609D02*
X00278391D01*
X00277121Y00807339D02*
Y00809879D01*
X00276062Y00798322D02*
X00278602D01*
X00277332Y00797052D02*
Y00799592D01*
X00276062Y00788036D02*
X00278602D01*
X00277332Y00786766D02*
Y00789305D01*
X00275851Y00818896D02*
X00278391D01*
X00277121Y00817626D02*
Y00820166D01*
X00275851Y00849249D02*
X00278391D01*
X00277121Y00847979D02*
Y00850519D01*
X00276062Y00838962D02*
X00278602D01*
X00277332Y00837692D02*
Y00840232D01*
X00276062Y00828676D02*
X00278602D01*
X00277332Y00827405D02*
Y00829946D01*
X00275851Y00859536D02*
X00278391D01*
X00277121Y00858266D02*
Y00860806D01*
X00313139Y00808609D02*
X00315679D01*
X00314409Y00807339D02*
Y00809879D01*
X00313350Y00798322D02*
X00315890D01*
X00314620Y00797052D02*
Y00799592D01*
X00313350Y00788036D02*
X00315890D01*
X00314620Y00786766D02*
Y00789305D01*
X00313139Y00818896D02*
X00315679D01*
X00314409Y00817626D02*
Y00820166D01*
X00313139Y00849249D02*
X00315679D01*
X00314409Y00847979D02*
Y00850519D01*
X00313350Y00838962D02*
X00315890D01*
X00314620Y00837692D02*
Y00840232D01*
X00313350Y00828676D02*
X00315890D01*
X00314620Y00827405D02*
Y00829946D01*
X00313139Y00859536D02*
X00315679D01*
X00314409Y00858266D02*
Y00860806D01*
X00282659Y00782066D02*
X00285199D01*
X00283929Y00780796D02*
Y00783336D01*
X00294412Y00782066D02*
X00296952D01*
X00295682Y00780796D02*
Y00783336D01*
X00306377Y00782066D02*
X00308917D01*
X00307647Y00780796D02*
Y00783336D01*
X00661414Y00883159D02*
X00663954D01*
X00662684Y00881889D02*
Y00884429D01*
X00653288Y00901115D02*
X00655828D01*
X00654558Y00899845D02*
Y00902385D01*
X00985570Y00941959D02*
X00988110D01*
X00986840Y00940689D02*
Y00943229D01*
X00985781Y00931672D02*
X00988321D01*
X00987051Y00930402D02*
Y00932942D01*
X00985781Y00921385D02*
X00988321D01*
X00987051Y00920116D02*
Y00922655D01*
X00985570Y00952246D02*
X00988110D01*
X00986840Y00950976D02*
Y00953516D01*
X00985570Y00982599D02*
X00988110D01*
X00986840Y00981329D02*
Y00983869D01*
X00985781Y00972312D02*
X00988321D01*
X00987051Y00971042D02*
Y00973582D01*
X00985781Y00962026D02*
X00988321D01*
X00987051Y00960755D02*
Y00963296D01*
X00985570Y00992886D02*
X00988110D01*
X00986840Y00991616D02*
Y00994156D01*
X01022858Y00941959D02*
X01025398D01*
X01024128Y00940689D02*
Y00943229D01*
X01023069Y00931672D02*
X01025609D01*
X01024339Y00930402D02*
Y00932942D01*
X01023069Y00921385D02*
X01025609D01*
X01024339Y00920116D02*
Y00922655D01*
X01022858Y00952246D02*
X01025398D01*
X01024128Y00950976D02*
Y00953516D01*
X01022858Y00982599D02*
X01025398D01*
X01024128Y00981329D02*
Y00983869D01*
X01023069Y00972312D02*
X01025609D01*
X01024339Y00971042D02*
Y00973582D01*
X01023069Y00962026D02*
X01025609D01*
X01024339Y00960755D02*
Y00963296D01*
X01022858Y00992886D02*
X01025398D01*
X01024128Y00991616D02*
Y00994156D01*
X00992378Y00915416D02*
X00994918D01*
X00993648Y00914146D02*
Y00916686D01*
X01004132Y00915416D02*
X01006672D01*
X01005402Y00914146D02*
Y00916686D01*
X01016096Y00915416D02*
X01018636D01*
X01017366Y00914146D02*
Y00916686D01*
X00306166D02*
X00308706D01*
X00307436Y00915416D02*
Y00917956D01*
X00294202Y00916686D02*
X00296742D01*
X00295472Y00915416D02*
Y00917956D01*
X00282448Y00916686D02*
X00284988D01*
X00283718Y00915416D02*
Y00917956D01*
X00312928Y00994156D02*
X00315468D01*
X00314198Y00992886D02*
Y00995426D01*
X00313139Y00963296D02*
X00315679D01*
X00314409Y00962026D02*
Y00964566D01*
X00313139Y00973582D02*
X00315679D01*
X00314409Y00972312D02*
Y00974852D01*
X00312928Y00983869D02*
X00315468D01*
X00314198Y00982599D02*
Y00985139D01*
X00312928Y00953516D02*
X00315468D01*
X00314198Y00952246D02*
Y00954786D01*
X00313139Y00922655D02*
X00315679D01*
X00314409Y00921385D02*
Y00923925D01*
X00313139Y00932942D02*
X00315679D01*
X00314409Y00931672D02*
Y00934212D01*
X00312928Y00943229D02*
X00315468D01*
X00314198Y00941959D02*
Y00944499D01*
X00275640Y00994156D02*
X00278180D01*
X00276910Y00992886D02*
Y00995426D01*
X00275851Y00963296D02*
X00278391D01*
X00277121Y00962026D02*
Y00964566D01*
X00275851Y00973582D02*
X00278391D01*
X00277121Y00972312D02*
Y00974852D01*
X00275640Y00983869D02*
X00278180D01*
X00276910Y00982599D02*
Y00985139D01*
X00275640Y00953516D02*
X00278180D01*
X00276910Y00952246D02*
Y00954786D01*
X00275851Y00922655D02*
X00278391D01*
X00277121Y00921385D02*
Y00923925D01*
X00275851Y00932942D02*
X00278391D01*
X00277121Y00931672D02*
Y00934212D01*
X00275640Y00943229D02*
X00278180D01*
X00276910Y00941959D02*
Y00944499D01*
X00617728Y00881126D02*
X00620268D01*
X00618998Y00879856D02*
Y00882396D01*
X00624078Y00901115D02*
X00626618D01*
X00625348Y00899845D02*
Y00902385D01*
X00565658Y00736346D02*
X00568198D01*
X00566928Y00735076D02*
Y00737616D01*
X00620410Y00579366D02*
X00622950D01*
X00621680Y00578096D02*
Y00580636D01*
X00784971Y00580431D02*
X00787511D01*
X00786241Y00579161D02*
Y00581701D01*
X00800354Y00568706D02*
X00802894D01*
X00801624Y00567436D02*
Y00569976D01*
X00907288Y00581406D02*
X00909828D01*
X00908558Y00580136D02*
Y00582676D01*
X00688848Y00885912D02*
X00691388D01*
X00690118Y00884642D02*
Y00887182D01*
X00676148Y00569580D02*
X00678688D01*
X00677418Y00568310D02*
Y00570849D01*
X00674622Y00584530D02*
X00677162D01*
X00675892Y00583260D02*
Y00585800D01*
X00655828Y00583234D02*
X00658368D01*
X00657098Y00581964D02*
Y00584504D01*
X00686308Y00543306D02*
X00688848D01*
X00687578Y00542036D02*
Y00544576D01*
X00644050Y00627215D02*
X00646590D01*
X00645320Y00625945D02*
Y00628485D01*
X00704052Y00580479D02*
X00706592D01*
X00705322Y00579208D02*
Y00581749D01*
X00712812Y00524449D02*
X00715352D01*
X00714082Y00523179D02*
Y00525719D01*
X00607273Y00523288D02*
X00609813D01*
X00608543Y00522018D02*
Y00524558D01*
X00498348Y00616496D02*
X00500888D01*
X00499618Y00615226D02*
Y00617766D01*
X00495705Y00645018D02*
X00498245D01*
X00496975Y00643748D02*
Y00646288D01*
X00499420Y00589523D02*
X00501960D01*
X00500690Y00588253D02*
Y00590793D01*
X00450735Y00636005D02*
X00453275D01*
X00452005Y00634735D02*
Y00637275D01*
X00460038Y00581355D02*
X00462578D01*
X00461308Y00580085D02*
Y00582625D01*
X00475883Y00571794D02*
X00478423D01*
X00477153Y00570524D02*
Y00573064D01*
X00487973Y00560508D02*
X00490513D01*
X00489243Y00559238D02*
Y00561778D01*
X00455270Y00644216D02*
X00457810D01*
X00456540Y00642946D02*
Y00645486D01*
X00952840Y00738679D02*
X00955380D01*
X00954110Y00737409D02*
Y00739949D01*
X00697542Y00818896D02*
X00700081D01*
X00698811Y00817626D02*
Y00820166D01*
X00538988Y00760476D02*
X00541528D01*
X00540258Y00759206D02*
Y00761746D01*
X00487973Y00678981D02*
X00490513D01*
X00489243Y00677711D02*
Y00680251D01*
X00484877Y00702056D02*
X00487417D01*
X00486147Y00700786D02*
Y00703326D01*
X00844857Y00654105D02*
X00847397D01*
X00846127Y00652835D02*
Y00655375D01*
X00832892Y00654105D02*
X00835432D01*
X00834162Y00652835D02*
Y00655375D01*
X00716999Y00655866D02*
X00719539D01*
X00718269Y00654596D02*
Y00657136D01*
X00705358Y00655866D02*
X00707898D01*
X00706628Y00654596D02*
Y00657136D01*
X00596152D02*
X00598692D01*
X00597422Y00655866D02*
Y00658406D01*
X00584708Y00657136D02*
X00587248D01*
X00585978Y00655866D02*
Y00658406D01*
X00812774Y00941959D02*
X00815314D01*
X00814044Y00940689D02*
Y00943229D01*
X00824738Y00941959D02*
X00827278D01*
X00826008Y00940689D02*
Y00943229D01*
X00836702Y00941959D02*
X00839242D01*
X00837972Y00940689D02*
Y00943229D01*
X00836702Y00931672D02*
X00839242D01*
X00837972Y00930402D02*
Y00932942D01*
X00824738Y00931672D02*
X00827278D01*
X00826008Y00930402D02*
Y00932942D01*
X00812984Y00931672D02*
X00815524D01*
X00814254Y00930402D02*
Y00932942D01*
X00812984Y00921385D02*
X00815524D01*
X00814254Y00920115D02*
Y00922655D01*
X00824738Y00921385D02*
X00827278D01*
X00826008Y00920115D02*
Y00922655D01*
X00836702Y00921385D02*
X00839242D01*
X00837972Y00920115D02*
Y00922655D01*
X00812774Y00952246D02*
X00815314D01*
X00814044Y00950976D02*
Y00953516D01*
X00824738Y00952246D02*
X00827278D01*
X00826008Y00950976D02*
Y00953516D01*
X00836702Y00952246D02*
X00839242D01*
X00837972Y00950976D02*
Y00953516D01*
X00812774Y00983869D02*
X00815314D01*
X00814044Y00982599D02*
Y00985139D01*
X00824738Y00983869D02*
X00827278D01*
X00826008Y00982599D02*
Y00985139D01*
X00836702Y00983869D02*
X00839242D01*
X00837972Y00982599D02*
Y00985139D01*
X00836702Y00973582D02*
X00839242D01*
X00837972Y00972312D02*
Y00974852D01*
X00824738Y00973582D02*
X00827278D01*
X00826008Y00972312D02*
Y00974852D01*
X00812984Y00973582D02*
X00815524D01*
X00814254Y00972312D02*
Y00974852D01*
X00812984Y00963295D02*
X00815524D01*
X00814254Y00962025D02*
Y00964565D01*
X00824738Y00963295D02*
X00827278D01*
X00826008Y00962025D02*
Y00964565D01*
X00836702Y00963295D02*
X00839242D01*
X00837972Y00962025D02*
Y00964565D01*
X00812774Y00994156D02*
X00815314D01*
X00814044Y00992886D02*
Y00995426D01*
X00824738Y00994156D02*
X00827278D01*
X00826008Y00992886D02*
Y00995426D01*
X00836702Y00994156D02*
X00839242D01*
X00837972Y00992886D02*
Y00995426D01*
X00693070Y00941959D02*
X00695610D01*
X00694340Y00940689D02*
Y00943229D01*
X00705034Y00941959D02*
X00707574D01*
X00706304Y00940689D02*
Y00943229D01*
X00716999Y00941959D02*
X00719539D01*
X00718269Y00940689D02*
Y00943229D01*
X00716999Y00931672D02*
X00719539D01*
X00718269Y00930402D02*
Y00932942D01*
X00705034Y00931672D02*
X00707574D01*
X00706304Y00930402D02*
Y00932942D01*
X00693281Y00931672D02*
X00695821D01*
X00694551Y00930402D02*
Y00932942D01*
X00693281Y00921385D02*
X00695821D01*
X00694551Y00920115D02*
Y00922655D01*
X00705034Y00921385D02*
X00707574D01*
X00706304Y00920115D02*
Y00922655D01*
X00716999Y00921385D02*
X00719539D01*
X00718269Y00920115D02*
Y00922655D01*
X00693070Y00952246D02*
X00695610D01*
X00694340Y00950976D02*
Y00953516D01*
X00705034Y00952246D02*
X00707574D01*
X00706304Y00950976D02*
Y00953516D01*
X00716999Y00952246D02*
X00719539D01*
X00718269Y00950976D02*
Y00953516D01*
X00692859Y00983869D02*
X00695399D01*
X00694129Y00982599D02*
Y00985139D01*
X00704824Y00983869D02*
X00707364D01*
X00706094Y00982599D02*
Y00985139D01*
X00716788Y00983869D02*
X00719328D01*
X00718058Y00982599D02*
Y00985139D01*
X00716788Y00973582D02*
X00719328D01*
X00718058Y00972312D02*
Y00974852D01*
X00704824Y00973582D02*
X00707364D01*
X00706094Y00972312D02*
Y00974852D01*
X00693070Y00973582D02*
X00695610D01*
X00694340Y00972312D02*
Y00974852D01*
X00693070Y00963295D02*
X00695610D01*
X00694340Y00962025D02*
Y00964565D01*
X00704824Y00963295D02*
X00707364D01*
X00706094Y00962025D02*
Y00964565D01*
X00716788Y00963295D02*
X00719328D01*
X00718058Y00962025D02*
Y00964565D01*
X00692859Y00994156D02*
X00695399D01*
X00694129Y00992886D02*
Y00995426D01*
X00704824Y00994156D02*
X00707364D01*
X00706094Y00992886D02*
Y00995426D01*
X00716788Y00994156D02*
X00719328D01*
X00718058Y00992886D02*
Y00995426D01*
X00582904Y00941959D02*
X00585444D01*
X00584174Y00940689D02*
Y00943229D01*
X00594868Y00941959D02*
X00597408D01*
X00596138Y00940689D02*
Y00943229D01*
X00606832Y00941959D02*
X00609372D01*
X00608102Y00940689D02*
Y00943229D01*
X00606832Y00931672D02*
X00609372D01*
X00608102Y00930402D02*
Y00932942D01*
X00594868Y00931672D02*
X00597408D01*
X00596138Y00930402D02*
Y00932942D01*
X00583114Y00931672D02*
X00585654D01*
X00584384Y00930402D02*
Y00932942D01*
X00583114Y00921385D02*
X00585654D01*
X00584384Y00920115D02*
Y00922655D01*
X00594868Y00921385D02*
X00597408D01*
X00596138Y00920115D02*
Y00922655D01*
X00606832Y00921385D02*
X00609372D01*
X00608102Y00920115D02*
Y00922655D01*
X00582904Y00952246D02*
X00585444D01*
X00584174Y00950976D02*
Y00953516D01*
X00594868Y00952246D02*
X00597408D01*
X00596138Y00950976D02*
Y00953516D01*
X00606832Y00952246D02*
X00609372D01*
X00608102Y00950976D02*
Y00953516D01*
X00582904Y00982599D02*
X00585444D01*
X00584174Y00981329D02*
Y00983869D01*
X00594868Y00982599D02*
X00597408D01*
X00596138Y00981329D02*
Y00983869D01*
X00606832Y00982599D02*
X00609372D01*
X00608102Y00981329D02*
Y00983869D01*
X00606832Y00972312D02*
X00609372D01*
X00608102Y00971042D02*
Y00973582D01*
X00594868Y00972312D02*
X00597408D01*
X00596138Y00971042D02*
Y00973582D01*
X00583114Y00972312D02*
X00585654D01*
X00584384Y00971042D02*
Y00973582D01*
X00583114Y00962025D02*
X00585654D01*
X00584384Y00960755D02*
Y00963295D01*
X00594868Y00962025D02*
X00597408D01*
X00596138Y00960755D02*
Y00963295D01*
X00606832Y00962025D02*
X00609372D01*
X00608102Y00960755D02*
Y00963295D01*
X00582904Y00992886D02*
X00585444D01*
X00584174Y00991616D02*
Y00994156D01*
X00594868Y00992886D02*
X00597408D01*
X00596138Y00991616D02*
Y00994156D01*
X00606832Y00992886D02*
X00609372D01*
X00608102Y00991616D02*
Y00994156D01*
X00704824Y00690639D02*
X00707364D01*
X00706094Y00689369D02*
Y00691909D01*
X00716788Y00690639D02*
X00719328D01*
X00718058Y00689369D02*
Y00691909D01*
X00728752Y00690639D02*
X00731292D01*
X00730022Y00689369D02*
Y00691909D01*
X00728752Y00680352D02*
X00731292D01*
X00730022Y00679082D02*
Y00681622D01*
X00716788Y00680352D02*
X00719328D01*
X00718058Y00679082D02*
Y00681622D01*
X00705034Y00680352D02*
X00707574D01*
X00706304Y00679082D02*
Y00681622D01*
X00705034Y00670065D02*
X00707574D01*
X00706304Y00668795D02*
Y00671335D01*
X00716788Y00670065D02*
X00719328D01*
X00718058Y00668795D02*
Y00671335D01*
X00728752Y00670065D02*
X00731292D01*
X00730022Y00668795D02*
Y00671335D01*
X00704824Y00700926D02*
X00707364D01*
X00706094Y00699656D02*
Y00702196D01*
X00716788Y00700926D02*
X00719328D01*
X00718058Y00699656D02*
Y00702196D01*
X00728752Y00700926D02*
X00731292D01*
X00730022Y00699656D02*
Y00702196D01*
X00820928Y00690639D02*
X00823468D01*
X00822198Y00689369D02*
Y00691909D01*
X00832892Y00690639D02*
X00835432D01*
X00834162Y00689369D02*
Y00691909D01*
X00844857Y00690639D02*
X00847397D01*
X00846127Y00689369D02*
Y00691909D01*
X00844857Y00680352D02*
X00847397D01*
X00846127Y00679082D02*
Y00681622D01*
X00832892Y00680352D02*
X00835432D01*
X00834162Y00679082D02*
Y00681622D01*
X00821139Y00680352D02*
X00823679D01*
X00822409Y00679082D02*
Y00681622D01*
X00821139Y00670065D02*
X00823679D01*
X00822409Y00668795D02*
Y00671335D01*
X00832892Y00670065D02*
X00835432D01*
X00834162Y00668795D02*
Y00671335D01*
X00844857Y00670065D02*
X00847397D01*
X00846127Y00668795D02*
Y00671335D01*
X00820928Y00700926D02*
X00823468D01*
X00822198Y00699656D02*
Y00702196D01*
X00832892Y00700926D02*
X00835432D01*
X00834162Y00699656D02*
Y00702196D01*
X00844857Y00700926D02*
X00847397D01*
X00846127Y00699656D02*
Y00702196D01*
X00608117Y00701767D02*
X00610657D01*
X00609387Y00700497D02*
Y00703037D01*
X00596152Y00701767D02*
X00598692D01*
X00597422Y00700497D02*
Y00703037D01*
X00584188Y00701767D02*
X00586728D01*
X00585458Y00700497D02*
Y00703037D01*
X00608117Y00670906D02*
X00610657D01*
X00609387Y00669636D02*
Y00672176D01*
X00596152Y00670906D02*
X00598692D01*
X00597422Y00669636D02*
Y00672176D01*
X00584399Y00670906D02*
X00586939D01*
X00585669Y00669636D02*
Y00672176D01*
X00584399Y00681193D02*
X00586939D01*
X00585669Y00679923D02*
Y00682463D01*
X00596152Y00681193D02*
X00598692D01*
X00597422Y00679923D02*
Y00682463D01*
X00608117Y00681193D02*
X00610657D01*
X00609387Y00679923D02*
Y00682463D01*
X00608117Y00691480D02*
X00610657D01*
X00609387Y00690210D02*
Y00692750D01*
X00596152Y00691480D02*
X00598692D01*
X00597422Y00690210D02*
Y00692750D01*
X00584188Y00691480D02*
X00586728D01*
X00585458Y00690210D02*
Y00692750D01*
X00335096Y00719836D02*
X00337636D01*
X00336366Y00718566D02*
Y00721106D01*
X00305000Y00559816D02*
X00307540D01*
X00306270Y00558546D02*
Y00561086D01*
X00712458Y00557939D02*
X00714998D01*
X00713728Y00556669D02*
Y00559209D01*
X00713302Y00618236D02*
X00715842D01*
X00714572Y00616966D02*
Y00619506D01*
X00849701Y00510862D02*
X00852241D01*
X00850971Y00509592D02*
Y00512132D01*
X00834898Y00541485D02*
X00837438D01*
X00836168Y00540215D02*
Y00542755D01*
X00664718Y00549656D02*
X00667258D01*
X00665988Y00548386D02*
Y00550926D01*
X00450735Y00591566D02*
X00453275D01*
X00452005Y00590296D02*
Y00592836D01*
X00549148Y00599306D02*
X00551688D01*
X00550418Y00598036D02*
Y00600576D01*
X00587248Y00642396D02*
X00589788D01*
X00588518Y00641126D02*
Y00643666D01*
X00653978Y00408432D02*
X00656518D01*
X00655248Y00407162D02*
Y00409702D01*
X00644398Y00408432D02*
X00646938D01*
X00645668Y00407162D02*
Y00409702D01*
X00634598Y00408432D02*
X00637138D01*
X00635868Y00407162D02*
Y00409702D01*
X00513097Y00740918D02*
X00515637D01*
X00514367Y00739648D02*
Y00742188D01*
X00638048Y00488696D02*
X00640588D01*
X00639318Y00487426D02*
Y00489966D01*
X00655828Y00540640D02*
X00658368D01*
X00657098Y00539370D02*
Y00541910D01*
X00499618Y00636016D02*
X00502158D01*
X00500888Y00634746D02*
Y00637286D01*
X00887754Y00532929D02*
X00890294D01*
X00889024Y00531660D02*
Y00534199D01*
X00878078Y00532929D02*
X00880618D01*
X00879348Y00531660D02*
Y00534199D01*
X00867918Y00533400D02*
X00870458D01*
X00869188Y00532130D02*
Y00534670D01*
X00859028Y00533146D02*
X00861568D01*
X00860298Y00531876D02*
Y00534416D01*
X00779018Y00546780D02*
X00781558D01*
X00780288Y00545510D02*
Y00548050D01*
X00779018Y00564896D02*
X00781558D01*
X00780288Y00563626D02*
Y00566166D01*
X00624968Y00538288D02*
X00627508D01*
X00626238Y00537018D02*
Y00539558D01*
X00642147Y00537972D02*
X00644687D01*
X00643417Y00536702D02*
Y00539242D01*
X00654558Y00552911D02*
X00657098D01*
X00655828Y00551641D02*
Y00554181D01*
X00654558Y00567436D02*
X00657098D01*
X00655828Y00566166D02*
Y00568706D01*
X00844266Y00616268D02*
X00846806D01*
X00845536Y00614998D02*
Y00617538D01*
X00831897Y00615854D02*
X00834437D01*
X00833167Y00614584D02*
Y00617124D01*
X00704088Y00617377D02*
X00706628D01*
X00705358Y00616107D02*
Y00618647D01*
X00723138Y00617377D02*
X00725678D01*
X00724408Y00616107D02*
Y00618647D01*
X00579628Y00618052D02*
X00582168D01*
X00580898Y00616782D02*
Y00619322D01*
X00598678Y00618236D02*
X00601218D01*
X00599948Y00616966D02*
Y00619506D01*
X00588893Y00618236D02*
X00591433D01*
X00590163Y00616966D02*
Y00619506D01*
X00316738Y00723646D02*
X00319278D01*
X00318008Y00722376D02*
Y00724916D01*
X00316738Y00735076D02*
X00319278D01*
X00318008Y00733806D02*
Y00736346D01*
X00785368Y00509016D02*
X00787908D01*
X00786638Y00507746D02*
Y00510286D01*
X00471784Y00475996D02*
X00474324D01*
X00473054Y00474726D02*
Y00477266D01*
X00820928Y00516636D02*
X00823468D01*
X00822198Y00515366D02*
Y00517906D01*
X00438658Y00479806D02*
X00441198D01*
X00439928Y00478536D02*
Y00481076D01*
X00820928Y00526796D02*
X00823468D01*
X00822198Y00525526D02*
Y00528066D01*
X00466598Y00731450D02*
X00469138D01*
X00467868Y00730180D02*
Y00732720D01*
X00597408Y00539496D02*
X00599948D01*
X00598678Y00538226D02*
Y00540766D01*
X00251408Y00444956D02*
X00253948D01*
X00252678Y00443686D02*
Y00446226D01*
X00439928Y00543306D02*
X00442468D01*
X00441198Y00542036D02*
Y00544576D01*
X00403579D02*
X00406119D01*
X00404849Y00543306D02*
Y00545846D01*
X00477121Y00453976D02*
X00479661D01*
X00478391Y00452706D02*
Y00455246D01*
X00519938Y00415036D02*
X00522478D01*
X00521208Y00413766D02*
Y00416306D01*
X00497078Y00482346D02*
X00499618D01*
X00498348Y00481076D02*
Y00483616D01*
X00515968Y00456786D02*
X00518508D01*
X00517238Y00455516D02*
Y00458056D01*
X00488188Y00528161D02*
X00490728D01*
X00489458Y00526890D02*
Y00529431D01*
X00431038Y00715226D02*
X00433578D01*
X00432308Y00713956D02*
Y00716496D01*
X00421695Y00715226D02*
X00424235D01*
X00422965Y00713956D02*
Y00716496D01*
X00428195Y00580786D02*
X00430735D01*
X00429465Y00579516D02*
Y00582056D01*
X00550037Y00496500D02*
X00552577D01*
X00551307Y00495230D02*
Y00497770D01*
X00550037Y00456057D02*
X00552577D01*
X00551307Y00454787D02*
Y00457327D01*
X00595187Y00571246D02*
X00597727D01*
X00596457Y00569976D02*
Y00572516D01*
X00599948Y00456786D02*
X00602488D01*
X00601218Y00455516D02*
Y00458056D01*
X00599948Y00492675D02*
X00602488D01*
X00601218Y00491405D02*
Y00493945D01*
X00597408Y00524256D02*
X00599948D01*
X00598678Y00522986D02*
Y00525526D01*
X00333248Y00533576D02*
X00335788D01*
X00334518Y00532306D02*
Y00534846D01*
X00486915Y00464426D02*
X00489455D01*
X00488185Y00463156D02*
Y00465696D01*
X00425239Y00464426D02*
X00427779D01*
X00426509Y00463156D02*
Y00465696D01*
X00405612Y00522926D02*
X00408153D01*
X00406883Y00521656D02*
Y00524196D01*
X00500885Y00719346D02*
X00503425D01*
X00502155Y00718076D02*
Y00720616D01*
X00448815Y00729936D02*
X00451355D01*
X00450085Y00728666D02*
Y00731206D01*
X00451685Y00695680D02*
X00454225D01*
X00452955Y00694410D02*
Y00696950D01*
X00399001Y00706476D02*
X00401541D01*
X00400271Y00705206D02*
Y00707746D01*
X00446470Y00670246D02*
X00449010D01*
X00447740Y00668976D02*
Y00671516D01*
X00290068Y00769366D02*
X00292608D01*
X00291338Y00768096D02*
Y00770636D01*
X00219920Y00769366D02*
X00222460D01*
X00221190Y00768096D02*
Y00770636D01*
X00643931Y00437388D02*
X00646471D01*
X00645201Y00436118D02*
Y00438658D01*
X00652765Y00437556D02*
X00655305D01*
X00654035Y00436286D02*
Y00438826D01*
X00635265Y00437388D02*
X00637805D01*
X00636535Y00436118D02*
Y00438658D01*
X00873547Y00430825D02*
X00876087D01*
X00874817Y00429555D02*
Y00432095D01*
X00872538Y00449536D02*
X00875078D01*
X00873808Y00448266D02*
Y00450806D01*
X00872997Y00485675D02*
X00875537D01*
X00874267Y00484405D02*
Y00486945D01*
X00222920Y00732956D02*
X00225460D01*
X00224190Y00731686D02*
Y00734226D01*
X00216570Y00662260D02*
X00219110D01*
X00217840Y00660990D02*
Y00663530D01*
X00325058Y00561086D02*
X00327598D01*
X00326328Y00559816D02*
Y00562356D01*
X00245618Y00526974D02*
X00248158D01*
X00246888Y00525704D02*
Y00528244D01*
X00269168Y00481656D02*
X00271708D01*
X00270438Y00480386D02*
Y00482926D01*
X00202438Y00495656D02*
X00204978D01*
X00203708Y00494386D02*
Y00496926D01*
X00291338Y00492506D02*
X00293878D01*
X00292608Y00491236D02*
Y00493776D01*
X00235820Y00570836D02*
X00238360D01*
X00237090Y00569566D02*
Y00572106D01*
X00246400Y00458216D02*
X00248940D01*
X00247670Y00456946D02*
Y00459486D01*
X00396748Y00455126D02*
X00399288D01*
X00398018Y00453856D02*
Y00456396D01*
X00354528Y00444106D02*
X00357068D01*
X00355798Y00442836D02*
Y00445376D01*
X00288798Y00452236D02*
X00291338D01*
X00290068Y00450966D02*
Y00453506D01*
X00801878Y00732720D02*
X00804418D01*
X00803148Y00731450D02*
Y00733990D01*
X00686308Y00732720D02*
X00688848D01*
X00687578Y00731450D02*
Y00733990D01*
X00810908Y00620188D02*
X00813448D01*
X00812178Y00618918D02*
Y00621458D01*
X00687302Y00622390D02*
X00689842D01*
X00688572Y00621120D02*
Y00623660D01*
X00560452Y00624078D02*
X00562992D01*
X00561722Y00622808D02*
Y00625348D01*
M02*
